<?xml version="1.0" encoding="utf-8"?>
<!-- Generator: Adobe Illustrator 21.1.0, SVG Export Plug-In . SVG Version: 6.00 Build 0)  -->
<svg version="1.1" xmlns="http://www.w3.org/2000/svg" xmlns:xlink="http://www.w3.org/1999/xlink" x="0px" y="0px"
	 viewBox="0 0 878.7 878.7" style="enable-background:new 0 0 878.7 878.7;" xml:space="preserve">
<style type="text/css">
	.st0{fill:#68989D;}
	.st1{fill:#E30B17;stroke:#000000;stroke-width:2;stroke-miterlimit:10;}
	.st2{fill:#E5BF02;stroke:#E5BF02;stroke-miterlimit:10;}
	.st3{clip-path:url(#SVGID_2_);}
	.st4{clip-path:url(#SVGID_4_);fill:none;stroke:#000000;stroke-linecap:round;stroke-miterlimit:10;}
	.st5{clip-path:url(#SVGID_4_);}
	.st6{clip-path:url(#SVGID_6_);fill:#FED894;}
	.st7{clip-path:url(#SVGID_6_);}
	.st8{clip-path:url(#SVGID_8_);}
	.st9{clip-path:url(#SVGID_8_);fill:#F39330;}
	.st10{clip-path:url(#SVGID_8_);fill:none;stroke:#000000;stroke-miterlimit:10;}
	.st11{clip-path:url(#SVGID_8_);fill:none;stroke:#000000;stroke-width:2;stroke-miterlimit:10;}
	.st12{clip-path:url(#SVGID_8_);fill:#020304;}
	.st13{fill:#FFFFFF;}
	.st14{fill:#C4D9DD;}
	.st15{fill:none;stroke:#E9E20D;stroke-miterlimit:10;}
	.st16{fill:#E5BF01;stroke:#5C5A5A;stroke-miterlimit:10;}
	.st17{fill:#15381D;stroke:#000000;stroke-miterlimit:10;}
	.st18{stroke:#020304;stroke-miterlimit:10;}
	.st19{fill:#E30613;stroke:#E5BF02;stroke-miterlimit:10;}
	.st20{font-family:'BerlinSansFB-Bold';}
	.st21{font-size:159px;}
	.st22{fill:#D0DEE5;}
	.st23{fill:none;}
</style>
<g id="Baksida">
</g>
<g id="Framsida">
	<rect id="Fond" class="st14" width="878.7" height="878.7"/>
	<rect id="Ram" x="14.2" y="14.2" class="st15" width="850.4" height="850.4"/>
	<g id="SurfingGitarr">
		<path id="Surfbräda_1_" class="st16" d="M52.7,239.4c0,0,97.9-37,144.6-44.5c46.7-7.5,109.1-16.6,156.6-19.5s119.3-3.6,143.1-2.5
			c23.8,1.1,93,4,124.4,9c31.4,5,82.9,13.2,111.1,23.2c28.2,10,70.9,29.4,79.8,37c8.9,7.6,27.3,23.3,30.6,27.4
			c3.3,4,14.3,20.5,14.3,20.5s1.4,0.3-1.4,4c-2.7,3.7-14.4,21.7-17.3,23.9c-2.9,2.2-35.6,31-58.2,40.6s-59.7,24.2-79.4,28.3
			s-73.6,15.8-106.7,18.7s-102.6,6.2-102.6,6.2s-119.3,2.7-176.4-3.9c-57.1-6.6-112.8-12.9-124.2-15.7
			c-11.4-2.8-47.7-11.1-66.1-16.6S66.9,355.9,64,354.3c-2.9-1.6-10.3-6-12.8-8.8c-2.5-2.8-21.5-50.5-21.5-50.5s12.4-40.2,15.9-45.4
			C49.1,244.3,52.7,239.4,52.7,239.4z"/>
		<circle id="Resonanshål_1_" class="st17" cx="352" cy="290.2" r="72.5"/>
		<g id="Strängar_1_">
			<line class="st18" x1="21.6" y1="256.7" x2="690.5" y2="256.7"/>
			<line class="st18" x1="21.6" y1="288.9" x2="690.5" y2="288.9"/>
			<line class="st18" x1="21.6" y1="323.8" x2="690.5" y2="323.8"/>
		</g>
	</g>
	<text id="Artist" transform="matrix(1 0 0 1 32.4467 139.4258)" class="st19 st20 st21">HANG TEN</text>
	<path id="Vågskum" class="st22" d="M15.5,307.2c0,0,78.7-39.2,122.5,2.8s66.3,83.9,86.5,114.7s42.7,76.9,51.7,100.7
		c9,23.8-1.1,69.9,52.8,76.9c53.9,7,105.6,15.4,116.9,2.8c11.2-12.6-39.3-64.3-39.3-64.3s46.1-32.2,86.5,2.8
		c40.5,35,121.4,173.4,127,193s120.2,96.5,120.2,96.5s95.5,8.4,102.3-25.2c6.7-33.6,21.4-159.4,3.4-193
		c-18-33.6-38.2-106.3-67.4-116.1s-68.5-46.1-102.3-53.1c-33.7-7-70.7-48.9-107.9-50.3s-98.9-16.8-109-7c-10.1,9.8-86.5,14-86.5,14
		s-50.6-29.4-105.6-68.5s-115.7-102.1-150.6-93.7s-67.4-28-84.3-7S15.5,307.2,15.5,307.2z"/>
	<path id="Våg" class="st0" d="M16.5,318.5c0,0,36.5-81.5,170.8,18.9c77.2,57.7,104.2,113.3,121.6,139.4
		c17.4,26.1,2.9,18.9,31.8,84.2s97,100.2,141.9,135s81.1,62.4,125.9,75.5s47.8,23.2,130.3,46.5s117.3,29,117.3,29l-689-7.3
		L58.5,825.3c0,0-2.9-171.3-2.9-175.7S2,558.1,44,514.5s29-85.7,89.7-66.8c60.8,18.9,143.3,30.5,143.3,30.5S207.2,384.5,158,386
		S58,346,38.2,344.6C23.7,343.7,16.5,318.5,16.5,318.5z"/>
	<path id="SVGID_x5F_2_x5F_" class="st23" d="M246,337c0,0,136,270,228,331c190,126,323,179.2,368,70"/>
	<text>	<textPath  xlink:href="#SVGID_x5F_2_x5F_" startOffset="23.6085%">
<tspan  class="st19 st20" style="font-size:194px;">Life is a wave</tspan>	</textPath>
</text>
</g>
</svg>
