<?xml version="1.0" encoding="utf-8"?>
<!-- Generator: Adobe Illustrator 21.1.0, SVG Export Plug-In . SVG Version: 6.00 Build 0)  -->
<svg version="1.1" xmlns="http://www.w3.org/2000/svg" xmlns:xlink="http://www.w3.org/1999/xlink" x="0px" y="0px"
	 viewBox="0 0 878.7 878.7" style="enable-background:new 0 0 878.7 878.7;" xml:space="preserve">
<style type="text/css">
	.st0{fill:#68989D;}
	.st1{fill:#E30B17;stroke:#000000;stroke-width:2;stroke-miterlimit:10;}
	.st2{fill:#E5BF02;stroke:#E5BF02;stroke-miterlimit:10;}
	.st3{clip-path:url(#SVGID_2_);}
	.st4{clip-path:url(#SVGID_4_);fill:none;stroke:#000000;stroke-linecap:round;stroke-miterlimit:10;}
	.st5{clip-path:url(#SVGID_4_);}
	.st6{clip-path:url(#SVGID_6_);fill:#FED894;}
	.st7{clip-path:url(#SVGID_6_);}
	.st8{clip-path:url(#SVGID_8_);}
	.st9{clip-path:url(#SVGID_8_);fill:#F39330;}
	.st10{clip-path:url(#SVGID_8_);fill:none;stroke:#000000;stroke-miterlimit:10;}
	.st11{clip-path:url(#SVGID_8_);fill:none;stroke:#000000;stroke-width:2;stroke-miterlimit:10;}
	.st12{clip-path:url(#SVGID_8_);fill:#020304;}
	.st13{fill:#FFFFFF;}
	.st14{fill:#C4D9DD;}
	.st15{fill:none;stroke:#E9E20D;stroke-miterlimit:10;}
	.st16{fill:#E5BF01;stroke:#5C5A5A;stroke-miterlimit:10;}
	.st17{fill:#15381D;stroke:#000000;stroke-miterlimit:10;}
	.st18{stroke:#020304;stroke-miterlimit:10;}
	.st19{fill:#E30613;stroke:#E5BF02;stroke-miterlimit:10;}
	.st20{fill:#D0DEE5;}
</style>
<g id="Baksida">
</g>
<g id="Framsida">
	<rect id="Fond" class="st14" width="878.7" height="878.7"/>
	<rect id="Ram" x="14.2" y="14.2" class="st15" width="850.4" height="850.4"/>
	<g id="SurfingGitarr">
		<path id="Surfbräda_1_" class="st16" d="M52.7,239.4c0,0,97.9-37,144.6-44.5c46.7-7.5,109.1-16.6,156.6-19.5s119.3-3.6,143.1-2.5
			c23.8,1.1,93,4,124.4,9c31.4,5,82.9,13.2,111.1,23.2c28.2,10,70.9,29.4,79.8,37c8.9,7.6,27.3,23.3,30.6,27.4
			c3.3,4,14.3,20.5,14.3,20.5s1.4,0.3-1.4,4c-2.7,3.7-14.4,21.7-17.3,23.9c-2.9,2.2-35.6,31-58.2,40.6s-59.7,24.2-79.4,28.3
			s-73.6,15.8-106.7,18.7s-102.6,6.2-102.6,6.2s-119.3,2.7-176.4-3.9c-57.1-6.6-112.8-12.9-124.2-15.7
			c-11.4-2.8-47.7-11.1-66.1-16.6S66.9,355.9,64,354.3c-2.9-1.6-10.3-6-12.8-8.8c-2.5-2.8-21.5-50.5-21.5-50.5s12.4-40.2,15.9-45.4
			C49.1,244.3,52.7,239.4,52.7,239.4z"/>
		<circle id="Resonanshål_1_" class="st17" cx="352" cy="290.2" r="72.5"/>
		<g id="Strängar_1_">
			<line class="st18" x1="21.6" y1="256.7" x2="690.5" y2="256.7"/>
			<line class="st18" x1="21.6" y1="288.9" x2="690.5" y2="288.9"/>
			<line class="st18" x1="21.6" y1="323.8" x2="690.5" y2="323.8"/>
		</g>
	</g>
	<g>
		<path class="st19" d="M149,137.2c0,1.6-0.8,2.3-2.3,2.3c-2.2,0-5.4-0.1-9.7-0.3c-4.3-0.2-7.5-0.3-9.6-0.3c-2.2,0-5.5,0.1-9.9,0.3
			c-4.4,0.2-7.6,0.3-9.8,0.3c-1.6,0-2.4-1-2.4-2.9c0-3.5,0.2-8.7,0.7-15.7c0.5-7,0.7-12.3,0.7-15.7c0-2.1-0.6-3.2-1.9-3.5
			c-2-0.5-5.6-0.7-10.8-0.7c-5.3,0-9,0.2-11,0.7c-1.2,0.3-1.9,1.4-1.9,3.5c0,3.5,0.2,8.7,0.5,15.7c0.3,7,0.5,12.3,0.5,15.7
			c0,1.9-0.8,2.9-2.4,2.9c-2.2,0-5.6-0.1-10-0.3c-4.5-0.2-7.8-0.3-10-0.3c-2,0-5.1,0.1-9.1,0.3c-4.1,0.2-7.1,0.3-9.1,0.3
			c-1.7,0-2.6-0.7-2.6-2.3c0-5.6,0.3-14.1,0.8-25.4c0.5-11.3,0.8-19.8,0.8-25.4c0-6-0.2-15-0.7-27.1c-0.5-12-0.7-21.1-0.7-27.1
			c0-1.1,0.6-1.7,1.9-1.7c2.2,0,5.4,0.1,9.8,0.3c4.4,0.2,7.6,0.3,9.8,0.3c2.3,0,5.8-0.1,10.4-0.3c4.6-0.2,8.1-0.3,10.4-0.3
			c0.8,0,1.2,0.5,1.2,1.6c0,3.5-0.4,8.8-1.1,15.9c-0.8,7.1-1.1,12.4-1.1,15.9c0,0.9,0.5,1.4,1.4,1.6C83.7,65.8,87.9,66,94,66
			c5.7,0,9.6-0.2,11.6-0.6c1.3-0.3,1.9-1.3,1.9-3c0-3.3-0.2-8.2-0.7-14.7c-0.4-6.5-0.7-11.5-0.7-14.7c0-1.7,0.4-2.5,1.2-2.5
			c2.2,0,5.5,0.1,9.9,0.3c4.5,0.2,7.8,0.3,10,0.3c2.2,0,5.4-0.1,9.8-0.3c4.3-0.2,7.6-0.3,9.7-0.3c1.3,0,2,0.6,2,1.9
			c0,6-0.2,15-0.7,27c-0.5,12-0.7,21-0.7,27c0,5.6,0.3,14.1,0.8,25.4C148.7,123.1,149,131.5,149,137.2z"/>
		<path class="st19" d="M271.5,138.3c0,0.7-1,1.1-3.1,1.1c-2.2,0-5.6-0.1-10.1-0.3c-4.5-0.2-7.9-0.3-10.1-0.3
			c-2.2,0-5.5,0.1-9.9,0.3c-4.4,0.2-7.7,0.3-9.9,0.3c-1.3,0-2.1-0.8-2.3-2.3c0,0.1,0-1.2,0-3.8c0-2.1-1-3.1-3-3.1
			c-12.1,0-19.1,0.3-21.2,1c-2.1,0.6-3.3,2.3-3.8,4.9c-0.4,2.3-1.2,3.4-2.5,3.4c-2.1,0-5.3-0.1-9.5-0.3c-4.2-0.2-7.4-0.3-9.5-0.3
			c-2.1,0-5.2,0.1-9.4,0.3c-4.2,0.2-7.4,0.3-9.4,0.3c-1.5,0-2.3-0.6-2.3-1.9c0-1.6,12.2-36.9,36.7-105.9c0.5-1.3,0.9-2.1,1.2-2.4
			c0.4-0.3,1.2-0.4,2.4-0.4c1.8,0,4.5,0.2,8,0.7c3.5,0.5,6.2,0.7,8,0.7c7.3,0,12.4-0.4,15.3-1.1c0.6-0.2,1.1-0.3,1.3-0.3
			c0.9,0,1.9,0.9,3.1,2.6c0.5,0.8,2.6,5.4,6.4,13.9c3,6.5,7.1,16.4,12.6,29.6c2.6,6.9,6.1,17.3,10.4,31.3c4.4,14,7.8,24.4,10.4,31.1
			C271.4,137.8,271.5,138.1,271.5,138.3z M219.7,88.3c0-4.1-2.3-7.5-6.8-10.2c-4.6,3.3-6.8,6.7-6.8,10.2c0,1.8,0.7,3.4,2.1,4.8
			c1.4,1.4,3,2.1,4.8,2.1c1.9,0,3.5-0.7,4.8-2.1C219,91.7,219.7,90.1,219.7,88.3z"/>
		<path class="st19" d="M387.5,32.6c0,5.9-0.3,14.8-0.9,26.7c-0.6,11.9-0.9,20.8-0.9,26.7l-0.2,51.6c0,1.2-0.9,1.8-2.7,1.8
			c-1.7,0-4.3-0.1-7.6-0.3c-3.4-0.2-5.9-0.3-7.6-0.3c-1.8,0-4.4,0.1-8,0.3c-3.6,0.2-6.3,0.3-8.1,0.3c-0.9,0-1.9-0.9-3.2-2.6
			c-18.8-26-29-39-30.5-39c-0.7,0-1.1,0.8-1.1,2.3c0,4,0.2,10.1,0.5,18.2c0.3,8.1,0.5,14.2,0.5,18.2c0,1.9-0.8,2.9-2.4,2.9
			c-1.9,0-4.7-0.1-8.4-0.3c-3.8-0.2-6.6-0.3-8.4-0.3c-2,0-5.1,0.1-9.1,0.3c-4.1,0.2-7.1,0.3-9.1,0.3c-1.7,0-2.6-0.7-2.6-2.3
			c0-5.6,0.3-14.1,0.8-25.4c0.5-11.3,0.8-19.8,0.8-25.4c0-5.9-0.2-14.7-0.7-26.5c-0.5-11.8-0.7-20.6-0.7-26.4c0-1.1,1.1-1.7,3.2-1.7
			c2.3,0,7.4-0.4,15.1-1.3c1-0.1,3.8-0.5,8.3-1.3c3.4-0.6,6.2-0.9,8.2-0.9c0.7,0,1.8,1.1,3.2,3.3c0.9,1.4,5,7.3,12.5,17.8
			c4,5.8,10.3,14.3,18.9,25.5c0.5-0.4,0.8-2,0.8-5c0-4-0.3-10-1-18.1c-0.7-8-1-14.1-1-18.1c0-2,0.5-3,1.6-3c2.1,0,5.2,0.1,9.3,0.2
			c4.1,0.2,7.2,0.2,9.3,0.2c2.2,0,5.6-0.1,10-0.2c4.5-0.2,7.8-0.2,10-0.2C387,30.5,387.5,31.2,387.5,32.6z"/>
		<path class="st19" d="M509.2,135.2c0,1.6-0.9,2.3-2.7,2.3c-2.6,0-6.4-0.4-11.4-1.3c-5.2-0.9-9-1.4-11.4-1.5
			c-10.1,5.2-19.6,7.8-28.4,7.8c-15.8,0-29.3-5.6-40.6-16.8c-11.3-11.2-17-24.7-17-40.4c0-16.1,5.6-29.7,16.7-40.9
			c11.2-11.2,24.8-16.7,40.9-16.7c7.7,0,15.6,1.7,23.8,5.1c8.9,3.7,15.4,8.4,19.5,14.3c1,1.4,1.5,2.6,1.5,3.6
			c0,1.6-2.9,5.5-8.6,11.9c-5.4,6-9.1,9.5-11,10.8c-1,0.7-2.1,1-3.1,1c-0.9,0-3.3-1.2-7.2-3.7c-3.9-2.5-8.2-3.7-12.9-3.7
			c-5,0-9.2,1.8-12.6,5.4c-3.4,3.6-5.2,7.9-5.2,12.9c0,5,1.8,9.4,5.5,13.3c3.6,3.8,8,5.7,12.9,5.7c3.4,0,6.4-0.6,9.1-1.9
			c-0.1-1.3-0.5-4.9-1.2-10.9c-0.5-4.5-0.8-8.1-0.8-10.9c0-0.6,0.1-1.1,0.3-1.6c0.3-0.3,0.9-0.5,1.6-0.5c0.4,0,1.8,0.2,4.2,0.5
			c3.6,0.4,8.7,0.6,15.3,0.6c2.3,0,5.7-0.1,10.2-0.3c4.6-0.2,8-0.3,10.2-0.3c1.5,0,2.3,0.6,2.3,1.9c0,2.8-0.2,7-0.7,12.6
			c-0.5,5.6-0.7,9.8-0.7,12.6c0,3.3,0.3,8.2,0.9,14.8C508.9,127.4,509.2,132.2,509.2,135.2z"/>
		<path class="st19" d="M638.2,61.9c0,1-0.6,1.6-1.7,1.6c1.3,0-5.2-0.4-19.4-1.2c-0.2,9.1-0.3,15-0.3,17.6c0,6.4,0.3,15.9,0.8,28.6
			c0.5,12.7,0.8,22.3,0.8,28.6c0,1.6-0.8,2.3-2.3,2.3c-2.2,0-5.5-0.1-9.9-0.3c-4.5-0.2-7.8-0.3-10-0.3c-2.1,0-5.3,0.1-9.5,0.3
			c-4.2,0.2-7.4,0.3-9.5,0.3c-1.7,0-2.6-0.7-2.6-2.3c0-6.3,0.3-15.8,0.8-28.6c0.5-12.7,0.8-22.3,0.8-28.6c0-2.5-0.1-8.3-0.3-17.2
			c-4.6,0.3-11.4,0.9-20.5,1.7c-0.8-0.4-1.2-0.6-1.2-0.7c0-0.6,0.4-3.2,1.3-7.9c1-5.1,1.5-8.1,1.6-9c0.2-4.8,0.7-10.5,1.6-17.2
			c0.2-0.4,0.5-0.6,1.2-0.6c0.2,0,0.6,0.1,1.2,0.2c10.4,1.1,23.1,1.7,38.2,1.7c4.6,0,13.2-0.6,25.9-1.8c6.3-0.6,9.7-0.9,10.2-0.9
			c1.6,0,2.3,0.4,2.3,1.2c0,1.9-0.1,4.7-0.4,8.4c-0.3,3.8-0.4,6.6-0.4,8.4c0,1.8,0.2,4.4,0.7,7.8C637.9,57.6,638.2,60.2,638.2,61.9z
			"/>
		<path class="st19" d="M731.9,108.3c0,1.9-0.3,4.4-1,7.5c-0.9,4.5-1.4,7-1.6,7.5c-0.4,3.6-1.3,8.8-2.6,15.8
			c-0.3,1.2-1.2,1.8-2.9,1.8c-0.5,0-1.2-0.1-2.2-0.2c-9.1-1.2-21.2-1.9-36.3-1.9c-4.1,0-10.3,0.1-18.6,0.3
			c-8.2,0.2-14.4,0.3-18.5,0.3c-1.7,0-2.6-0.7-2.6-2.3c0-5.8,0.3-14.5,0.9-26.1c0.6-11.6,0.9-20.3,0.9-26.1c0-5.9-0.3-16.9-0.9-33
			c-0.2-4.1-0.4-10.3-0.9-18.6l-0.1-1.1c-0.1-1.2,0.5-1.8,1.9-1.8c4,0,10.1,0.1,18.2,0.3c8.1,0.2,14.2,0.3,18.3,0.3
			c4.1,0,10.3-0.1,18.6-0.3c8.3-0.2,14.5-0.3,18.6-0.3c2.9,0,4.6,1.3,5.2,4c0.3,1,0.8,5.6,1.6,13.6c0.8,8,1.2,12.6,1.2,13.8
			c0,1-0.5,1.6-1.6,1.6c-2.8,0-7-0.3-12.7-0.9c-5.6-0.6-9.9-0.9-12.7-0.9c-4.6,0-7.2,0-7.9,0.1c-4,0.4-6.1,1.4-6.1,3.3
			c0,2.5,2.4,4,7.2,4.7c1.3,0.2,4.7,0.2,9.9,0.2c4.3,0,8.5-0.2,12.5-0.6c5.3-0.5,7.4-0.8,6.4-0.8c1.3,0,2,0.8,2,2.3
			c0,1.4-0.2,3.7-0.7,6.7c-0.6,3.7-1,6-1,6.9c-0.7,6.9-1,11.9-1,14.8c0,1.1-0.8,1.7-2.4,1.7c0.5,0-1.8-0.3-6.8-0.9
			c-5.5-0.7-11.9-1-19.2-1c-4.7,0-7.1,1.3-7.1,3.9c0,1.2,0.3,2.1,0.9,2.7c1.5,1.2,9.3,1.9,23.4,1.9c1.9,0,4.8-0.2,8.6-0.5
			c3.8-0.3,6.7-0.5,8.6-0.5C731.2,106.4,731.9,107.1,731.9,108.3z"/>
		<path class="st19" d="M849.7,32.6c0,5.9-0.3,14.8-0.9,26.7c-0.6,11.9-0.9,20.8-0.9,26.7l-0.2,51.6c0,1.2-0.9,1.8-2.7,1.8
			c-1.7,0-4.3-0.1-7.6-0.3c-3.4-0.2-5.9-0.3-7.6-0.3c-1.8,0-4.4,0.1-8,0.3c-3.6,0.2-6.3,0.3-8.1,0.3c-0.9,0-1.9-0.9-3.2-2.6
			c-18.8-26-29-39-30.5-39c-0.7,0-1.1,0.8-1.1,2.3c0,4,0.2,10.1,0.5,18.2c0.3,8.1,0.5,14.2,0.5,18.2c0,1.9-0.8,2.9-2.4,2.9
			c-1.9,0-4.7-0.1-8.4-0.3c-3.8-0.2-6.6-0.3-8.4-0.3c-2,0-5.1,0.1-9.1,0.3c-4.1,0.2-7.1,0.3-9.1,0.3c-1.7,0-2.6-0.7-2.6-2.3
			c0-5.6,0.3-14.1,0.8-25.4c0.5-11.3,0.8-19.8,0.8-25.4c0-5.9-0.2-14.7-0.7-26.5c-0.5-11.8-0.7-20.6-0.7-26.4c0-1.1,1.1-1.7,3.2-1.7
			c2.3,0,7.4-0.4,15.1-1.3c1-0.1,3.8-0.5,8.3-1.3c3.4-0.6,6.2-0.9,8.2-0.9c0.7,0,1.8,1.1,3.2,3.3c0.9,1.4,5,7.3,12.5,17.8
			c4,5.8,10.3,14.3,18.9,25.5c0.5-0.4,0.8-2,0.8-5c0-4-0.3-10-1-18.1c-0.7-8-1-14.1-1-18.1c0-2,0.5-3,1.6-3c2.1,0,5.2,0.1,9.3,0.2
			c4.1,0.2,7.2,0.2,9.3,0.2c2.2,0,5.6-0.1,10-0.2c4.5-0.2,7.8-0.2,10-0.2C849.2,30.5,849.7,31.2,849.7,32.6z"/>
	</g>
	<path id="Vågskum" class="st20" d="M15.5,307.2c0,0,78.7-39.2,122.5,2.8s66.3,83.9,86.5,114.7s42.7,76.9,51.7,100.7
		c9,23.8-1.1,69.9,52.8,76.9c53.9,7,105.6,15.4,116.9,2.8c11.2-12.6-39.3-64.3-39.3-64.3s46.1-32.2,86.5,2.8
		c40.5,35,121.4,173.4,127,193s120.2,96.5,120.2,96.5s95.5,8.4,102.3-25.2c6.7-33.6,21.4-159.4,3.4-193
		c-18-33.6-38.2-106.3-67.4-116.1s-68.5-46.1-102.3-53.1c-33.7-7-70.7-48.9-107.9-50.3s-98.9-16.8-109-7c-10.1,9.8-86.5,14-86.5,14
		s-50.6-29.4-105.6-68.5s-115.7-102.1-150.6-93.7s-67.4-28-84.3-7S15.5,307.2,15.5,307.2z"/>
	<path id="Våg" class="st0" d="M16.5,318.5c0,0,36.5-81.5,170.8,18.9c77.2,57.7,104.2,113.3,121.6,139.4
		c17.4,26.1,2.9,18.9,31.8,84.2s97,100.2,141.9,135s81.1,62.4,125.9,75.5s47.8,23.2,130.3,46.5s117.3,29,117.3,29l-689-7.3
		L58.5,825.3c0,0-2.9-171.3-2.9-175.7S2,558.1,44,514.5s29-85.7,89.7-66.8c60.8,18.9,143.3,30.5,143.3,30.5S207.2,384.5,158,386
		S58,346,38.2,344.6C23.7,343.7,16.5,318.5,16.5,318.5z"/>
	<g>
		<path class="st19" d="M375.3,479.3c-11.1,6.7-23,13.6-35.8,20.4c-2,1.1-3.2,1.4-3.5,0.9c0.2,0.3-0.4-1.3-1.7-4.8
			c-1.8-5-3.5-8.8-5.1-11.5c-0.9-1.4-2.3-3.5-4.2-6.2c-2-2.7-3.4-4.8-4.2-6.2c-0.4-0.6,0.5-1.6,2.5-2.9c-1.5,1,0.4-0.2,5.7-3.4
			l46.5-28.4c5.9-3.6,15.2-9.4,28-17.5c12.3-7.8,21.7-13.6,28-17.4c1.2-0.7,1.9-0.9,2.2-0.4c0.5,0.8,1.1,2.1,1.9,3.9
			c0.8,1.8,1.4,3.1,1.9,3.9c0.5,0.9,1.5,2.1,2.8,3.7c1.3,1.6,2.2,2.8,2.8,3.7c0.2,0.3-0.3,0.8-1.4,1.5l-0.9,0.5
			c-9.3,5.3-23.1,13.4-41.6,24.2c-7,4.2-12.6,7.6-16.6,10.1c-4.5,2.8-9.8,6-15.8,9.8c-2.1,1.3-3,2.1-2.8,2.4c1.3,2.1,3,4.1,5.1,6.2
			c2.4,2.3,5,4.1,7.6,5.4c0.2,0.1,0.4,0.2,0.4,0.3C377.3,477.8,376.7,478.4,375.3,479.3z"/>
		<path class="st19" d="M428.2,472.6c-0.4,0.2-1.1,0.7-2.1,1.3c-20.5,12.1-33.3,19.8-38.6,23.2c-3.6,2.3-8.9,5.7-16,10.4
			c-7.1,4.6-12.5,8.1-16.1,10.4c-1.8,1.1-2.8,1.7-3.1,1.9c-1,0.5-1.6,0.5-1.9,0c-0.4-0.7-1-1.8-1.6-3.2c-0.6-1.5-1.2-2.6-1.6-3.2
			c-0.4-0.7-1.2-1.6-2.2-2.8c-1.1-1.2-1.8-2.1-2.2-2.8c-0.3-0.5-0.1-1.1,0.8-1.8c0.2-0.2,1.2-0.9,3-2c3.6-2.3,9-5.7,16.2-10.2
			c7.2-4.5,12.6-7.9,16.2-10.2c8.1-5.2,20.5-13.5,37.3-25.1c1-0.7,1.7-1.2,2.1-1.5c1.4-0.9,2.3-1,2.6-0.4c0.5,0.8,0.9,2.2,1.2,4.1
			c0.3,2,0.7,3.4,1.2,4.2c0.5,0.8,1.6,1.7,3.3,2.9c1.7,1.1,2.8,2.1,3.3,2.8C430.2,470.9,429.7,471.6,428.2,472.6z M448.3,459.3
			c-11.2,7.1-18.4,8.2-21.5,3.3c-1.3-2.1-1.1-4.7,0.7-7.7c2-3.4,5.8-6.9,11.3-10.4c5.3-3.4,10-5.3,14.3-5.8c3.9-0.5,6.5,0.3,7.7,2.2
			s0.8,4.6-1.2,7.9C457.4,452.5,453.6,456,448.3,459.3z"/>
		<path class="st19" d="M414.9,516.4c-1.5,1-2.5,1.2-3,0.5c-1.1-1.7-1.8-3.1-2.2-4.3l-12.2,8.1c-3.3,2.2-8.1,5.5-14.6,9.9
			s-11.3,7.8-14.6,9.9c-2.2,1.4-3.5,1.8-3.9,1.1c-0.4-0.7-1-1.7-1.7-3.1c-0.7-1.4-1.3-2.5-1.7-3.1c-0.4-0.6-1.1-1.6-2-2.9
			c-0.9-1.3-1.6-2.2-2-2.9c-0.5-0.7,0.6-2,3.3-3.8l37.7-25c1.4-0.9,2-1.6,1.9-2.1c0.1,0.3-0.2,0-0.9-1c-0.4-0.7,0-1.5,1.4-2.6
			c3.1-2.4,12.4-8.7,27.9-19c1.8-1.2,3.1-1.7,4-1.4c0.3,0.1,0.9,0.5,1.8,1.2c4.1-2.9,7.1-5,9.1-6.3c11.3-7.5,20.6-10.9,27.7-10.2
			c4.6,0.5,8.8,3,12.5,7.5l0.2,0.3c0.2,0.2-0.2,0.7-1,1.5c-15.9,11.8-24.2,18-24.9,18.5c-1.7,1.1-3.1,1.2-4.1,0.2
			c-1.2-1.2-2.2-1.7-2.9-1.5c-1.2,0.3-3.4,1.5-6.6,3.6l-1,0.7c0.3,0.4,0.8,1.1,1.5,1.9c0.7,0.9,1.2,1.5,1.5,2
			c0.5,0.7-0.1,1.6-1.7,2.6c-1.5,1-3.8,2.5-6.8,4.4c-3,1.9-5.2,3.4-6.7,4.4c-1.8,1.2-4.4,3-7.9,5.4
			C419.4,513.4,416.7,515.2,414.9,516.4z"/>
		<path class="st19" d="M432.2,550.3c-5.4,3.8-8.9,5.4-10.6,4.7c-0.6-0.2-3.2-2-7.7-5.5l-6.7-5.1c-1.6,1.5-2.6,3.1-2.9,4.8
			c-0.2,1.3,0,2.4,0.6,3.3c0.6,0.8,2,1.5,4.3,2c2.3,0.5,3.5,0.9,3.6,1.1c0.2,0.3-0.1,0.9-0.9,1.7c-1.6,1.5-3.8,3.8-6.8,6.8
			c-0.1,0-1.2,1.4-3.5,4.1c-2,2.4-3.2,3.7-3.4,3.8c-0.6,0.4-1.2,0.7-2,0.9c-7,1.8-12.3,0.2-15.9-4.9c-3.4-4.9-2.9-10.9,1.5-18.1
			c4.7-7.7,13.6-16.2,26.7-25.4c11.8-8.3,22.7-13.9,32.7-16.7c10-2.8,16.5-2.1,19.5,2.2c2.6,3.7,1.1,9.5-4.6,17.5
			C450.4,535.4,442.5,543,432.2,550.3z M429.9,535.2c1.5-1.1,2.9-2.3,3.9-3.8c1.1-1.4,1.4-2.4,1.1-2.9c-0.5-0.7-1.5-0.8-3.2-0.4
			c-1.7,0.4-3.4,1.2-5.2,2.4c-1.2,0.8-1.6,1.6-1.1,2.2c0.3,0.4,0.7,0.7,1.4,1.2c0.9,0.5,1.4,0.9,1.6,1
			C428.9,535.4,429.4,535.5,429.9,535.2z"/>
		<path class="st19" d="M489.8,558.1c-0.3,0.3-1,0.8-2,1.5c-19,14.3-30.9,23.4-35.7,27.4c-3.3,2.7-8.2,6.7-14.8,12.1
			c-6.6,5.4-11.5,9.5-14.8,12.2c-1.6,1.3-2.6,2-2.8,2.2c-0.9,0.6-1.5,0.6-1.9,0.2c-0.5-0.6-1.2-1.6-2-3c-0.8-1.4-1.5-2.4-2-3
			s-1.4-1.5-2.6-2.5c-1.2-1.1-2-1.9-2.5-2.5c-0.4-0.5-0.2-1.1,0.6-1.8c0.2-0.2,1.1-1,2.8-2.3c3.3-2.7,8.3-6.7,15-12
			c6.6-5.3,11.6-9.3,14.9-11.9c7.5-6,18.9-15.8,34.2-29.2c0.9-0.8,1.5-1.4,1.9-1.7c1.3-1,2.1-1.3,2.6-0.7c0.6,0.7,1.1,2,1.6,4
			c0.5,1.9,1.1,3.3,1.7,4s1.8,1.6,3.6,2.5c1.8,0.9,3,1.7,3.6,2.4C491.6,556.2,491.1,557,489.8,558.1z M508.3,542.7
			c-10.3,8.3-17.3,10.2-21,5.7c-1.6-1.9-1.6-4.5-0.2-7.7c1.6-3.6,5-7.5,10.1-11.6c4.9-3.9,9.4-6.4,13.5-7.4c3.8-0.9,6.4-0.5,7.9,1.3
			c1.5,1.8,1.3,4.5-0.3,8C516.5,534.9,513.2,538.8,508.3,542.7z"/>
		<path class="st19" d="M497.2,588.4c-0.3,0.3-2.9,1.5-7.9,3.5c-4.9,2.1-8.5,4.1-10.7,6.1c-2.1,1.9-4.5,5-7.3,9.4
			c-2.8,4.4-6.4,8.6-10.8,12.6c-3,2.8-6.1,5.1-9.2,7.1c-1.7,1.1-4.7,2.7-8.9,4.9c-2.9,1.5-6.3,3.2-10.4,5.1
			c-5.5,2.6-8.5,3.6-8.8,3.2c-0.2-0.2-0.1-0.9,0.3-2c3.8-10.1,6.2-17.3,7.2-21.8c0.2-0.8,0.5-1.5,1-1.9c0.2-0.2,3.5-1.8,9.7-4.7
			c6.2-2.9,10.8-5.8,13.9-8.6c2.1-2,4.2-4.9,6.2-8.8c2-3.9,4.9-7.6,8.8-11.1c4.3-4,10.7-8.1,19.2-12.4c6.4-3.3,12.5-6,18.4-8.2
			c0.9-0.4,1.5-0.5,1.7-0.3c0.2,0.2,0,0.8-0.5,1.8c-2.2,4.1-5.6,12-10.4,23.8C498.2,587.2,497.8,588,497.2,588.4z"/>
		<path class="st19" d="M552.2,617.1c-0.2,0.4-0.7,1-1.4,1.9c-8.7,11.5-15.4,21-20.2,28.3c-3.7,5.7-9,14.1-15.8,25.2l-7.6,12.3
			c-1.4,2.1-2.5,3-3.5,2.6l-5.2-3.4c-0.6-0.4-1.7-0.9-3.1-1.5c-1.4-0.6-2.4-1.1-3.1-1.6c-0.8-0.5-0.5-1.8,0.8-4
			c1.3-2.1,1.9-3.3,1.7-3.4c0.1,0.1-1.6,0.8-5,2.1s-5.7,1.7-6.9,0.9c-3.8-2.5-4.2-8.5-1.3-18.1c2.7-9,7.6-18.9,14.5-29.5
			c8.1-12.4,16.1-21.9,24-28.6c6.5-5.5,12.2-6.7,16.9-3.6c1,0.6,1.8,2.4,2.4,5.3c0.6,2.9,0.9,4.3,0.9,4.3c0.2,0.1,0.9-0.7,2.2-2.5
			c1.3-1.8,2.2-2.5,2.6-2.3c0.6,0.4,1.9,2.5,4,6.3c1.9,3.7,3.1,6.1,3.4,7.3C552.8,615.7,552.7,616.3,552.2,617.1z M516.9,639.8
			c3.2-4.9,3.9-7.9,2.2-9c-0.8-0.5-1.9-0.3-3.3,0.8c-1.4,1-2.8,2.6-4.2,4.7c-1.4,2.1-2.2,4-2.6,5.7c-0.3,1.7-0.1,2.8,0.7,3.3
			c0.7,0.5,1.8,0.2,3.2-0.8S515.6,641.8,516.9,639.8z"/>
		<path class="st19" d="M607.2,671.1c-5.5,9.1-9.6,15.3-12.4,18.7c-2.5,3-7.6,8.7-15.3,17c-8,8.6-13,13.8-15.1,15.6
			c-1.1,1-1.9,1.4-2.3,1.2c-0.4-0.3-1-0.8-1.8-1.5c-0.7-0.7-1.3-1.2-1.8-1.5c-0.5-0.3-1.4-0.7-2.5-1.1s-2-0.8-2.5-1.1
			c-1-0.6,1.3-8.4,7-23.4c-10.6,12.1-16.3,17.9-17.1,17.3c-0.5-0.3-1.1-0.8-1.8-1.5c-0.8-0.8-1.4-1.3-1.8-1.5
			c-0.5-0.3-1.2-0.6-2.2-0.9c-1-0.3-1.7-0.6-2.1-0.8c-0.7-0.4,1.3-7.7,5.8-21.8c1.8-5.6,4.7-13.2,8.6-22.9
			c1.7-4.1,5.3-10.6,10.7-19.7c5.6-9.3,9.4-15.4,11.5-18.4c1.2-1.7,2.2-2.3,2.9-1.9c0.6,0.4,1.6,1.1,2.7,2.1c1.2,1,2.1,1.7,2.7,2.1
			c0.6,0.4,1.6,0.8,2.9,1.3c1.3,0.5,2.3,1,2.9,1.3c0.5,0.3,0.2,1.5-1,3.5c-1.3,2.2-3.4,5.6-6.1,10.1c-2.8,4.5-4.8,7.8-6.1,10.1
			c-2.4,4-4.1,6.9-5.1,8.7c-0.6,1-1.4,2.8-2.4,5.3c-1.2,2.8-1.6,4.3-1.3,4.5c0.3,0.2,1.4-0.9,3.3-3.3c1.5-1.8,2.7-3.3,3.6-4.6
			c2-2.9,4.3-6.5,6.9-10.7c1.2-2,2.9-5,5.2-9.1c2.3-4.1,4-7.1,5.2-9.1c1.2-2,2.1-2.8,2.6-2.5c0.8,0.5,2.3,1.6,4.6,3.3l1.2,1.1
			c0.1,0,0.1,0,0.1,0c0,0,0,0-0.1,0l-0.1-0.1l-0.2-0.1l0.3,0.1l1.3,0.5c1.9,0.8,3.5,1.5,4.6,2.2c0.5,0.3,0.2,1.5-1,3.5
			c-1.2,2-3.1,5-5.6,8.9c-2.5,3.9-4.4,6.9-5.6,8.9c-1.8,2.9-3.8,6.6-6.2,11.2c-3.2,6-4.5,9.2-4,9.5c0.3,0.2,1.4-1,3.3-3.3
			c1.7-2.1,2.9-3.6,3.6-4.6c1.1-1.8,2.9-4.6,5.3-8.7c1.3-2.2,3.3-5.6,6-10.1c2.7-4.5,4.7-7.9,6-10.1c1.2-2,2.1-2.8,2.6-2.5
			c0.6,0.4,1.5,1,2.5,2c1.1,0.9,1.9,1.6,2.5,2c0.6,0.4,1.7,0.9,3.1,1.4c1.4,0.6,2.5,1,3.1,1.4c0.7,0.4,0.6,1.6-0.3,3.4
			C616.4,655.5,612.8,661.8,607.2,671.1z"/>
		<path class="st19" d="M653.8,676.6c-0.2,0.4-0.6,1.1-1.2,2c-7.7,12.2-13.7,22.1-17.9,29.9c-3.2,6-7.8,14.8-13.7,26.4l-6.6,12.9
			c-1.2,2.2-2.3,3.2-3.2,2.9l-5.4-2.9c-0.7-0.4-1.7-0.8-3.2-1.3c-1.5-0.5-2.5-0.9-3.2-1.3c-0.8-0.4-0.7-1.8,0.5-4
			c1.2-2.2,1.6-3.4,1.4-3.6c0.1,0.1-1.5,0.9-4.8,2.5c-3.3,1.6-5.5,2.1-6.8,1.5c-3.9-2.1-4.9-8.1-2.8-18c2-9.2,6-19.4,12.1-30.6
			c7.1-13,14.3-23.2,21.6-30.4c6.1-6,11.6-7.6,16.5-5c1,0.6,2,2.2,2.8,5c0.9,2.8,1.3,4.2,1.3,4.2c0.2,0.1,0.8-0.8,2-2.7
			c1.2-1.9,2-2.7,2.4-2.5c0.7,0.4,2.1,2.3,4.5,6c2.2,3.5,3.5,5.8,4,7C654.3,675.1,654.2,675.8,653.8,676.6z M620.5,702.1
			c2.8-5.1,3.2-8.2,1.4-9.1c-0.8-0.4-1.9-0.1-3.3,1c-1.3,1.1-2.6,2.8-3.8,5c-1.2,2.2-1.9,4.2-2.1,5.9c-0.2,1.7,0.1,2.8,1,3.2
			c0.8,0.4,1.8,0.1,3.1-1.1C618.1,705.9,619.3,704.2,620.5,702.1z"/>
		<path class="st19" d="M683,709.6c-5.5,11.7-8.8,18.4-9.9,20.1c-2.9,4.4-8.1,11.4-15.5,20.9c-8.5,10.9-13.3,16.2-14.2,15.7
			c-0.7-0.3-1.6-0.9-2.9-1.8c-1.2-0.9-2.2-1.4-2.9-1.8c-0.7-0.3-1.8-0.7-3.3-1.1c-1.5-0.4-2.6-0.8-3.3-1.1c-0.9-0.4,0.1-7.4,3-20.9
			c2.5-11.6,4.6-20,6.1-25.4c1.3-4.2,4.1-11.1,8.6-20.7c1-2.2,2.6-5.4,4.7-9.8c2.1-4.4,3.6-7.6,4.7-9.8c0.9-1.9,1.8-2.6,2.7-2.2
			c0.8,0.4,1.9,1,3.4,2c1.5,1,2.6,1.7,3.4,2c0.7,0.3,1.7,0.7,3.2,1.1c1.4,0.4,2.5,0.8,3.2,1.1c0.5,0.3,0.3,1.4-0.7,3.6
			c-1.1,2.3-2.8,5.9-5.1,10.6c-2.3,4.7-4,8.3-5.2,10.7c-6,12.9-8.4,19.6-7.1,20.2c1.5,0.7,6.3-7.7,14.5-25.1
			c0.8-1.7,1.9-4.1,3.3-7.4c1.4-3.3,2.5-5.7,3.2-7.3c1-2.1,1.8-3,2.3-2.8c0.7,0.3,1.6,0.9,2.9,1.8c1.2,0.9,2.2,1.4,2.9,1.8
			c0.7,0.3,1.8,0.7,3.3,1.1c1.5,0.4,2.6,0.8,3.3,1.1c0.5,0.2,0.7,0.5,0.7,0.9c0,0.3-0.2,1.2-0.7,2.6
			C690.8,692.7,687.9,699.3,683,709.6z"/>
		<path class="st19" d="M713.8,739.8c-2.2,6.2-4.2,9.5-5.9,10c-0.6,0.2-3.8,0.2-9.5,0l-8.4-0.3c-0.5,2.1-0.3,4,0.4,5.6
			c0.6,1.2,1.4,2,2.4,2.4c1,0.3,2.5,0.1,4.7-0.8c2.2-0.9,3.4-1.3,3.6-1.2c0.3,0.1,0.4,0.8,0.3,1.9c-0.4,2.1-0.9,5.3-1.6,9.5
			c0,0.1-0.2,1.8-0.5,5.3c-0.3,3.1-0.5,4.8-0.6,5.1c-0.2,0.7-0.6,1.3-1.2,1.9c-4.7,5.5-9.9,7.2-15.8,5.1c-5.6-2-8.7-7.2-9.2-15.6
			c-0.6-9,1.8-21.1,7.1-36.2c4.8-13.6,10.5-24.5,17.1-32.5c6.5-8.1,12.3-11.2,17.2-9.5c4.3,1.5,6.4,7.2,6.3,17
			C720.1,717.1,718,727.9,713.8,739.8z M703.1,728.8c0.6-1.8,1-3.6,1.1-5.4c0.1-1.8-0.2-2.8-0.8-3c-0.8-0.3-1.7,0.2-2.9,1.5
			c-1.2,1.3-2.1,2.9-2.8,5c-0.5,1.4-0.4,2.2,0.3,2.4c0.4,0.1,1,0.2,1.8,0.1c1,0,1.6-0.1,1.9,0C702.4,729.5,702.9,729.3,703.1,728.8z
			"/>
	</g>
</g>
</svg>
