<?xml version="1.0" encoding="utf-8"?>
<!-- Generator: Adobe Illustrator 21.1.0, SVG Export Plug-In . SVG Version: 6.00 Build 0)  -->
<svg version="1.1" id="Mumsik_Karta" xmlns="http://www.w3.org/2000/svg" xmlns:xlink="http://www.w3.org/1999/xlink" x="0px"
	 y="0px" viewBox="0 0 806 477" style="enable-background:new 0 0 806 477;" xml:space="preserve">
<style type="text/css">
	.st0{fill:none;stroke:#000000;stroke-miterlimit:10;}
	.st1{fill:#A8A8A8;stroke:#000000;stroke-miterlimit:10;}
	.st2{fill:#B2B2A6;stroke:#000000;stroke-miterlimit:10;}
	.st3{fill:#CE1617;}
	.st4{fill:#F2EDF0;stroke:#000000;stroke-miterlimit:10;}
	.st5{font-family:'MyriadPro-Regular';}
	.st6{font-size:22px;}
	.st7{font-family:'NotoSans';}
	.st8{font-size:20px;}
	.st9{fill:none;stroke:#000000;stroke-width:2;stroke-miterlimit:10;}
</style>
<image style="display:none;overflow:visible;enable-background:new    ;" width="1067" height="630" xlink:href="C:\Users\grane\OneDrive\hkr\Uppgifter\Gestaltande design\Grafisk design för webben\Del3\Inspiration\KartInspiration.PNG"  transform="matrix(0.75 0 0 0.75 3.9669 2.8525)">
</image>
<path class="st0" d="M4,18.7c0,0,203.3,99.3,209.9,101.3s207.9,91.4,207.9,91.4l131.8,55c0,0,82.8,35.8,90.1,37.7
	c7.3,2,157.3,55.2,157.3,55.2l-1,25l-209.3-76.2l-41.1,82.8l-38.3,33.8l-91.4,29.8l-31.1,7.3c0,0-21.2-1.3-34.4-4.6
	c-13.2-3.3-168.9-80.1-168.9-80.1L143,353.2c0,0-2-8.6,3.3-7.3c5.3,1.3,206,101.3,206,101.3s14.6,17.2,55.6,2.6
	c41.1-14.6,81.5-25.8,101.3-39.1c19.8-13.3,31.8-25.2,38.4-37.1c6.6-11.9,33.1-70.9,33.1-70.9L194,138.6L5.3,405.5L4.6,377
	l176.2-245L4,43.9V18.7z"/>
<polygon class="st1" points="209.9,186.9 170.2,247.2 139.7,293.6 336.5,378.4 419.2,414.1 468.9,297.5 384.1,261.1 297.3,224 "/>
<path class="st0" d="M504.6,344.6"/>
<line class="st0" x1="170.2" y1="247.2" x2="441.1" y2="363.8"/>
<path class="st0" d="M382,260.3c0,0-44.3,111.3-44.9,114.7"/>
<line class="st0" x1="297.3" y1="224" x2="246.4" y2="340.6"/>
<path class="st2" d="M323.2,2.8c3.3,0,66.2,35.8,76.2,40.4c9.9,4.6,325.8,142.4,335.1,144.4s67.5,21.9,67.5,21.9l1.3,113.9l-3.3,9.3
	l-49.7-17.9c0,0-206.6-77.5-218.5-82.8S29.1,4.2,29.1,4.2"/>
<polygon class="st1" points="804,148.5 779.5,171.7 762.2,157.8 749,170.4 725.2,144.6 714.6,153.2 577.5,4.2 686.7,3.5 
	804.6,134.6 "/>
<path class="st2" d="M803.2,476.9H461.9l7.9-4.5l29.8-13.9l98-2l36.4-92.7l168.9,64.9C803.5,428.7,803.2,476.9,803.2,476.9z"/>
<g>
	<path d="M689.9,337l-1.5-0.5l3.5-10.2l-3.6-1.2l0.4-1.3l8.6,2.9l-0.4,1.3l-3.6-1.2L689.9,337z"/>
	<path d="M703.4,336.7c-0.5,1.4-1.2,2.4-2.2,2.9c-1,0.6-2.1,0.6-3.4,0.2c-0.8-0.3-1.4-0.7-1.9-1.2s-0.8-1.2-0.9-2
		c-0.1-0.8,0-1.6,0.3-2.5c0.5-1.4,1.2-2.4,2.2-2.9c1-0.5,2.1-0.6,3.4-0.2c1.2,0.4,2,1.1,2.5,2.2S703.9,335.4,703.4,336.7z
		 M696.9,334.5c-0.4,1.1-0.4,2-0.2,2.7c0.2,0.7,0.8,1.2,1.6,1.5c0.8,0.3,1.5,0.2,2.2-0.2s1.1-1.2,1.5-2.3c0.4-1.1,0.4-2,0.2-2.7
		s-0.8-1.2-1.6-1.5C698.8,331.6,697.6,332.4,696.9,334.5z"/>
	<path d="M711.2,334.4c0.4,0.1,0.7,0.3,1,0.4l-0.6,1.2c-0.3-0.2-0.6-0.3-0.9-0.4c-0.5-0.2-0.9-0.2-1.4-0.1c-0.5,0.1-0.9,0.4-1.3,0.7
		c-0.4,0.4-0.6,0.8-0.8,1.4l-1.6,4.6l-1.4-0.5l2.9-8.6l1.2,0.4l-0.4,1.6l0.1,0c0.5-0.5,1.1-0.8,1.6-0.9
		C710.1,334.2,710.6,334.2,711.2,334.4z"/>
	<path d="M714.9,345.6c-1.2-0.4-1.9-1.1-2.3-2.2l-0.1,0l-0.1,0.3c-0.1,0.4-0.2,0.8-0.3,1.1l-1.2,3.5l-1.4-0.5l4.2-12.5l1.2,0.4
		l-0.2,1.2l0.1,0c0.5-0.4,1-0.6,1.5-0.6c0.5-0.1,1.1,0,1.6,0.2c1.1,0.4,1.9,1.1,2.2,2.1c0.4,1,0.3,2.2-0.2,3.6
		c-0.5,1.4-1.2,2.4-2.1,3C717,345.9,716,346,714.9,345.6z M717.2,337.8c-0.9-0.3-1.6-0.3-2.1,0.1c-0.5,0.4-1,1-1.4,2.1l-0.1,0.3
		c-0.4,1.2-0.5,2.1-0.3,2.7c0.2,0.7,0.8,1.1,1.6,1.4c0.7,0.2,1.4,0.1,2-0.3c0.6-0.5,1.1-1.2,1.4-2.2c0.4-1.1,0.4-1.9,0.2-2.6
		C718.5,338.5,718,338,717.2,337.8z"/>
	<path d="M726.5,349.3l0.4-1l-0.1,0c-0.9,0.7-1.9,0.8-3.1,0.4c-1.1-0.4-1.9-1.1-2.2-2.1c-0.4-1-0.3-2.2,0.2-3.6
		c0.5-1.4,1.2-2.4,2.1-3c0.9-0.6,1.9-0.7,3-0.3c1.2,0.4,1.9,1.1,2.3,2.2l0.1,0l0.6-1.1l1.1,0.4l-3,8.8c-0.4,1.2-1,2.1-1.9,2.5
		c-0.8,0.4-1.9,0.4-3.2-0.1c-1.3-0.4-2.2-1-2.9-1.6l0.4-1.3c0.7,0.7,1.7,1.3,3,1.8c0.7,0.2,1.4,0.2,2-0.1c0.6-0.3,1-0.8,1.2-1.6
		L726.5,349.3z M724.3,347.5c0.9,0.3,1.6,0.3,2.1-0.1c0.6-0.3,1-1,1.4-2.1l0.1-0.3c0.4-1.2,0.5-2.1,0.3-2.7
		c-0.2-0.7-0.8-1.1-1.7-1.4c-0.7-0.2-1.4-0.1-2,0.3c-0.6,0.4-1.1,1.2-1.4,2.3c-0.4,1.1-0.4,1.9-0.3,2.6
		C723.1,346.8,723.6,347.3,724.3,347.5z"/>
	<path d="M736,352.6l0.1-1.3l-0.1,0c-0.6,0.4-1.2,0.6-1.7,0.7s-1.1,0-1.7-0.3c-0.8-0.3-1.4-0.7-1.8-1.3c-0.3-0.6-0.4-1.3-0.1-2.1
		c0.6-1.8,2.3-2.2,5.1-1.4l1.5,0.4l0.2-0.5c0.2-0.7,0.2-1.2,0.1-1.6c-0.2-0.4-0.6-0.7-1.2-0.9c-0.5-0.2-0.9-0.2-1.4-0.2
		c-0.5,0-0.9,0-1.3,0.1l-0.1-1.2c0.5-0.1,1-0.1,1.6-0.1s1.1,0.1,1.6,0.3c1,0.4,1.7,0.8,2.1,1.5c0.4,0.6,0.4,1.5,0,2.5l-2,5.9
		L736,352.6z M733.4,350.6c0.8,0.3,1.5,0.3,2.1,0c0.6-0.3,1-0.8,1.3-1.6l0.3-0.8l-1.3-0.4c-1-0.3-1.8-0.4-2.3-0.3
		c-0.5,0.1-0.9,0.5-1.1,1.1c-0.2,0.5-0.1,0.8,0.1,1.2C732.5,350.2,732.9,350.5,733.4,350.6z"/>
	<path d="M742.9,353.8c0.2,0.1,0.4,0.1,0.7,0.2c0.3,0,0.5,0.1,0.6,0.1l-0.4,1.1c-0.2,0-0.4,0-0.7,0c-0.3,0-0.6-0.1-0.9-0.2
		c-1.7-0.6-2.2-1.7-1.6-3.5l1.7-5l-1.2-0.4l0.2-0.7l1.4-0.1l1.2-1.6l0.8,0.3l-0.7,2l2.5,0.8l-0.4,1.1l-2.5-0.8l-1.7,5
		c-0.2,0.5-0.2,0.9,0,1.3S742.5,353.7,742.9,353.8z"/>
	<path d="M750.8,357.6l0.1-1.3l-0.1,0c-0.6,0.4-1.2,0.6-1.7,0.7c-0.5,0-1.1,0-1.7-0.3c-0.8-0.3-1.4-0.7-1.8-1.3
		c-0.3-0.6-0.4-1.3-0.1-2.1c0.6-1.8,2.3-2.2,5.1-1.4l1.5,0.4l0.2-0.5c0.2-0.7,0.2-1.2,0.1-1.6c-0.2-0.4-0.6-0.7-1.2-0.9
		c-0.5-0.2-0.9-0.2-1.4-0.2c-0.5,0-0.9,0-1.3,0.1l-0.1-1.2c0.5-0.1,1-0.1,1.6-0.1c0.6,0,1.1,0.1,1.6,0.3c1,0.4,1.7,0.8,2.1,1.5
		c0.4,0.6,0.4,1.5,0,2.5l-2,5.9L750.8,357.6z M748.2,355.6c0.8,0.3,1.5,0.3,2.1,0c0.6-0.3,1-0.8,1.3-1.6l0.3-0.8l-1.3-0.4
		c-1-0.3-1.8-0.4-2.3-0.3c-0.5,0.1-0.9,0.5-1.1,1.1c-0.2,0.5-0.1,0.8,0.1,1.2C747.4,355.2,747.7,355.5,748.2,355.6z"/>
	<path d="M760.4,360.9l1.9-5.5c0.2-0.7,0.3-1.3,0.1-1.7s-0.6-0.8-1.3-1c-0.9-0.3-1.6-0.3-2.2,0.1c-0.6,0.4-1,1.1-1.4,2.2l-1.5,4.5
		l-1.4-0.5l2.9-8.6l1.1,0.4l-0.2,1.3l0.1,0c0.4-0.3,0.9-0.5,1.5-0.6c0.6-0.1,1.1,0,1.7,0.2c1.1,0.4,1.8,0.9,2.1,1.6
		c0.3,0.7,0.3,1.6,0,2.7l-1.9,5.6L760.4,360.9z"/>
</g>
<path class="st3" d="M227.2,227L227.2,227c-6,0-10.9-4.9-10.9-10.9l0,0c0-6,4.9-10.9,10.9-10.9l0,0c6,0,10.9,4.9,10.9,10.9l0,0
	C238.1,222.1,233.2,227,227.2,227z"/>
<g>
	<line class="st0" x1="216" y1="172.4" x2="223.2" y2="202.3"/>
	<path class="st0" d="M207.6,194c0,0,20.5,24.3,21.2,0.9"/>
</g>
<path class="st4" d="M467.5,252.5h-15.2c-7.3,0-13.2-6-13.2-13.2l0,0c0-7.3,6-13.2,13.2-13.2h15.2c7.3,0,13.2,6,13.2,13.2l0,0
	C480.8,246.5,474.8,252.5,467.5,252.5z"/>
<text transform="matrix(1 0 0 1 447.6753 246.5612)" class="st5 st6">E6</text>
<g>
	<text transform="matrix(0.9204 0.3909 -0.3909 0.9204 145.5224 35.3692)" class="st7 st8">Källtorp</text>
	<line class="st9" x1="111.8" y1="10.4" x2="144.9" y2="25"/>
	<path class="st9" d="M126.5,11.5l-16.6-2c0,0,0.7,11.3,6.6,16.6"/>
</g>
<g>
	<path d="M187.8,171.3l-4.5-11.9h-0.1c0.1,1,0.1,2.2,0.1,3.7v8.2h-1.6v-13.6h2.5l4.2,11.1h0.1l4.3-11.1h2.5v13.6h-1.7v-8.3
		c0-0.9,0-2.1,0.1-3.5h-0.1l-4.5,11.9H187.8z"/>
	<path d="M200.4,161.1v6.6c0,0.8,0.2,1.4,0.6,1.8c0.4,0.4,0.9,0.6,1.7,0.6c1,0,1.8-0.3,2.3-0.9c0.5-0.6,0.7-1.5,0.7-2.8v-5.3h1.7
		v10.2H206l-0.2-1.3h-0.1c-0.3,0.5-0.7,0.9-1.3,1.1s-1.2,0.4-1.9,0.4c-1.2,0-2.1-0.3-2.8-0.9c-0.6-0.6-0.9-1.5-0.9-2.8v-6.7H200.4z"
		/>
	<path d="M223.6,171.3v-6.6c0-1.6-0.7-2.4-2.1-2.4c-0.9,0-1.6,0.3-2.1,0.8c-0.4,0.6-0.7,1.4-0.7,2.5v5.6h-1.7v-6.6
		c0-0.8-0.2-1.4-0.5-1.8c-0.3-0.4-0.9-0.6-1.6-0.6c-0.9,0-1.6,0.3-2.1,0.9c-0.4,0.6-0.7,1.5-0.7,2.8v5.3h-1.7v-10.2h1.3l0.3,1.4h0.1
		c0.3-0.5,0.7-0.9,1.2-1.2c0.5-0.3,1.1-0.4,1.8-0.4c1.6,0,2.6,0.6,3.1,1.7h0.1c0.3-0.5,0.8-1,1.3-1.3c0.6-0.3,1.2-0.4,1.9-0.4
		c1.2,0,2,0.3,2.6,0.9c0.6,0.6,0.9,1.5,0.9,2.8v6.6H223.6z"/>
	<path d="M235,168.5c0,1-0.4,1.7-1.1,2.2c-0.7,0.5-1.7,0.8-3,0.8c-1.3,0-2.4-0.2-3.2-0.6v-1.5c1.1,0.5,2.2,0.8,3.2,0.8
		c0.8,0,1.5-0.1,1.8-0.4c0.4-0.3,0.6-0.6,0.6-1.1c0-0.4-0.2-0.7-0.6-1c-0.4-0.3-1-0.6-2-1c-1-0.4-1.6-0.7-2-1
		c-0.4-0.3-0.7-0.6-0.9-0.9c-0.2-0.3-0.3-0.7-0.3-1.2c0-0.8,0.3-1.5,1-2c0.7-0.5,1.6-0.7,2.8-0.7c1.2,0,2.2,0.2,3.2,0.7l-0.6,1.3
		c-1-0.4-2-0.6-2.8-0.6c-0.7,0-1.2,0.1-1.6,0.3c-0.4,0.2-0.5,0.5-0.5,0.9c0,0.4,0.2,0.7,0.5,0.9c0.3,0.2,1,0.6,2.2,1
		c0.8,0.3,1.5,0.6,1.9,0.9c0.4,0.3,0.7,0.6,0.9,0.9C234.9,167.6,235,168,235,168.5z"/>
	<path d="M237.3,158.3c0-0.4,0.1-0.6,0.3-0.8c0.2-0.2,0.4-0.3,0.7-0.3c0.3,0,0.5,0.1,0.7,0.3c0.2,0.2,0.3,0.4,0.3,0.8
		c0,0.4-0.1,0.6-0.3,0.8c-0.2,0.2-0.4,0.3-0.7,0.3c-0.3,0-0.5-0.1-0.7-0.3C237.4,159,237.3,158.7,237.3,158.3z M239.1,171.3h-1.7
		v-10.2h1.7V171.3z"/>
	<path d="M244,166l0.6-0.7l0.6-0.8l3.3-3.4h1.9l-4.1,4.4l4.4,5.8h-2l-3.5-4.8l-1.2,1v3.7h-1.7v-14.4h1.7v7.5V166L244,166z"/>
</g>
<g>
	<path d="M314.6,181.7l-1.4-0.6l4.5-9.8l-3.5-1.6l0.6-1.2l8.3,3.8l-0.6,1.2l-3.4-1.6L314.6,181.7z"/>
	<path d="M328.1,182.8c-0.6,1.4-1.4,2.3-2.5,2.7c-1,0.5-2.2,0.4-3.4-0.1c-0.8-0.3-1.3-0.8-1.8-1.4c-0.4-0.6-0.6-1.3-0.7-2.1
		s0.2-1.6,0.6-2.5c0.6-1.3,1.4-2.2,2.4-2.7c1-0.4,2.1-0.4,3.4,0.2c1.2,0.5,1.9,1.3,2.3,2.4C328.9,180.3,328.7,181.5,328.1,182.8z
		 M321.9,180c-0.5,1-0.6,1.9-0.5,2.7c0.2,0.7,0.6,1.3,1.4,1.6c0.8,0.4,1.5,0.4,2.2,0s1.2-1.1,1.7-2.1c0.5-1,0.6-1.9,0.4-2.6
		c-0.2-0.7-0.7-1.3-1.5-1.6C324.1,177.2,322.8,177.9,321.9,180z"/>
	<path d="M336.1,181.3c0.4,0.2,0.7,0.3,0.9,0.5l-0.7,1.2c-0.3-0.2-0.6-0.4-0.9-0.5c-0.4-0.2-0.9-0.3-1.4-0.2
		c-0.5,0.1-0.9,0.3-1.3,0.6c-0.4,0.3-0.7,0.8-1,1.3l-2,4.4l-1.4-0.6l3.8-8.3l1.1,0.5l-0.5,1.6l0.1,0c0.6-0.4,1.1-0.7,1.7-0.7
		C335.1,181,335.6,181,336.1,181.3z"/>
	<path d="M338.7,192.8c-1.1-0.5-1.8-1.3-2-2.4l-0.1,0l-0.1,0.3c-0.1,0.4-0.3,0.8-0.4,1.1l-1.5,3.4l-1.4-0.6l5.5-12l1.1,0.5l-0.3,1.2
		l0.1,0c0.5-0.3,1-0.5,1.6-0.5c0.5,0,1,0.1,1.6,0.4c1.1,0.5,1.7,1.2,2,2.3c0.3,1,0.1,2.2-0.5,3.6c-0.6,1.4-1.4,2.3-2.3,2.8
		C340.8,193.3,339.7,193.3,338.7,192.8z M341.8,185.2c-0.8-0.4-1.5-0.4-2.1-0.1c-0.6,0.3-1.1,0.9-1.6,1.9l-0.1,0.3
		c-0.5,1.1-0.7,2-0.5,2.7c0.1,0.7,0.6,1.2,1.5,1.6c0.7,0.3,1.4,0.3,2-0.1c0.6-0.4,1.2-1.1,1.7-2.1c0.5-1,0.6-1.9,0.5-2.6
		C343,186.1,342.5,185.6,341.8,185.2z"/>
	<path d="M349.9,197.6l0.5-1l-0.1,0c-0.9,0.6-2,0.6-3.1,0.1c-1.1-0.5-1.7-1.2-2-2.3c-0.3-1-0.1-2.2,0.5-3.6c0.6-1.3,1.4-2.3,2.3-2.7
		c1-0.5,2-0.5,3,0c1.1,0.5,1.8,1.3,2,2.4l0.1,0l0.7-1l1.1,0.5l-3.8,8.4c-0.5,1.2-1.2,1.9-2.1,2.3c-0.9,0.3-1.9,0.2-3.2-0.4
		c-1.2-0.5-2.1-1.2-2.7-1.9l0.6-1.3c0.6,0.8,1.5,1.5,2.8,2c0.7,0.3,1.4,0.4,2,0.1c0.6-0.2,1.1-0.7,1.4-1.4L349.9,197.6z
		 M347.9,195.7c0.8,0.4,1.5,0.4,2.1,0.2c0.6-0.3,1.1-0.9,1.6-1.9l0.1-0.3c0.5-1.1,0.7-2,0.5-2.7c-0.2-0.7-0.7-1.2-1.5-1.6
		c-0.7-0.3-1.4-0.3-2,0.1c-0.6,0.4-1.2,1.1-1.6,2.1c-0.5,1-0.6,1.9-0.5,2.6C346.8,194.8,347.2,195.3,347.9,195.7z"/>
	<path d="M359,201.8l0.3-1.3l-0.1,0c-0.6,0.3-1.2,0.5-1.7,0.5c-0.5,0-1.1-0.1-1.7-0.4c-0.8-0.4-1.4-0.9-1.6-1.5
		c-0.3-0.6-0.2-1.3,0.1-2.1c0.8-1.7,2.5-2,5.2-0.8l1.4,0.6l0.2-0.5c0.3-0.6,0.4-1.2,0.2-1.6c-0.1-0.4-0.5-0.8-1.1-1
		c-0.4-0.2-0.9-0.3-1.3-0.4c-0.4,0-0.9-0.1-1.3-0.1l0-1.2c0.5,0,1.1,0,1.6,0.1c0.6,0.1,1.1,0.3,1.6,0.5c1,0.5,1.6,1,1.9,1.7
		c0.3,0.7,0.2,1.5-0.2,2.5l-2.6,5.7L359,201.8z M356.6,199.6c0.8,0.3,1.5,0.4,2.1,0.2c0.6-0.2,1.1-0.7,1.4-1.5l0.3-0.7l-1.2-0.5
		c-1-0.4-1.7-0.6-2.3-0.5c-0.6,0.1-1,0.4-1.2,1c-0.2,0.4-0.2,0.8-0.1,1.2C355.8,199.1,356.1,199.4,356.6,199.6z"/>
	<path d="M365.7,203.7c0.2,0.1,0.4,0.2,0.6,0.2c0.3,0.1,0.4,0.1,0.6,0.1l-0.5,1c-0.2,0-0.4,0-0.7-0.1c-0.3-0.1-0.6-0.2-0.8-0.3
		c-1.6-0.7-2-2-1.3-3.7l2.2-4.8l-1.2-0.5l0.3-0.7l1.4,0l1.3-1.5l0.8,0.4l-0.9,1.9l2.4,1.1l-0.5,1.1l-2.4-1.1l-2.2,4.8
		c-0.2,0.5-0.3,0.9-0.2,1.3C365.1,203.3,365.3,203.6,365.7,203.7z"/>
	<path d="M373.2,208.3l0.3-1.3l-0.1,0c-0.6,0.3-1.2,0.5-1.7,0.5c-0.5,0-1.1-0.1-1.7-0.4c-0.8-0.4-1.4-0.9-1.6-1.5
		c-0.3-0.6-0.2-1.3,0.1-2.1c0.8-1.7,2.5-2,5.2-0.8l1.4,0.6l0.2-0.5c0.3-0.6,0.4-1.2,0.2-1.6c-0.1-0.4-0.5-0.8-1.1-1
		c-0.4-0.2-0.9-0.3-1.3-0.4c-0.4,0-0.9-0.1-1.3-0.1l0-1.2c0.5,0,1.1,0,1.6,0.1c0.6,0.1,1.1,0.3,1.6,0.5c1,0.5,1.6,1,1.9,1.7
		c0.3,0.7,0.2,1.5-0.2,2.4l-2.6,5.7L373.2,208.3z M370.9,206.1c0.8,0.3,1.5,0.4,2.1,0.2s1.1-0.7,1.4-1.5l0.3-0.7l-1.2-0.5
		c-1-0.4-1.7-0.6-2.3-0.5c-0.6,0.1-1,0.4-1.2,1c-0.2,0.4-0.2,0.8-0.1,1.2C370.1,205.6,370.4,205.9,370.9,206.1z"/>
	<path d="M382.5,212.5l2.4-5.3c0.3-0.7,0.4-1.2,0.2-1.7c-0.1-0.5-0.5-0.8-1.2-1.1c-0.9-0.4-1.6-0.4-2.2-0.1c-0.6,0.3-1.1,1-1.6,2
		l-2,4.3l-1.4-0.6l3.8-8.3l1.1,0.5l-0.3,1.2l0.1,0c0.4-0.3,0.9-0.4,1.5-0.5c0.6,0,1.1,0.1,1.7,0.4c1,0.5,1.7,1.1,1.9,1.8
		s0.2,1.6-0.3,2.6l-2.5,5.4L382.5,212.5z"/>
</g>
<g>
	<path d="M75.6,292.6l3.4,2.4l-0.7,1l-8.2-5.8l1.6-2.2c0.7-1,1.4-1.6,2.2-1.8c0.7-0.2,1.5,0,2.3,0.5c1.1,0.8,1.4,1.8,1,3.2l5.2,0.4
		l-0.9,1.2l-4.8-0.4L75.6,292.6z M74.7,292l0.9-1.2c0.5-0.7,0.7-1.2,0.6-1.7c0-0.5-0.3-0.9-0.8-1.3c-0.5-0.4-1-0.5-1.5-0.3
		c-0.5,0.1-0.9,0.6-1.4,1.2l-0.8,1.2L74.7,292z"/>
	<path d="M83.9,281.6c1,0.7,1.6,1.5,1.8,2.4c0.2,0.9,0,1.8-0.6,2.7c-0.4,0.6-0.9,1-1.4,1.2c-0.6,0.2-1.2,0.3-1.8,0.2
		s-1.3-0.4-1.9-0.8c-1-0.7-1.6-1.5-1.8-2.4c-0.2-0.9,0-1.8,0.7-2.7c0.6-0.9,1.4-1.3,2.3-1.5C81.9,280.6,82.9,280.9,83.9,281.6z
		 M80.6,286.2c0.8,0.5,1.5,0.8,2.1,0.8c0.6,0,1.1-0.3,1.6-0.9c0.4-0.6,0.5-1.2,0.3-1.8c-0.2-0.6-0.7-1.2-1.4-1.7
		c-0.8-0.5-1.5-0.8-2.1-0.8c-0.6,0-1.1,0.3-1.5,0.9C78.7,283.9,79,285.1,80.6,286.2z"/>
	<path d="M89.2,277c0.6,0.4,0.9,0.9,0.9,1.6c0,0.6-0.3,1.4-0.8,2.1c-0.6,0.8-1.2,1.4-1.8,1.6l-0.9-0.6c0.8-0.4,1.4-1,1.9-1.6
		c0.4-0.5,0.5-0.9,0.5-1.3s-0.1-0.6-0.4-0.8c-0.2-0.2-0.5-0.2-0.8-0.1c-0.3,0.1-0.8,0.4-1.4,0.8c-0.6,0.4-1.1,0.7-1.4,0.8
		c-0.3,0.1-0.6,0.2-0.9,0.1c-0.3,0-0.6-0.1-0.8-0.3c-0.5-0.4-0.8-0.8-0.8-1.5s0.3-1.3,0.8-2c0.5-0.7,1.1-1.2,1.8-1.7l0.6,0.9
		c-0.7,0.4-1.2,0.9-1.6,1.4c-0.3,0.4-0.5,0.8-0.5,1.1c0,0.3,0.1,0.5,0.3,0.7c0.2,0.2,0.5,0.2,0.8,0.1c0.3-0.1,0.8-0.4,1.5-0.9
		c0.6-0.4,1-0.6,1.3-0.8c0.3-0.1,0.6-0.2,0.9-0.1C88.6,276.6,88.9,276.8,89.2,277z"/>
	<path d="M93.9,274.2c-0.7,0.9-1.4,1.4-2.4,1.6c-0.9,0.1-1.9-0.2-2.8-0.8c-1-0.7-1.6-1.5-1.8-2.4c-0.2-0.9-0.1-1.8,0.5-2.6
		c0.5-0.8,1.2-1.2,2.1-1.3s1.7,0.1,2.5,0.7l0.6,0.4l-3,4.2c0.7,0.5,1.4,0.7,2,0.6s1.1-0.4,1.5-1c0.2-0.3,0.4-0.7,0.6-1
		s0.3-0.8,0.4-1.3l0.9,0.6c-0.1,0.4-0.2,0.8-0.4,1.2C94.4,273.4,94.2,273.7,93.9,274.2z M88.2,270.5c-0.3,0.5-0.5,1-0.3,1.5
		c0.1,0.5,0.4,1,0.9,1.4l2.2-3.1c-0.6-0.4-1.1-0.6-1.6-0.5C88.9,269.8,88.5,270,88.2,270.5z"/>
	<path d="M99.5,266.1l-3.9-2.8c-0.5-0.4-0.9-0.5-1.3-0.5c-0.4,0-0.8,0.3-1.1,0.8c-0.4,0.6-0.6,1.2-0.4,1.7c0.1,0.5,0.6,1.1,1.4,1.6
		l3.2,2.3l-0.7,1l-6.1-4.3l0.6-0.8l0.9,0.4l0-0.1c-0.2-0.4-0.2-0.8-0.1-1.3c0.1-0.5,0.3-0.9,0.6-1.3c0.5-0.8,1.1-1.2,1.7-1.3
		c0.6-0.1,1.3,0.1,2.1,0.7l4,2.8L99.5,266.1z"/>
	<path d="M103.2,261.1c-0.6,0.8-1.3,1.2-2.1,1.3c-0.9,0-1.8-0.3-2.8-1c-1-0.7-1.6-1.5-1.9-2.3c-0.2-0.8-0.1-1.7,0.5-2.5
		c0.6-0.8,1.3-1.2,2.2-1.3l0.1-0.1c-0.1,0-0.2-0.1-0.5-0.3s-0.4-0.2-0.5-0.3l-2.4-1.7l0.7-1l8.7,6.2l-0.6,0.8l-0.9-0.4l0,0
		C103.9,259.4,103.8,260.2,103.2,261.1z M102.5,260.3c0.4-0.6,0.6-1.2,0.4-1.7c-0.1-0.5-0.6-1-1.3-1.6l-0.2-0.1
		c-0.9-0.6-1.6-0.9-2.1-0.9s-1.1,0.3-1.5,1c-0.4,0.5-0.4,1.1-0.2,1.6s0.7,1.1,1.5,1.7c0.8,0.5,1.4,0.8,2,0.8
		S102.1,260.9,102.5,260.3z"/>
	<path d="M109.2,252.4l-1-0.4l0,0c0.2,0.6,0.2,1.1,0.1,1.5c-0.1,0.4-0.3,0.8-0.6,1.3c-0.4,0.6-0.9,1-1.5,1.1c-0.6,0.1-1.1,0-1.7-0.4
		c-1.2-0.9-1.2-2.3,0.1-4.3l0.7-1.1l-0.4-0.3c-0.5-0.3-0.9-0.5-1.2-0.4c-0.4,0-0.7,0.3-1,0.7c-0.2,0.3-0.4,0.7-0.5,1
		c-0.1,0.4-0.2,0.7-0.3,1l-1-0.2c0.1-0.4,0.2-0.9,0.3-1.3s0.4-0.8,0.6-1.2c0.5-0.7,1.1-1.2,1.7-1.3s1.2,0.1,1.9,0.6l4.2,3
		L109.2,252.4z M107,253.9c0.4-0.6,0.6-1.1,0.5-1.6c-0.1-0.5-0.4-1-0.9-1.4l-0.6-0.4l-0.6,0.9c-0.5,0.7-0.7,1.3-0.8,1.8
		s0.2,0.8,0.6,1.1c0.3,0.2,0.6,0.3,0.9,0.2C106.5,254.5,106.8,254.3,107,253.9z"/>
	<path d="M111.8,248.7l-0.7,1l-8.7-6.2l0.7-1L111.8,248.7z"/>
	<path d="M114.3,241.6c0.6,0.4,0.9,0.9,0.9,1.6s-0.3,1.4-0.8,2.1c-0.6,0.8-1.2,1.4-1.8,1.7l-0.9-0.6c0.8-0.4,1.4-1,1.9-1.6
		c0.4-0.5,0.5-0.9,0.5-1.3s-0.1-0.6-0.4-0.8c-0.2-0.2-0.5-0.2-0.8-0.1c-0.3,0.1-0.8,0.4-1.4,0.8c-0.6,0.4-1.1,0.7-1.4,0.8
		c-0.3,0.1-0.6,0.2-0.9,0.1c-0.3,0-0.6-0.1-0.8-0.3c-0.5-0.4-0.8-0.8-0.8-1.5c0-0.6,0.3-1.3,0.8-2c0.5-0.7,1.1-1.2,1.8-1.7l0.6,0.9
		c-0.7,0.4-1.2,0.9-1.6,1.4c-0.3,0.4-0.5,0.8-0.5,1.1c0,0.3,0.1,0.5,0.3,0.7c0.2,0.2,0.5,0.2,0.8,0.1c0.3-0.1,0.8-0.4,1.5-0.9
		c0.6-0.4,1-0.6,1.3-0.8c0.3-0.1,0.6-0.2,0.9-0.1C113.7,241.3,114,241.4,114.3,241.6z"/>
	<path d="M119.9,237.2l-0.7-0.6l0,0c0.3,0.8,0.2,1.7-0.4,2.5c-0.6,0.8-1.3,1.2-2.1,1.3c-0.9,0.1-1.8-0.3-2.8-1
		c-1-0.7-1.6-1.5-1.9-2.3c-0.3-0.9-0.1-1.7,0.5-2.4c0.6-0.8,1.4-1.2,2.3-1.3l0-0.1l-0.7-0.7l0.6-0.8l6.2,4.4
		c0.9,0.6,1.4,1.3,1.5,2.1s-0.1,1.6-0.8,2.5c-0.6,0.9-1.3,1.5-2,1.9l-0.9-0.7c0.7-0.4,1.4-1,2.1-1.9c0.4-0.5,0.5-1,0.4-1.6
		c-0.1-0.5-0.4-1-0.9-1.4L119.9,237.2z M118,238.5c0.4-0.6,0.6-1.2,0.5-1.7c-0.1-0.5-0.6-1-1.3-1.6l-0.2-0.2
		c-0.8-0.6-1.5-0.9-2.1-0.8c-0.6,0-1.1,0.3-1.5,1c-0.4,0.5-0.4,1.1-0.2,1.6c0.2,0.6,0.7,1.1,1.4,1.7c0.8,0.5,1.4,0.8,2,0.8
		C117.1,239.3,117.6,239,118,238.5z"/>
	<path d="M124.7,230.5l-1-0.4l0,0c0.2,0.6,0.2,1.1,0.1,1.5c-0.1,0.4-0.3,0.8-0.6,1.3c-0.4,0.6-0.9,1-1.5,1.1c-0.6,0.1-1.1,0-1.7-0.4
		c-1.2-0.9-1.2-2.3,0.1-4.3l0.7-1.1l-0.4-0.3c-0.5-0.3-0.9-0.5-1.2-0.4c-0.4,0-0.7,0.3-1,0.7c-0.2,0.3-0.4,0.7-0.5,1
		c-0.1,0.4-0.2,0.7-0.3,1l-1-0.2c0.1-0.4,0.2-0.9,0.3-1.3s0.4-0.8,0.6-1.2c0.5-0.7,1.1-1.2,1.7-1.3c0.6-0.1,1.2,0.1,1.9,0.6l4.2,3
		L124.7,230.5z M122.5,232.1c0.4-0.6,0.6-1.1,0.5-1.6c-0.1-0.5-0.4-1-0.9-1.4l-0.6-0.4l-0.6,0.9c-0.5,0.7-0.7,1.3-0.8,1.8
		c0,0.5,0.2,0.8,0.6,1.1c0.3,0.2,0.6,0.3,0.9,0.2C122,232.7,122.3,232.5,122.5,232.1z"/>
	<path d="M127.3,225.4c0.1-0.1,0.2-0.3,0.3-0.5c0.1-0.2,0.2-0.3,0.2-0.5l0.8,0.5c0,0.1-0.1,0.3-0.2,0.5c-0.1,0.2-0.2,0.4-0.4,0.6
		c-0.8,1.2-1.9,1.3-3.2,0.5l-3.6-2.5l-0.6,0.9l-0.5-0.3l0.2-1.2l-1-1.3l0.4-0.6l1.4,1l1.3-1.8l0.8,0.6L122,223l3.5,2.5
		c0.4,0.3,0.7,0.4,1,0.3C126.8,225.8,127.1,225.7,127.3,225.4z"/>
	<path d="M132.2,220l-1-0.4l0,0c0.2,0.6,0.2,1.1,0.1,1.5c-0.1,0.4-0.3,0.8-0.6,1.3c-0.4,0.6-0.9,1-1.5,1.1c-0.6,0.1-1.1,0-1.7-0.4
		c-1.2-0.9-1.2-2.3,0.1-4.3l0.7-1.1l-0.4-0.3c-0.5-0.3-0.9-0.5-1.2-0.4c-0.4,0-0.7,0.3-1,0.7c-0.2,0.3-0.4,0.7-0.5,1
		c-0.1,0.4-0.2,0.7-0.3,1l-1-0.2c0.1-0.4,0.2-0.9,0.3-1.3s0.4-0.8,0.6-1.2c0.5-0.7,1.1-1.2,1.7-1.3c0.6-0.1,1.2,0.1,1.9,0.6l4.2,3
		L132.2,220z M130,221.6c0.4-0.6,0.6-1.1,0.5-1.6c-0.1-0.5-0.4-1-0.9-1.4l-0.6-0.4l-0.6,0.9c-0.5,0.7-0.7,1.3-0.8,1.8
		c0,0.5,0.2,0.8,0.6,1.1c0.3,0.2,0.6,0.3,0.9,0.2C129.5,222.2,129.7,221.9,130,221.6z"/>
	<path d="M137,213.2l-3.9-2.8c-0.5-0.4-0.9-0.5-1.3-0.5c-0.4,0-0.8,0.3-1.1,0.8c-0.4,0.6-0.6,1.2-0.5,1.7c0.1,0.5,0.6,1.1,1.4,1.6
		l3.2,2.3l-0.7,1l-6.1-4.3l0.6-0.8l0.9,0.4l0-0.1c-0.2-0.4-0.2-0.8-0.1-1.3c0.1-0.5,0.3-0.9,0.6-1.3c0.5-0.8,1.1-1.2,1.7-1.3
		s1.3,0.1,2.1,0.7l4,2.8L137,213.2z"/>
</g>
<g>
	<path d="M29.2,49l-1.4-0.7l5-9.6L29.5,37l0.6-1.2l8.1,4.2l-0.6,1.2l-3.3-1.7L29.2,49z"/>
	<path d="M42.6,50.8c-0.7,1.3-1.6,2.2-2.6,2.6c-1.1,0.4-2.2,0.3-3.3-0.3c-0.7-0.4-1.3-0.9-1.7-1.5c-0.4-0.6-0.6-1.4-0.5-2.1
		c0-0.8,0.3-1.6,0.7-2.5c0.7-1.3,1.5-2.2,2.6-2.6c1-0.4,2.2-0.3,3.3,0.3c1.1,0.6,1.8,1.4,2.1,2.5C43.5,48.3,43.3,49.5,42.6,50.8z
		 M36.5,47.6c-0.5,1-0.7,1.9-0.6,2.6c0.1,0.7,0.6,1.3,1.4,1.7c0.8,0.4,1.5,0.4,2.2,0.1c0.7-0.3,1.3-1,1.8-2c0.5-1,0.7-1.9,0.6-2.6
		c-0.1-0.7-0.6-1.3-1.4-1.7C38.9,45,37.6,45.6,36.5,47.6z"/>
	<path d="M50.7,49.7c0.4,0.2,0.7,0.4,0.9,0.6l-0.8,1.1c-0.3-0.2-0.5-0.4-0.8-0.6c-0.4-0.2-0.9-0.3-1.4-0.3c-0.5,0-0.9,0.2-1.4,0.5
		c-0.4,0.3-0.8,0.7-1,1.2l-2.2,4.3L42.6,56l4.2-8.1l1.1,0.6L47.3,50l0.1,0c0.6-0.4,1.2-0.6,1.7-0.6C49.6,49.3,50.2,49.4,50.7,49.7z"
		/>
	<path d="M52.6,61.3c-1.1-0.6-1.7-1.4-1.9-2.5l-0.1,0l-0.1,0.3c-0.2,0.4-0.3,0.8-0.5,1.1l-1.7,3.3L47,62.8L53,51.1l1.1,0.6l-0.4,1.2
		l0.1,0c0.5-0.3,1.1-0.4,1.6-0.4s1,0.2,1.6,0.4c1.1,0.5,1.7,1.3,1.9,2.4c0.2,1,0,2.2-0.7,3.5c-0.7,1.3-1.5,2.2-2.5,2.6
		C54.7,61.9,53.6,61.9,52.6,61.3z M56.2,54c-0.8-0.4-1.5-0.5-2.1-0.2s-1.1,0.9-1.7,1.8l-0.1,0.3c-0.6,1.1-0.8,2-0.7,2.7
		c0.1,0.7,0.6,1.2,1.4,1.7c0.7,0.4,1.3,0.4,2,0c0.7-0.4,1.3-1,1.8-2c0.5-1,0.7-1.8,0.6-2.6S56.8,54.3,56.2,54z"/>
	<path d="M63.6,66.8l0.6-1l-0.1,0c-1,0.5-2,0.5-3.1-0.1c-1-0.5-1.7-1.3-1.9-2.4c-0.2-1,0-2.2,0.7-3.5c0.7-1.3,1.5-2.2,2.5-2.6
		c1-0.4,2-0.4,3,0.1c1.1,0.6,1.7,1.4,1.9,2.5l0.1,0l0.7-1l1.1,0.5l-4.3,8.2c-0.6,1.2-1.3,1.9-2.2,2.2c-0.9,0.3-2,0.1-3.2-0.5
		c-1.2-0.6-2.1-1.3-2.6-2l0.6-1.2c0.6,0.8,1.4,1.6,2.7,2.2c0.7,0.4,1.3,0.4,1.9,0.2c0.6-0.2,1.1-0.6,1.5-1.4L63.6,66.8z M61.7,64.7
		c0.8,0.4,1.5,0.5,2.1,0.3c0.6-0.2,1.2-0.9,1.7-1.8l0.2-0.3c0.6-1.1,0.8-2,0.7-2.6c-0.1-0.7-0.6-1.2-1.4-1.7c-0.7-0.4-1.3-0.4-2,0
		c-0.7,0.3-1.2,1-1.8,2c-0.5,1-0.7,1.9-0.7,2.6S61,64.3,61.7,64.7z"/>
	<path d="M72.4,71.5l0.3-1.3l-0.1,0c-0.7,0.3-1.2,0.4-1.7,0.4c-0.5,0-1-0.2-1.7-0.5c-0.8-0.4-1.3-0.9-1.5-1.6
		c-0.2-0.7-0.2-1.4,0.2-2.1c0.9-1.6,2.6-1.8,5.2-0.6l1.4,0.7l0.2-0.5c0.3-0.6,0.4-1.1,0.3-1.6s-0.5-0.8-1-1.1
		c-0.4-0.2-0.9-0.4-1.3-0.4c-0.4-0.1-0.9-0.1-1.3-0.1l0.1-1.2c0.5,0,1.1,0.1,1.6,0.2c0.5,0.1,1.1,0.3,1.5,0.6c1,0.5,1.6,1.1,1.8,1.8
		c0.3,0.7,0.1,1.5-0.4,2.4L73.4,72L72.4,71.5z M70.1,69.1c0.7,0.4,1.4,0.5,2.1,0.3c0.6-0.2,1.1-0.6,1.5-1.4l0.4-0.7l-1.2-0.6
		c-0.9-0.4-1.7-0.7-2.3-0.6c-0.6,0-1,0.3-1.3,0.9c-0.2,0.4-0.3,0.8-0.1,1.2C69.4,68.6,69.7,68.9,70.1,69.1z"/>
	<path d="M79,73.7c0.2,0.1,0.4,0.2,0.6,0.3c0.2,0.1,0.4,0.1,0.6,0.2l-0.5,1c-0.2,0-0.4-0.1-0.7-0.1c-0.3-0.1-0.6-0.2-0.8-0.3
		c-1.6-0.8-1.9-2.1-1.1-3.7l2.4-4.7l-1.1-0.6l0.3-0.6l1.4,0.1l1.4-1.4l0.8,0.4l-1,1.9l2.3,1.2l-0.5,1L81,67l-2.4,4.7
		c-0.2,0.5-0.3,0.9-0.2,1.2C78.4,73.2,78.6,73.5,79,73.7z"/>
	<path d="M86.3,78.7l0.3-1.3l-0.1,0c-0.7,0.3-1.2,0.4-1.7,0.4c-0.5,0-1-0.2-1.7-0.5c-0.8-0.4-1.3-0.9-1.5-1.6
		c-0.2-0.7-0.2-1.4,0.2-2.1c0.9-1.6,2.6-1.8,5.2-0.6l1.4,0.7l0.2-0.5c0.3-0.6,0.4-1.1,0.3-1.6c-0.1-0.4-0.5-0.8-1-1.1
		c-0.4-0.2-0.9-0.4-1.3-0.4c-0.4-0.1-0.9-0.1-1.3-0.1l0.1-1.2c0.5,0,1.1,0.1,1.6,0.2c0.5,0.1,1.1,0.3,1.5,0.6c1,0.5,1.6,1.1,1.8,1.8
		c0.3,0.7,0.1,1.5-0.4,2.4l-2.9,5.5L86.3,78.7z M84,76.3c0.7,0.4,1.4,0.5,2.1,0.3s1.1-0.6,1.5-1.4l0.4-0.7L86.8,74
		c-0.9-0.4-1.7-0.7-2.3-0.6c-0.6,0-1,0.3-1.3,0.9c-0.2,0.4-0.3,0.8-0.1,1.2C83.3,75.8,83.6,76.1,84,76.3z"/>
	<path d="M95.3,83.4l2.7-5.2c0.3-0.7,0.5-1.2,0.3-1.7s-0.5-0.9-1.1-1.2c-0.8-0.4-1.6-0.5-2.2-0.3c-0.6,0.3-1.2,0.9-1.7,1.9l-2.2,4.2
		l-1.3-0.7l4.2-8.1L95,73l-0.4,1.2l0.1,0c0.5-0.3,1-0.4,1.5-0.4c0.6,0,1.1,0.2,1.7,0.5c1,0.5,1.6,1.1,1.8,1.9
		c0.2,0.7,0.1,1.6-0.4,2.6L96.6,84L95.3,83.4z"/>
</g>
</svg>
