<?xml version="1.0" encoding="utf-8"?>
<!-- Generator: Adobe Illustrator 21.1.0, SVG Export Plug-In . SVG Version: 6.00 Build 0)  -->
<svg version="1.1" id="Lager_1" xmlns="http://www.w3.org/2000/svg" xmlns:xlink="http://www.w3.org/1999/xlink" x="0px" y="0px"
	 viewBox="0 0 806 477" style="enable-background:new 0 0 806 477;" xml:space="preserve">
<style type="text/css">
	.st0{fill:none;stroke:#000000;stroke-miterlimit:10;}
	.st1{fill:#CE1617;}
	.st2{fill:#F2EDF0;stroke:#000000;stroke-miterlimit:10;}
	.st3{font-family:'MyriadPro-Regular';}
	.st4{font-size:22px;}
	.st5{fill:none;stroke:#000000;stroke-width:2;stroke-miterlimit:10;}
</style>
<image style="display:none;overflow:visible;enable-background:new    ;" width="1067" height="630" xlink:href="C:\Users\grane\OneDrive\hkr\Uppgifter\Gestaltande design\Grafisk design för webben\Del3\Inspiration\KartInspiration.PNG"  transform="matrix(0.75 0 0 0.75 3.9669 2.8525)">
</image>
<path class="st0" d="M4,18.7c0,0,203.3,99.3,209.9,101.3s207.9,91.4,207.9,91.4l131.8,55c0,0,82.8,35.8,90.1,37.7
	c7.3,2,107.3,38.4,107.3,38.4V367l-160.3-58.9l-41.1,82.8l-38.3,33.8l-91.4,29.8l-31.1,7.3c0,0-21.2-1.3-34.4-4.6
	c-13.2-3.3-168.9-80.1-168.9-80.1L143,353.2c0,0-2-8.6,3.3-7.3c5.3,1.3,206,101.3,206,101.3s14.6,17.2,55.6,2.6
	c41.1-14.6,81.5-25.8,101.3-39.1s31.8-25.2,38.4-37.1c6.6-11.9,33.1-70.9,33.1-70.9L194,138.6L5.3,405.5L4.6,377l176.2-245L4,43.9
	V18.7z"/>
<polygon class="st0" points="209.9,186.9 170.2,247.2 139.7,293.6 336.5,378.4 419.2,414.1 468.9,297.5 384.1,261.1 297.3,224 "/>
<path class="st0" d="M504.6,344.6"/>
<line class="st0" x1="170.2" y1="247.2" x2="441.1" y2="363.8"/>
<path class="st0" d="M381.5,261.1c0,0-43.8,110.5-44.4,113.9"/>
<line class="st0" x1="297.3" y1="224" x2="246.4" y2="340.6"/>
<path class="st0" d="M323.2,2.8c3.3,0,66.2,35.8,76.2,40.4c9.9,4.6,325.8,142.4,335.1,144.4s67.5,21.9,67.5,21.9l1.3,113.9l-3.3,9.3
	l-49.7-17.9c0,0-206.6-77.5-218.5-82.8S29.1,4.2,29.1,4.2"/>
<polygon class="st0" points="804,148.5 779.5,171.7 762.2,157.8 749,170.4 725.2,144.6 714.6,153.2 577.5,4.2 686.7,3.5 
	804.6,134.6 "/>
<polyline class="st0" points="468.9,472.4 498.7,458.5 596.7,456.5 633.1,363.8 802,428.7 "/>
<g>
	<path d="M334.4,184.3c0.4-1.1,0.9-2.5,1.4-3.5l0,0c-0.6,0.8-1.4,1.7-2.2,2.7l-2.9,3.3l-0.7-0.3l0.5-4.3c0.1-1.3,0.3-2.4,0.5-3.5
		l0,0c-0.4,1-1.1,2.3-1.6,3.5l-1.7,3.3l-0.9-0.4l3.9-7.8l1.2,0.5l-0.4,4.4c-0.1,1.1-0.3,2.1-0.4,3l0,0c0.5-0.7,1.2-1.5,1.9-2.4
		l2.9-3.3l1.2,0.5l-3,8.2l-0.9-0.4L334.4,184.3z"/>
	<path d="M340.4,189.1c-0.3,0.6-0.5,1.1-0.6,1.6l-0.8-0.4l0.3-1l0,0c-0.4,0.4-1.2,0.7-2.2,0.3c-0.8-0.3-1.6-1.3-0.7-3.3l1.4-3.4
		l0.9,0.4l-1.4,3.2c-0.5,1.1-0.5,2,0.4,2.3c0.6,0.3,1.3,0,1.6-0.4c0.1-0.1,0.2-0.3,0.3-0.5l1.5-3.5l0.9,0.4L340.4,189.1z"/>
	<path d="M343.1,187.2c0.3-0.6,0.5-1.1,0.6-1.6l0.8,0.3l-0.4,0.9l0,0c0.5-0.4,1.2-0.7,2.1-0.4c0.7,0.3,1,1,1,1.8l0,0
		c0.3-0.3,0.6-0.4,0.9-0.5c0.4-0.1,0.8-0.1,1.3,0.1c0.7,0.3,1.5,1.2,0.6,3.2l-1.4,3.4l-0.9-0.4l1.4-3.2c0.5-1.1,0.4-1.9-0.4-2.2
		c-0.5-0.2-1.1,0-1.5,0.5c-0.1,0.1-0.2,0.3-0.3,0.5l-1.5,3.5l-0.9-0.4l1.5-3.4c0.4-0.9,0.3-1.7-0.4-2c-0.6-0.2-1.2,0.1-1.6,0.5
		c-0.1,0.1-0.2,0.3-0.3,0.5l-1.5,3.5l-0.9-0.4L343.1,187.2z"/>
	<path d="M350.4,194c0.2,0.3,0.6,0.7,1.1,0.9c0.7,0.3,1.2,0,1.4-0.4c0.2-0.5,0.1-0.9-0.5-1.5c-0.8-0.8-1-1.5-0.7-2.2
		c0.4-0.9,1.4-1.4,2.5-0.9c0.5,0.2,0.9,0.6,1.1,0.9l-0.6,0.7c-0.1-0.2-0.4-0.6-0.9-0.8c-0.6-0.2-1,0-1.2,0.4c-0.2,0.5,0,0.8,0.6,1.4
		c0.7,0.8,1,1.5,0.6,2.3c-0.4,1-1.4,1.4-2.7,0.9c-0.6-0.2-1-0.6-1.3-1L350.4,194z"/>
	<path d="M354.3,196.9l2.5-5.7l0.9,0.4l-2.5,5.7L354.3,196.9z M358.5,190c-0.1,0.4-0.5,0.5-0.9,0.4c-0.3-0.1-0.4-0.5-0.3-0.9
		c0.2-0.4,0.5-0.5,0.9-0.4C358.6,189.3,358.7,189.7,358.5,190z"/>
	<path d="M363.7,194.1c-0.2,0.4-0.4,0.9-0.7,1.6l-1.4,3.3c-0.6,1.3-1.1,2-1.9,2.3c-0.7,0.3-1.5,0.2-2.2-0.1
		c-0.6-0.3-1.2-0.7-1.5-1.2l0.6-0.7c0.2,0.4,0.7,0.8,1.3,1.1c1,0.4,1.9,0.1,2.5-1.3l0.3-0.6l0,0c-0.5,0.4-1.2,0.6-2,0.3
		c-1.3-0.5-1.7-2.1-1-3.7c0.8-1.9,2.4-2.6,3.6-2.1c0.9,0.4,1.2,1.1,1.2,1.7l0,0l0.4-0.8L363.7,194.1z M361.7,196
		c0.1-0.2,0.1-0.3,0.1-0.5c0.1-0.7-0.2-1.4-0.8-1.7c-0.9-0.4-1.9,0.2-2.5,1.5c-0.5,1.1-0.4,2.3,0.6,2.7c0.6,0.2,1.3,0.1,1.8-0.5
		c0.1-0.2,0.2-0.3,0.3-0.5L361.7,196z"/>
	<path d="M365.6,201.7l0.2-0.8l0,0c-0.5,0.3-1.2,0.5-1.9,0.2c-1-0.4-1.2-1.5-0.9-2.3c0.6-1.4,2-1.7,4-0.8l0.1-0.1
		c0.2-0.5,0.5-1.4-0.6-1.8c-0.5-0.2-1-0.3-1.5-0.1l0.1-0.8c0.6-0.1,1.3-0.1,1.9,0.2c1.6,0.7,1.4,2,0.9,3.2l-0.9,2.1
		c-0.2,0.5-0.4,1-0.5,1.4L365.6,201.7z M366.7,198.8c-1-0.5-2.3-0.8-2.7,0.4c-0.3,0.7,0,1.2,0.5,1.4c0.7,0.3,1.3,0,1.7-0.4
		c0.1-0.1,0.1-0.2,0.2-0.3L366.7,198.8z"/>
	<path d="M371.3,204.2l1.1-9l1,0.4l-0.6,4.4c-0.2,1.2-0.3,2.3-0.5,3.3l0,0c0.6-0.8,1.3-1.7,2.1-2.6l2.9-3.4l1,0.4l-6,6.9
		L371.3,204.2z"/>
	<path d="M378.1,207.1l0.2-0.8l0,0c-0.5,0.3-1.2,0.5-1.9,0.2c-1-0.4-1.2-1.5-0.9-2.3c0.6-1.4,2-1.7,4-0.8l0.1-0.1
		c0.2-0.5,0.5-1.4-0.6-1.8c-0.5-0.2-1-0.3-1.5-0.1l0.1-0.8c0.6-0.1,1.3-0.1,1.9,0.2c1.6,0.7,1.4,2,0.9,3.2l-0.9,2.1
		c-0.2,0.5-0.4,1-0.5,1.4L378.1,207.1z M379.2,204.1c-1-0.5-2.3-0.8-2.7,0.4c-0.3,0.7,0,1.2,0.5,1.4c0.7,0.3,1.3,0,1.7-0.4
		c0.1-0.1,0.1-0.2,0.2-0.3L379.2,204.1z M378.7,198.6c0.1-0.3,0.5-0.5,0.8-0.4s0.4,0.5,0.3,0.8s-0.5,0.5-0.8,0.4
		C378.7,199.3,378.6,199,378.7,198.6z M380.7,199.5c0.1-0.3,0.5-0.5,0.8-0.4s0.4,0.5,0.3,0.8s-0.5,0.5-0.8,0.4
		C380.6,200.2,380.5,199.8,380.7,199.5z"/>
	<path d="M387.3,204.2c-0.2,0.4-0.4,0.9-0.7,1.6l-1.4,3.3c-0.6,1.3-1.1,2-1.9,2.3c-0.7,0.3-1.5,0.2-2.2-0.1
		c-0.6-0.3-1.2-0.7-1.5-1.2l0.6-0.7c0.2,0.4,0.7,0.8,1.3,1.1c1,0.4,1.9,0.1,2.5-1.3l0.3-0.6l0,0c-0.5,0.4-1.2,0.6-2,0.3
		c-1.3-0.5-1.7-2.1-1-3.7c0.8-1.9,2.4-2.6,3.6-2.1c0.9,0.4,1.2,1.1,1.2,1.7l0,0l0.4-0.8L387.3,204.2z M385.3,206.1
		c0.1-0.2,0.1-0.3,0.1-0.5c0.1-0.7-0.2-1.4-0.8-1.7c-0.9-0.4-1.9,0.2-2.5,1.5c-0.5,1.1-0.4,2.3,0.6,2.7c0.6,0.2,1.3,0.1,1.8-0.5
		c0.1-0.2,0.2-0.3,0.3-0.5L385.3,206.1z"/>
	<path d="M388,208.1c-0.6,1.4,0,2.3,0.9,2.7c0.7,0.3,1.1,0.3,1.5,0.3l-0.2,0.8c-0.4,0-1,0-1.9-0.4c-1.6-0.7-2-2.2-1.3-4
		c0.7-1.7,2.2-2.7,3.7-2.1c1.7,0.7,1.4,2.6,1,3.6c-0.1,0.2-0.2,0.4-0.2,0.5L388,208.1z M391,208.6c0.3-0.7,0.5-1.8-0.6-2.2
		c-0.9-0.4-1.8,0.4-2.2,1.1L391,208.6z"/>
	<path d="M393.4,208.7c0.3-0.6,0.5-1.1,0.6-1.6l0.8,0.4l-0.4,1l0,0c0.5-0.4,1.3-0.7,2.2-0.4c0.7,0.3,1.6,1.2,0.8,3.2l-1.4,3.4
		l-0.9-0.4l1.4-3.3c0.4-0.9,0.4-1.8-0.5-2.2c-0.6-0.3-1.3,0-1.7,0.5c-0.1,0.1-0.2,0.3-0.3,0.5l-1.5,3.5l-0.9-0.4L393.4,208.7z"/>
</g>
<g>
	<path d="M667.6,325.3c0.3-1.2,0.8-2.6,1.1-3.6l0,0c-0.6,0.9-1.3,1.8-2,2.8L664,328l-0.7-0.3l0.2-4.3c0.1-1.3,0.1-2.4,0.3-3.5l0,0
		c-0.4,1-0.9,2.4-1.4,3.6l-1.4,3.4l-1-0.2l3.4-8l1.2,0.4l-0.1,4.4c0,1.1-0.1,2.1-0.2,3l0,0c0.5-0.8,1.1-1.6,1.7-2.5l2.7-3.5l1.2,0.4
		l-2.4,8.4l-0.9-0.3L667.6,325.3z"/>
	<path d="M673.9,329.8c-0.2,0.6-0.4,1.1-0.5,1.6l-0.8-0.3l0.3-1l0,0c-0.4,0.4-1.2,0.8-2.1,0.5c-0.8-0.3-1.6-1.1-0.9-3.2l1.2-3.4
		l1,0.3l-1.1,3.3c-0.4,1.1-0.4,2,0.5,2.3c0.6,0.2,1.3-0.1,1.6-0.5c0.1-0.1,0.2-0.3,0.3-0.5l1.3-3.6l1,0.3L673.9,329.8z"/>
	<path d="M676.5,327.6c0.2-0.6,0.4-1.1,0.5-1.6l0.8,0.3l-0.3,1l0,0c0.5-0.5,1.2-0.8,2-0.5c0.7,0.3,1.1,0.9,1.1,1.7l0,0
		c0.3-0.3,0.6-0.5,0.9-0.6c0.4-0.2,0.8-0.2,1.3,0c0.7,0.2,1.6,1.1,0.8,3.2l-1.2,3.5l-0.9-0.3l1.2-3.3c0.4-1.1,0.3-1.9-0.5-2.2
		c-0.5-0.2-1.1,0.1-1.5,0.6c-0.1,0.1-0.2,0.3-0.3,0.5l-1.3,3.6l-0.9-0.3l1.2-3.5c0.3-0.9,0.2-1.7-0.5-2c-0.6-0.2-1.2,0.2-1.6,0.7
		c-0.1,0.1-0.2,0.3-0.3,0.5l-1.2,3.6l-0.9-0.3L676.5,327.6z"/>
	<path d="M684.3,334c0.2,0.3,0.6,0.7,1.1,0.9c0.7,0.2,1.2,0,1.3-0.5c0.2-0.5,0-0.9-0.6-1.4c-0.8-0.7-1.1-1.5-0.8-2.2
		c0.3-0.9,1.3-1.5,2.4-1.1c0.5,0.2,0.9,0.5,1.2,0.8l-0.5,0.7c-0.2-0.2-0.5-0.5-1-0.7c-0.6-0.2-1,0.1-1.2,0.5
		c-0.2,0.5,0.1,0.8,0.7,1.3c0.8,0.7,1.1,1.4,0.8,2.3c-0.4,1-1.3,1.5-2.6,1.1c-0.6-0.2-1.1-0.5-1.3-0.9L684.3,334z"/>
	<path d="M688.3,336.6l2.1-5.9l1,0.3l-2.1,5.9L688.3,336.6z M692,329.5c-0.1,0.4-0.5,0.6-0.8,0.4c-0.3-0.1-0.5-0.5-0.3-0.9
		c0.1-0.4,0.5-0.6,0.8-0.5C692.1,328.7,692.2,329.1,692,329.5z"/>
	<path d="M697.5,333.2c-0.2,0.4-0.4,0.9-0.6,1.6l-1.2,3.4c-0.5,1.3-1,2.1-1.7,2.4c-0.7,0.4-1.5,0.3-2.2,0c-0.6-0.2-1.3-0.6-1.6-1.1
		l0.5-0.7c0.3,0.4,0.7,0.8,1.4,1c1,0.3,1.9,0,2.4-1.5l0.2-0.7l0,0c-0.5,0.4-1.2,0.7-2,0.4c-1.3-0.5-1.8-2-1.2-3.7
		c0.7-2,2.3-2.7,3.5-2.3c0.9,0.3,1.2,1,1.3,1.6l0,0l0.4-0.9L697.5,333.2z M695.7,335.2c0.1-0.2,0.1-0.3,0.1-0.5
		c0-0.7-0.2-1.4-0.9-1.6c-0.9-0.3-1.9,0.3-2.3,1.7c-0.4,1.2-0.2,2.3,0.8,2.7c0.6,0.2,1.3,0,1.7-0.6c0.1-0.2,0.2-0.4,0.3-0.5
		L695.7,335.2z"/>
	<path d="M699.9,340.7l0.2-0.8l0,0c-0.5,0.4-1.2,0.6-1.9,0.3c-1.1-0.4-1.3-1.4-1-2.3c0.5-1.4,1.9-1.8,3.9-1.1v-0.1
		c0.2-0.5,0.4-1.4-0.7-1.8c-0.5-0.2-1.1-0.2-1.5,0v-0.8c0.5-0.2,1.3-0.1,1.9,0.1c1.6,0.6,1.6,1.9,1.2,3.1l-0.8,2.2
		c-0.2,0.5-0.3,1-0.4,1.4L699.9,340.7z M700.8,337.6c-1-0.4-2.3-0.6-2.7,0.5c-0.2,0.7,0.1,1.2,0.5,1.3c0.7,0.2,1.3-0.1,1.6-0.5
		c0.1-0.1,0.1-0.2,0.2-0.3L700.8,337.6z"/>
	<path d="M705.8,342.8l0.5-9l1,0.4l-0.3,4.4c-0.1,1.2-0.2,2.3-0.3,3.3l0,0c0.5-0.9,1.2-1.8,1.9-2.8l2.7-3.6l1,0.4l-5.5,7.3
		L705.8,342.8z"/>
	<path d="M712.7,345.2l0.2-0.8l0,0c-0.5,0.4-1.2,0.6-1.9,0.3c-1.1-0.4-1.3-1.4-1-2.3c0.5-1.4,1.9-1.8,3.9-1.1v-0.1
		c0.2-0.5,0.4-1.4-0.7-1.8c-0.5-0.2-1.1-0.2-1.5,0v-0.8c0.5-0.2,1.3-0.1,1.9,0.1c1.6,0.6,1.6,1.9,1.2,3.1L714,344
		c-0.2,0.5-0.3,1-0.4,1.4L712.7,345.2z M713.7,342.2c-1-0.4-2.3-0.6-2.7,0.5c-0.2,0.7,0.1,1.2,0.5,1.3c0.7,0.2,1.3-0.1,1.6-0.5
		c0.1-0.1,0.1-0.2,0.2-0.3L713.7,342.2z M712.8,336.7c0.1-0.3,0.5-0.5,0.8-0.4s0.4,0.5,0.3,0.8c-0.1,0.3-0.4,0.5-0.8,0.4
		C712.8,337.4,712.6,337.1,712.8,336.7z M714.8,337.4c0.1-0.3,0.5-0.5,0.8-0.4s0.4,0.5,0.3,0.8c-0.1,0.3-0.4,0.5-0.8,0.4
		C714.8,338.1,714.7,337.8,714.8,337.4z"/>
	<path d="M721.7,341.7c-0.2,0.4-0.4,0.9-0.6,1.6l-1.2,3.4c-0.5,1.4-1,2.1-1.7,2.4c-0.7,0.4-1.5,0.3-2.2,0c-0.6-0.2-1.3-0.6-1.6-1.1
		l0.5-0.7c0.3,0.4,0.7,0.8,1.4,1c1,0.3,1.9,0,2.4-1.5l0.2-0.7l0,0c-0.5,0.4-1.2,0.7-2,0.4c-1.3-0.5-1.8-2-1.2-3.7
		c0.7-2,2.3-2.7,3.5-2.3c0.9,0.3,1.2,1,1.3,1.6l0,0l0.4-0.9L721.7,341.7z M719.9,343.7c0.1-0.2,0.1-0.3,0.1-0.5
		c0-0.7-0.2-1.4-0.9-1.6c-0.9-0.3-1.9,0.3-2.3,1.7c-0.4,1.2-0.2,2.3,0.8,2.7c0.6,0.2,1.3,0,1.7-0.6c0.1-0.2,0.2-0.4,0.3-0.5
		L719.9,343.7z"/>
	<path d="M722.7,345.6c-0.5,1.5,0.1,2.3,1.1,2.7c0.7,0.2,1.1,0.3,1.6,0.2l-0.1,0.8c-0.4,0.1-1,0-1.9-0.3c-1.6-0.6-2.2-2.1-1.5-3.9
		c0.6-1.8,2.1-2.8,3.6-2.3c1.7,0.6,1.6,2.5,1.2,3.5c-0.1,0.2-0.2,0.4-0.2,0.5L722.7,345.6z M725.7,345.8c0.3-0.7,0.4-1.8-0.7-2.2
		c-1-0.3-1.7,0.5-2.1,1.2L725.7,345.8z"/>
	<path d="M728.1,345.8c0.2-0.6,0.4-1.1,0.5-1.6l0.8,0.3l-0.3,1l0,0c0.5-0.5,1.3-0.8,2.1-0.5c0.7,0.3,1.7,1.1,1,3.2l-1.2,3.5l-1-0.3
		l1.2-3.4c0.3-0.9,0.3-1.9-0.6-2.2c-0.6-0.2-1.3,0.1-1.7,0.6c-0.1,0.1-0.2,0.3-0.2,0.5l-1.2,3.5l-1-0.3L728.1,345.8z"/>
</g>
<path class="st1" d="M220.2,226L220.2,226c-6,0-10.9-4.9-10.9-10.9l0,0c0-6,4.9-10.9,10.9-10.9l0,0c6,0,10.9,4.9,10.9,10.9l0,0
	C231.1,221.1,226.2,226,220.2,226z"/>
<g>
	<path d="M188.7,159.8v6.2h7.2v-6.2h1.9v14.9h-1.9v-7h-7.2v7h-1.9v-14.8L188.7,159.8L188.7,159.8z"/>
	<path d="M206.9,174.7l-0.2-1.3h-0.1c-0.6,0.8-1.7,1.6-3.3,1.6c-2.2,0-3.3-1.5-3.3-3.1c0-2.6,2.3-4,6.4-4v-0.2
		c0-0.9-0.2-2.5-2.4-2.5c-1,0-2,0.3-2.8,0.8l-0.2-1.3c0.9-0.6,2.2-0.9,3.5-0.9c3.3,0,4,2.2,4,4.4v4c0,0.9,0,1.8,0.2,2.6h-1.8V174.7z
		 M201.6,161c0-0.6,0.5-1.1,1.1-1.1s1.1,0.5,1.1,1.1s-0.4,1.1-1.1,1.1C202,162.1,201.6,161.6,201.6,161z M206.6,169.2
		c-2.1,0-4.5,0.3-4.5,2.4c0,1.3,0.8,1.8,1.8,1.8c1.4,0,2.3-0.9,2.6-1.8c0.1-0.2,0.1-0.4,0.1-0.6L206.6,169.2L206.6,169.2z
		 M205.7,161c0-0.6,0.5-1.1,1.1-1.1s1.1,0.5,1.1,1.1s-0.4,1.1-1.1,1.1C206.1,162.1,205.7,161.6,205.7,161z"/>
	<path d="M211.6,167.3c0-1.3,0-2.3-0.1-3.3h1.7l0.1,2.1h0.1c0.5-1.4,1.6-2.3,2.9-2.3c0.2,0,0.4,0,0.6,0.1v1.8
		c-0.2,0-0.4-0.1-0.7-0.1c-1.4,0-2.3,1-2.6,2.5c0,0.3-0.1,0.6-0.1,0.9v5.7h-1.9V167.3z"/>
	<path d="M229.4,174.7l-0.2-1.3h-0.1c-0.6,0.8-1.7,1.6-3.3,1.6c-2.2,0-3.3-1.5-3.3-3.1c0-2.6,2.3-4,6.4-4v-0.2
		c0-0.9-0.2-2.5-2.4-2.5c-1,0-2,0.3-2.8,0.8l-0.4-1.3c0.9-0.6,2.2-0.9,3.5-0.9c3.3,0,4,2.2,4,4.4v4c0,0.9,0,1.8,0.2,2.6h-1.6V174.7z
		 M224,161c0-0.6,0.5-1.1,1.1-1.1s1.1,0.5,1.1,1.1s-0.4,1.1-1.1,1.1C224.5,162.1,224,161.6,224,161z M229.1,169.2
		c-2.1,0-4.5,0.3-4.5,2.4c0,1.3,0.8,1.8,1.8,1.8c1.4,0,2.3-0.9,2.6-1.8c0.1-0.2,0.1-0.4,0.1-0.6V169.2z M228.1,161
		c0-0.6,0.5-1.1,1.1-1.1s1.1,0.5,1.1,1.1s-0.4,1.1-1.1,1.1C228.6,162.1,228.1,161.6,228.1,161z"/>
	<path d="M234.1,167.3c0-1.3,0-2.3-0.1-3.3h1.7l0.1,2.1h0.1c0.5-1.4,1.6-2.3,2.9-2.3c0.2,0,0.4,0,0.5,0.1v1.8
		c-0.2,0-0.4-0.1-0.7-0.1c-1.4,0-2.3,1-2.6,2.5c0,0.3-0.1,0.6-0.1,0.9v5.7H234v-7.4H234.1z"/>
	<path d="M246.7,164l2.1,6c0.4,1,0.6,1.8,0.9,2.7h0.1c0.2-0.9,0.6-1.8,0.9-2.7l2.1-6h2l-4.2,10.6h-1.8l-4-10.6H246.7z"/>
	<path d="M258.7,161c0,0.7-0.5,1.2-1.2,1.2s-1.2-0.5-1.2-1.2s0.5-1.2,1.2-1.2S258.7,160.3,258.7,161z M256.5,174.7v-10.6h1.9v10.6
		H256.5z"/>
	<path d="M266,173.5c0-0.8,0.6-1.4,1.3-1.4c0.8,0,1.3,0.6,1.3,1.4c0,0.8-0.5,1.4-1.3,1.4S266,174.3,266,173.5z M266.5,170.4
		l-0.3-10.6h2.1l-0.3,10.6H266.5z"/>
</g>
<line class="st0" x1="211.9" y1="174.4" x2="219.3" y2="205.2"/>
<path class="st0" d="M204.6,196c0,0,20.5,24.3,21.2,0.9"/>
<g>
	<path d="M131.9,218.5l-8.5-3l0.6-0.9l4.2,1.5c1.1,0.4,2.2,0.8,3.1,1.2l0,0c-0.7-0.8-1.4-1.7-2.1-2.6l-2.7-3.6l0.6-0.9l5.4,7.3
		L131.9,218.5z"/>
	<path d="M128.1,210.1c-0.3-0.2-0.4-0.6-0.2-0.9c0.2-0.3,0.6-0.3,0.9-0.1c0.3,0.2,0.4,0.6,0.2,0.8
		C128.8,210.3,128.4,210.3,128.1,210.1z M129.4,208.4c-0.3-0.2-0.4-0.6-0.2-0.9c0.2-0.3,0.6-0.3,0.9-0.1c0.3,0.2,0.4,0.6,0.2,0.8
		C130,208.6,129.7,208.6,129.4,208.4z M136.2,212.5l-0.7-0.4l0,0c0.2,0.5,0.2,1.3-0.2,1.9c-0.7,0.9-1.7,0.9-2.5,0.3
		c-1.2-0.9-1.2-2.3,0.1-4.1l-0.1-0.1c-0.4-0.3-1.2-0.7-1.9,0.2c-0.3,0.4-0.5,1-0.5,1.4l-0.7-0.3c0-0.6,0.2-1.2,0.6-1.8
		c1-1.4,2.3-1,3.3-0.2l1.9,1.4c0.4,0.3,0.9,0.6,1.3,0.8L136.2,212.5z M133.6,210.8c-0.7,0.9-1.2,2-0.2,2.7c0.6,0.4,1.1,0.3,1.4-0.1
		c0.4-0.6,0.3-1.3-0.1-1.7c-0.1-0.1-0.2-0.2-0.3-0.3L133.6,210.8z"/>
	<path d="M134,207.8c-0.5-0.4-1-0.7-1.4-1l0.5-0.7l0.9,0.6l0,0c-0.3-0.6-0.4-1.4,0.1-2.2c0.5-0.6,1.6-1.3,3.3,0l3,2.2l-0.6,0.8
		l-2.9-2.1c-0.8-0.6-1.7-0.8-2.3,0c-0.4,0.5-0.3,1.3,0.1,1.8c0.1,0.1,0.2,0.3,0.4,0.4l3,2.2l-0.6,0.8L134,207.8z"/>
	<path d="M134,200l0.6-0.8l7.4,5.4l-0.6,0.8L134,200z"/>
	<path d="M137.2,197.5c0.3,0.2,0.4,0.6,0.2,0.9c-0.2,0.3-0.6,0.3-0.9,0.1c-0.3-0.2-0.4-0.6-0.2-0.9
		C136.5,197.3,136.9,197.3,137.2,197.5z M143,203.1l-5.1-3.7l0.6-0.8l5.1,3.7L143,203.1z"/>
	<path d="M142.4,193.4c0.4,0.3,0.7,0.6,1.4,1l2.9,2.1c1.2,0.8,1.7,1.6,1.8,2.3c0.1,0.8-0.2,1.5-0.6,2.1c-0.4,0.5-1,1-1.5,1.2
		l-0.6-0.7c0.4-0.1,1-0.5,1.4-1c0.6-0.8,0.6-1.8-0.7-2.7l-0.6-0.4l0,0c0.3,0.6,0.3,1.4-0.2,2.1c-0.8,1.1-2.5,1.2-3.9,0.1
		c-1.7-1.2-2-2.9-1.2-4c0.6-0.8,1.3-0.9,1.9-0.8l0,0l-0.7-0.6L142.4,193.4z M143.8,195.7c-0.2-0.1-0.3-0.2-0.5-0.3
		c-0.6-0.2-1.4-0.2-1.8,0.4c-0.6,0.8-0.2,1.9,0.9,2.7c1,0.7,2.1,0.9,2.8,0c0.4-0.5,0.3-1.2-0.1-1.8c-0.1-0.2-0.3-0.3-0.4-0.4
		L143.8,195.7z"/>
	<path d="M150.2,193.2l-0.7-0.4l0,0c0.2,0.5,0.2,1.3-0.2,1.9c-0.7,0.9-1.7,0.9-2.5,0.3c-1.2-0.9-1.2-2.3,0.1-4.1l-0.1-0.1
		c-0.4-0.3-1.2-0.7-1.9,0.2c-0.3,0.4-0.5,1-0.5,1.4l-0.7-0.3c0-0.6,0.2-1.2,0.6-1.8c1-1.4,2.3-1,3.3-0.2l1.9,1.4
		c0.4,0.3,0.9,0.6,1.3,0.8L150.2,193.2z M147.6,191.5c-0.7,0.9-1.2,2-0.2,2.7c0.6,0.4,1.1,0.3,1.4-0.1c0.4-0.6,0.3-1.3-0.1-1.7
		c-0.1-0.1-0.2-0.2-0.3-0.3L147.6,191.5z"/>
	<path d="M153.9,188.2l-8.5-3l0.6-0.9l4.2,1.5c1.1,0.4,2.2,0.8,3.1,1.2l0,0c-0.7-0.8-1.4-1.7-2.1-2.6l-2.7-3.6l0.6-0.9l5.4,7.3
		L153.9,188.2z"/>
	<path d="M150.1,179.7c-0.3-0.2-0.4-0.6-0.2-0.9c0.2-0.3,0.6-0.3,0.9-0.1c0.3,0.2,0.4,0.6,0.2,0.8
		C150.8,179.9,150.4,179.9,150.1,179.7z M151.3,178c-0.3-0.2-0.4-0.6-0.2-0.9c0.2-0.3,0.6-0.3,0.9-0.1c0.3,0.2,0.4,0.6,0.2,0.8
		C152,178.2,151.6,178.2,151.3,178z M158.2,182.2l-0.7-0.4l0,0c0.2,0.5,0.2,1.3-0.3,1.9c-0.7,0.9-1.7,0.9-2.5,0.3
		c-1.2-0.9-1.2-2.3,0.1-4.1l-0.1-0.1c-0.4-0.3-1.2-0.7-1.9,0.2c-0.3,0.4-0.5,1-0.5,1.4l-0.7-0.3c0-0.6,0.2-1.2,0.6-1.8
		c1-1.4,2.3-1,3.3-0.2l1.9,1.4c0.4,0.3,0.9,0.6,1.3,0.8L158.2,182.2z M155.6,180.4c-0.7,0.9-1.2,2-0.2,2.7c0.6,0.4,1.1,0.3,1.4-0.1
		c0.4-0.6,0.3-1.3-0.1-1.7c-0.1-0.1-0.2-0.2-0.3-0.3L155.6,180.4z"/>
	<path d="M157.4,172.6c0.4,0.3,0.7,0.6,1.4,1l2.9,2.1c1.2,0.8,1.7,1.6,1.8,2.3c0.1,0.8-0.2,1.5-0.6,2.1c-0.4,0.5-1,1-1.5,1.2
		l-0.6-0.7c0.4-0.1,1-0.5,1.4-1c0.6-0.8,0.6-1.8-0.7-2.7l-0.6-0.4l0,0c0.3,0.6,0.3,1.4-0.2,2.1c-0.8,1.1-2.5,1.2-3.9,0.1
		c-1.7-1.2-2-2.9-1.2-4c0.6-0.8,1.3-0.9,1.9-0.8l0,0l-0.7-0.6L157.4,172.6z M158.8,174.9c-0.2-0.1-0.3-0.2-0.5-0.3
		c-0.6-0.2-1.4-0.2-1.8,0.4c-0.6,0.8-0.2,1.9,0.9,2.7c1,0.7,2.1,0.9,2.8,0c0.4-0.5,0.3-1.2-0.1-1.8c-0.1-0.2-0.3-0.3-0.4-0.4
		L158.8,174.9z"/>
	<path d="M161.4,172.8c1.3,0.9,2.3,0.5,2.9-0.3c0.4-0.6,0.6-1,0.6-1.4l0.8,0.3c-0.1,0.4-0.3,1-0.8,1.7c-1,1.4-2.6,1.5-4.2,0.4
		c-1.5-1.1-2.1-2.8-1.2-4.1c1.1-1.5,2.8-0.8,3.7-0.1c0.2,0.1,0.3,0.3,0.4,0.3L161.4,172.8z M162.5,169.9c-0.6-0.4-1.6-0.9-2.3,0.1
		c-0.6,0.8,0,1.8,0.6,2.3L162.5,169.9z"/>
	<path d="M163.1,167.6c-0.5-0.4-1-0.7-1.4-1l0.5-0.7l0.9,0.6l0,0c-0.3-0.6-0.4-1.4,0.1-2.2c0.5-0.6,1.6-1.3,3.3,0l3,2.2l-0.6,0.8
		l-2.9-2.1c-0.8-0.6-1.7-0.8-2.3,0c-0.4,0.5-0.3,1.3,0.1,1.8c0.1,0.1,0.2,0.3,0.4,0.4l3,2.2l-0.6,0.8L163.1,167.6z"/>
</g>
<path class="st2" d="M467.5,252.5h-15.2c-7.3,0-13.2-6-13.2-13.2l0,0c0-7.3,6-13.2,13.2-13.2h15.2c7.3,0,13.2,6,13.2,13.2l0,0
	C480.8,246.5,474.8,252.5,467.5,252.5z"/>
<text transform="matrix(1 0 0 1 447.6753 246.5612)" class="st3 st4">E6</text>
<g>
	<g>
		<path d="M144.6,33.1c0.6,1,1.6,2.1,3,2.8c2,1,3.7,0.5,4.5-1.1c0.7-1.5,0.3-2.7-1.3-4.5c-2-2.1-2.9-4.2-1.8-6.4
			c1.2-2.5,4.1-3.3,7-1.9c1.5,0.8,2.5,1.7,2.9,2.4l-1.4,1.4c-0.4-0.5-1.1-1.5-2.5-2.2c-2.1-1-3.5-0.1-4,1c-0.7,1.5-0.2,2.7,1.5,4.5
			c2,2.3,2.7,4.2,1.5,6.5c-1.2,2.4-4,3.7-7.5,1.9c-1.5-0.7-2.8-2-3.3-2.9L144.6,33.1z"/>
		<path d="M164.1,27.7l-1.6,3.2l2.8,1.4l-0.8,1.6l-2.8-1.4l-3,6.1c-0.7,1.4-0.7,2.4,0.4,2.9c0.5,0.3,0.9,0.4,1.2,0.4l-0.7,1.6
			c-0.5,0-1.1-0.2-1.9-0.6c-0.9-0.5-1.5-1.1-1.7-1.9c-0.3-0.9,0-2,0.7-3.3l3.1-6.2l-1.7-0.8l0.8-1.6l1.7,0.8l1.3-2.7L164.1,27.7z"/>
		<path d="M174.4,43.8c-2.1,4.2-5.7,4.6-8.4,3.3c-2.9-1.5-4.1-4.8-2.3-8.4c1.9-3.8,5.3-4.8,8.3-3.3C175.2,37,176.2,40.4,174.4,43.8z
			 M165.8,39.7c-1.2,2.5-0.8,5,1.1,6c1.9,0.9,4.2-0.2,5.5-2.8c1-1.9,1.2-4.8-1.1-6C169,35.8,166.9,37.5,165.8,39.7z"/>
		<path d="M177.9,43c0.7-1.3,1.2-2.5,1.7-3.6l1.7,0.9l-1,2.3h0.1c1.2-1.3,2.9-1.6,4.2-1c0.2,0.1,0.4,0.2,0.5,0.3l-1,1.9
			c-0.2-0.1-0.4-0.3-0.6-0.4c-1.4-0.7-2.9-0.1-3.9,1.3c-0.2,0.3-0.4,0.6-0.6,0.9l-3,6l-1.9-1L177.9,43z"/>
		<path d="M187.2,57.3l0.6-1.5h-0.1c-1,0.6-2.6,0.8-4.1,0c-2.2-1.1-2.5-3.3-1.7-4.9c1.4-2.7,4.4-3.1,8.6-1l0.1-0.2
			c0.5-0.9,1.1-2.7-1.2-3.8c-1-0.5-2.2-0.7-3.2-0.6l0.2-1.6c1.2-0.2,2.7,0.1,4,0.8c3.3,1.6,2.9,4.4,1.8,6.7l-2.1,4.2
			c-0.5,1-0.9,2-1.2,2.8L187.2,57.3z M189.8,51.4c-2.1-1.1-4.7-1.9-5.8,0.3c-0.7,1.3-0.1,2.4,0.9,2.9c1.4,0.7,2.8,0.2,3.6-0.6
			c0.2-0.2,0.3-0.4,0.4-0.6L189.8,51.4z"/>
		<path d="M192.8,57.5c0.4,0.7,1.2,1.6,2.2,2.1c1.4,0.7,2.5,0.3,2.9-0.6c0.5-1,0.2-1.8-1-3.1c-1.6-1.7-1.9-3.3-1.3-4.6
			c0.9-1.8,3.1-2.6,5.4-1.5c1.1,0.5,1.9,1.3,2.3,2l-1.2,1.3c-0.3-0.5-0.9-1.3-1.9-1.8c-1.2-0.6-2.2-0.2-2.6,0.6
			c-0.5,0.9,0,1.7,1.1,2.9c1.5,1.7,2,3.1,1.1,4.8c-1,2-3.2,2.7-5.7,1.4c-1.2-0.6-2.1-1.4-2.7-2.3L192.8,57.5z"/>
		<path d="M210.4,50.7l-1.6,3.2l2.8,1.4l-0.8,1.6l-2.8-1.4l-3,6.1c-0.7,1.4-0.7,2.4,0.4,2.9c0.5,0.3,0.9,0.4,1.2,0.4l-0.7,1.6
			c-0.5,0-1.1-0.2-1.9-0.6c-0.9-0.5-1.5-1.1-1.7-1.9c-0.3-0.9,0-2,0.7-3.3l3.1-6.2l-1.7-0.8l0.8-1.6l1.7,0.8l1.3-2.7L210.4,50.7z"/>
		<path d="M214.2,70.7l0.5-1.5h-0.1c-1,0.6-2.6,0.8-4.1,0c-2.2-1.1-2.5-3.3-1.7-4.9c1.4-2.7,4.4-3.1,8.6-1l0.1-0.2
			c0.5-0.9,1.1-2.7-1.2-3.8c-1-0.5-2.2-0.7-3.2-0.6l0.2-1.6c1.2-0.2,2.7,0.1,4,0.8c3.3,1.6,2.9,4.4,1.8,6.7l-2.1,4.2
			c-0.5,1-0.9,2-1.2,2.8L214.2,70.7z M216.8,64.8c-2.1-1.1-4.7-1.9-5.8,0.3c-0.7,1.3-0.1,2.4,0.9,2.9c1.4,0.7,2.8,0.2,3.6-0.6
			c0.2-0.2,0.3-0.4,0.4-0.6L216.8,64.8z"/>
		<path d="M236.6,61.2l-6.8,13.7c-0.5,1-1,2.2-1.4,3l-1.8-0.9l0.9-2l0,0c-1.2,1-3,1.3-4.8,0.4c-2.6-1.3-3.5-4.6-1.8-8
			c1.8-3.8,5.2-5,7.9-3.7c1.7,0.8,2.4,2.2,2.4,3.3l0,0l3.4-6.8L236.6,61.2z M229.7,70.1c0.1-0.3,0.3-0.6,0.3-0.9
			c0.4-1.5-0.2-3.1-1.7-3.8c-2-1-4.2,0.3-5.4,2.8c-1.1,2.3-1,4.7,1.1,5.8c1.3,0.7,3,0.3,4.1-1c0.2-0.2,0.4-0.5,0.5-0.8L229.7,70.1z"
			/>
		<path d="M235.3,74.6c-1.3,2.8-0.2,4.8,1.8,5.8c1.4,0.7,2.4,0.9,3.3,0.9l-0.4,1.6c-0.9,0-2.2-0.2-3.9-1.1c-3.3-1.7-4.2-4.9-2.5-8.3
			s4.9-5.1,8.1-3.6c3.5,1.8,2.9,5.5,1.8,7.5c-0.2,0.4-0.4,0.7-0.5,0.9L235.3,74.6z M241.8,76c0.7-1.3,1.1-3.6-1.1-4.7
			c-2-1-3.8,0.5-4.7,1.8L241.8,76z"/>
		<path d="M246.9,76.7c0.6-1.2,1-2.1,1.4-3.1l1.7,0.9l-0.8,1.9l0,0c1.1-0.8,2.8-1.2,4.6-0.4c1.5,0.7,3.4,2.8,1.4,6.7l-3.4,6.8l-2-1
			L253,82c0.9-1.8,1-3.7-0.8-4.6c-1.3-0.6-2.8-0.2-3.7,0.8c-0.2,0.2-0.4,0.5-0.6,0.9l-3.4,6.8l-2-1L246.9,76.7z"/>
	</g>
	<line class="st5" x1="111.8" y1="10.4" x2="144.9" y2="25"/>
	<path class="st5" d="M126.5,11.5l-16.6-2c0,0,0.7,11.3,6.6,16.6"/>
</g>
</svg>
