<?xml version="1.0" encoding="utf-8"?>
<!-- Generator: Adobe Illustrator 21.1.0, SVG Export Plug-In . SVG Version: 6.00 Build 0)  -->
<svg version="1.1" id="Lager_1" xmlns="http://www.w3.org/2000/svg" xmlns:xlink="http://www.w3.org/1999/xlink" x="0px" y="0px"
	 viewBox="0 0 841.9 595.3" style="enable-background:new 0 0 841.9 595.3;" xml:space="preserve">
<style type="text/css">
	.st0{fill:none;stroke:#000000;stroke-miterlimit:10;}
	.st1{fill:#CE1617;}
	.st2{fill:#FFFFFF;stroke:#000000;stroke-miterlimit:10;}
	.st3{fill:#F2EDF0;stroke:#000000;stroke-miterlimit:10;}
	.st4{font-family:'MyriadPro-Regular';}
	.st5{font-size:22px;}
	.st6{fill:none;stroke:#000000;stroke-width:2;stroke-miterlimit:10;}
</style>
<image style="display:none;overflow:visible;" width="1067" height="630" xlink:href="C:\Users\grane\OneDrive\hkr\Uppgifter\Gestaltande design\Grafisk design för webben\Del3\Inspiration\KartInspiration.PNG"  transform="matrix(0.75 0 0 0.75 30.9669 40.1325)">
</image>
<path class="st0" d="M31,56c0,0,203.3,99.3,209.9,101.3s207.9,91.4,207.9,91.4l131.8,55c0,0,82.8,35.8,90.1,37.7
	c7.3,2,107.3,38.4,107.3,38.4v24.5l-160.3-58.9l-41.1,82.8L538.3,462l-91.4,29.8l-31.1,7.3c0,0-21.2-1.3-34.4-4.6
	c-13.2-3.3-168.9-80.1-168.9-80.1L170,390.5c0,0-2-8.6,3.3-7.3c5.3,1.3,206,101.3,206,101.3s14.6,17.2,55.6,2.6
	c41.1-14.6,81.5-25.8,101.3-39.1s31.8-25.2,38.4-37.1c6.6-11.9,33.1-70.9,33.1-70.9L221,175.9L32.3,442.8l-0.7-28.5l176.2-245
	L31,81.2V56z"/>
<polygon class="st0" points="236.9,224.2 197.2,284.5 166.7,330.9 363.5,415.7 446.2,451.4 495.9,334.8 411.1,298.4 324.3,261.3 "/>
<path class="st0" d="M531.6,381.9"/>
<line class="st0" x1="197.2" y1="284.5" x2="468.1" y2="401.1"/>
<path class="st0" d="M408.5,298.4c0,0-43.8,110.5-44.4,113.9"/>
<line class="st0" x1="324.3" y1="261.3" x2="273.4" y2="377.9"/>
<path class="st0" d="M350.2,40.1c3.3,0,66.2,35.8,76.2,40.4c9.9,4.6,325.8,142.4,335.1,144.4c9.3,2,67.5,21.9,67.5,21.9l1.3,113.9
	l-3.3,9.3l-49.7-17.9c0,0-206.6-77.5-218.5-82.8C546.9,264,56.1,41.5,56.1,41.5"/>
<polygon class="st0" points="831,185.8 806.5,209 789.2,195.1 776,207.7 752.2,181.9 741.6,190.5 604.5,41.5 713.7,40.8 
	831.6,171.9 "/>
<polyline class="st0" points="495.9,509.7 525.7,495.8 623.7,493.8 660.1,401.1 829,466 "/>
<g>
	<path d="M361.4,221.6c0.4-1.1,0.9-2.5,1.4-3.5l0,0c-0.6,0.8-1.4,1.7-2.2,2.7l-2.9,3.3l-0.7-0.3l0.5-4.3c0.1-1.3,0.3-2.4,0.5-3.5
		l0,0c-0.4,1-1.1,2.3-1.6,3.5l-1.7,3.3l-0.9-0.4l3.9-7.8l1.2,0.5l-0.4,4.4c-0.1,1.1-0.3,2.1-0.4,3l0,0c0.5-0.7,1.2-1.5,1.9-2.4
		l2.9-3.3l1.2,0.5l-3,8.2l-0.9-0.4L361.4,221.6z"/>
	<path d="M367.4,226.4c-0.3,0.6-0.5,1.1-0.6,1.6l-0.8-0.4l0.3-1l0,0c-0.4,0.4-1.2,0.7-2.2,0.3c-0.8-0.3-1.6-1.3-0.7-3.3l1.4-3.4
		l0.9,0.4l-1.4,3.2c-0.5,1.1-0.5,2,0.4,2.3c0.6,0.3,1.3,0,1.6-0.4c0.1-0.1,0.2-0.3,0.3-0.5l1.5-3.5l0.9,0.4L367.4,226.4z"/>
	<path d="M370.1,224.5c0.3-0.6,0.5-1.1,0.6-1.6l0.8,0.3l-0.4,0.9l0,0c0.5-0.4,1.2-0.7,2.1-0.4c0.7,0.3,1,1,1,1.8l0,0
		c0.3-0.3,0.6-0.4,0.9-0.5c0.4-0.1,0.8-0.1,1.3,0.1c0.7,0.3,1.5,1.2,0.6,3.2l-1.4,3.4l-0.9-0.4l1.4-3.2c0.5-1.1,0.4-1.9-0.4-2.2
		c-0.5-0.2-1.1,0-1.5,0.5c-0.1,0.1-0.2,0.3-0.3,0.5l-1.5,3.5l-0.9-0.4l1.5-3.4c0.4-0.9,0.3-1.7-0.4-2c-0.6-0.2-1.2,0.1-1.6,0.5
		c-0.1,0.1-0.2,0.3-0.3,0.5l-1.5,3.5l-0.9-0.4L370.1,224.5z"/>
	<path d="M377.4,231.3c0.2,0.3,0.6,0.7,1.1,0.9c0.7,0.3,1.2,0,1.4-0.4c0.2-0.5,0.1-0.9-0.5-1.5c-0.8-0.8-1-1.5-0.7-2.2
		c0.4-0.9,1.4-1.4,2.5-0.9c0.5,0.2,0.9,0.6,1.1,0.9l-0.6,0.7c-0.1-0.2-0.4-0.6-0.9-0.8c-0.6-0.2-1,0-1.2,0.4c-0.2,0.5,0,0.8,0.6,1.4
		c0.7,0.8,1,1.5,0.6,2.3c-0.4,1-1.4,1.4-2.7,0.9c-0.6-0.2-1-0.6-1.3-1L377.4,231.3z"/>
	<path d="M381.3,234.2l2.5-5.7l0.9,0.4l-2.5,5.7L381.3,234.2z M385.5,227.3c-0.1,0.4-0.5,0.5-0.9,0.4c-0.3-0.1-0.4-0.5-0.3-0.9
		c0.2-0.4,0.5-0.5,0.9-0.4C385.6,226.6,385.7,227,385.5,227.3z"/>
	<path d="M390.7,231.4c-0.2,0.4-0.4,0.9-0.7,1.6l-1.4,3.3c-0.6,1.3-1.1,2-1.9,2.3c-0.7,0.3-1.5,0.2-2.2-0.1
		c-0.6-0.3-1.2-0.7-1.5-1.2l0.6-0.7c0.2,0.4,0.7,0.8,1.3,1.1c1,0.4,1.9,0.1,2.5-1.3l0.3-0.6l0,0c-0.5,0.4-1.2,0.6-2,0.3
		c-1.3-0.5-1.7-2.1-1-3.7c0.8-1.9,2.4-2.6,3.6-2.1c0.9,0.4,1.2,1.1,1.2,1.7l0,0l0.4-0.8L390.7,231.4z M388.7,233.3
		c0.1-0.2,0.1-0.3,0.1-0.5c0.1-0.7-0.2-1.4-0.8-1.7c-0.9-0.4-1.9,0.2-2.5,1.5c-0.5,1.1-0.4,2.3,0.6,2.7c0.6,0.2,1.3,0.1,1.8-0.5
		c0.1-0.2,0.2-0.3,0.3-0.5L388.7,233.3z"/>
	<path d="M392.6,239l0.2-0.8l0,0c-0.5,0.3-1.2,0.5-1.9,0.2c-1-0.4-1.2-1.5-0.9-2.3c0.6-1.4,2-1.7,4-0.8l0.1-0.1
		c0.2-0.5,0.5-1.4-0.6-1.8c-0.5-0.2-1-0.3-1.5-0.1l0.1-0.8c0.6-0.1,1.3-0.1,1.9,0.2c1.6,0.7,1.4,2,0.9,3.2l-0.9,2.1
		c-0.2,0.5-0.4,1-0.5,1.4L392.6,239z M393.7,236.1c-1-0.5-2.3-0.8-2.7,0.4c-0.3,0.7,0,1.2,0.5,1.4c0.7,0.3,1.3,0,1.7-0.4
		c0.1-0.1,0.1-0.2,0.2-0.3L393.7,236.1z"/>
	<path d="M398.3,241.5l1.1-9l1,0.4l-0.6,4.4c-0.2,1.2-0.3,2.3-0.5,3.3l0,0c0.6-0.8,1.3-1.7,2.1-2.6l2.9-3.4l1,0.4l-6,6.9
		L398.3,241.5z"/>
	<path d="M405.1,244.4l0.2-0.8l0,0c-0.5,0.3-1.2,0.5-1.9,0.2c-1-0.4-1.2-1.5-0.9-2.3c0.6-1.4,2-1.7,4-0.8l0.1-0.1
		c0.2-0.5,0.5-1.4-0.6-1.8c-0.5-0.2-1-0.3-1.5-0.1l0.1-0.8c0.6-0.1,1.3-0.1,1.9,0.2c1.6,0.7,1.4,2,0.9,3.2l-0.9,2.1
		c-0.2,0.5-0.4,1-0.5,1.4L405.1,244.4z M406.2,241.4c-1-0.5-2.3-0.8-2.7,0.4c-0.3,0.7,0,1.2,0.5,1.4c0.7,0.3,1.3,0,1.7-0.4
		c0.1-0.1,0.1-0.2,0.2-0.3L406.2,241.4z M405.7,235.9c0.1-0.3,0.5-0.5,0.8-0.4c0.3,0.1,0.4,0.5,0.3,0.8c-0.1,0.3-0.5,0.5-0.8,0.4
		C405.7,236.6,405.6,236.3,405.7,235.9z M407.7,236.8c0.1-0.3,0.5-0.5,0.8-0.4c0.3,0.1,0.4,0.5,0.3,0.8c-0.1,0.3-0.5,0.5-0.8,0.4
		C407.6,237.5,407.5,237.1,407.7,236.8z"/>
	<path d="M414.3,241.5c-0.2,0.4-0.4,0.9-0.7,1.6l-1.4,3.3c-0.6,1.3-1.1,2-1.9,2.3c-0.7,0.3-1.5,0.2-2.2-0.1
		c-0.6-0.3-1.2-0.7-1.5-1.2l0.6-0.7c0.2,0.4,0.7,0.8,1.3,1.1c1,0.4,1.9,0.1,2.5-1.3l0.3-0.6l0,0c-0.5,0.4-1.2,0.6-2,0.3
		c-1.3-0.5-1.7-2.1-1-3.7c0.8-1.9,2.4-2.6,3.6-2.1c0.9,0.4,1.2,1.1,1.2,1.7l0,0l0.4-0.8L414.3,241.5z M412.3,243.4
		c0.1-0.2,0.1-0.3,0.1-0.5c0.1-0.7-0.2-1.4-0.8-1.7c-0.9-0.4-1.9,0.2-2.5,1.5c-0.5,1.1-0.4,2.3,0.6,2.7c0.6,0.2,1.3,0.1,1.8-0.5
		c0.1-0.2,0.2-0.3,0.3-0.5L412.3,243.4z"/>
	<path d="M415,245.4c-0.6,1.4,0,2.3,0.9,2.7c0.7,0.3,1.1,0.3,1.5,0.3l-0.2,0.8c-0.4,0-1,0-1.9-0.4c-1.6-0.7-2-2.2-1.3-4
		c0.7-1.7,2.2-2.7,3.7-2.1c1.7,0.7,1.4,2.6,1,3.6c-0.1,0.2-0.2,0.4-0.2,0.5L415,245.4z M418,245.9c0.3-0.7,0.5-1.8-0.6-2.2
		c-0.9-0.4-1.8,0.4-2.2,1.1L418,245.9z"/>
	<path d="M420.4,246c0.3-0.6,0.5-1.1,0.6-1.6l0.8,0.4l-0.4,1l0,0c0.5-0.4,1.3-0.7,2.2-0.4c0.7,0.3,1.6,1.2,0.8,3.2L423,252l-0.9-0.4
		l1.4-3.3c0.4-0.9,0.4-1.8-0.5-2.2c-0.6-0.3-1.3,0-1.7,0.5c-0.1,0.1-0.2,0.3-0.3,0.5l-1.5,3.5l-0.9-0.4L420.4,246z"/>
</g>
<g>
	<path d="M694.6,362.6c0.3-1.2,0.8-2.6,1.1-3.6l0,0c-0.6,0.9-1.3,1.8-2,2.8l-2.7,3.5l-0.7-0.3l0.2-4.3c0.1-1.3,0.1-2.4,0.3-3.5l0,0
		c-0.4,1-0.9,2.4-1.4,3.6l-1.4,3.4L687,364l3.4-8l1.2,0.4l-0.1,4.4c0,1.1-0.1,2.1-0.2,3l0,0c0.5-0.8,1.1-1.6,1.7-2.5l2.7-3.5
		l1.2,0.4l-2.4,8.4l-0.9-0.3L694.6,362.6z"/>
	<path d="M700.9,367.1c-0.2,0.6-0.4,1.1-0.5,1.6l-0.8-0.3l0.3-1l0,0c-0.4,0.4-1.2,0.8-2.1,0.5c-0.8-0.3-1.6-1.1-0.9-3.2l1.2-3.4
		l1,0.3l-1.1,3.3c-0.4,1.1-0.4,2,0.5,2.3c0.6,0.2,1.3-0.1,1.6-0.5c0.1-0.1,0.2-0.3,0.3-0.5l1.3-3.6l1,0.3L700.9,367.1z"/>
	<path d="M703.5,364.9c0.2-0.6,0.4-1.1,0.5-1.6l0.8,0.3l-0.3,1l0,0c0.5-0.5,1.2-0.8,2-0.5c0.7,0.3,1.1,0.9,1.1,1.7l0,0
		c0.3-0.3,0.6-0.5,0.9-0.6c0.4-0.2,0.8-0.2,1.3,0c0.7,0.2,1.6,1.1,0.8,3.2l-1.2,3.5l-0.9-0.3l1.2-3.3c0.4-1.1,0.3-1.9-0.5-2.2
		c-0.5-0.2-1.1,0.1-1.5,0.6c-0.1,0.1-0.2,0.3-0.3,0.5l-1.3,3.6l-0.9-0.3l1.2-3.5c0.3-0.9,0.2-1.7-0.5-2c-0.6-0.2-1.2,0.2-1.6,0.7
		c-0.1,0.1-0.2,0.3-0.3,0.5l-1.2,3.6l-0.9-0.3L703.5,364.9z"/>
	<path d="M711.3,371.3c0.2,0.3,0.6,0.7,1.1,0.9c0.7,0.2,1.2,0,1.3-0.5c0.2-0.5,0-0.9-0.6-1.4c-0.8-0.7-1.1-1.5-0.8-2.2
		c0.3-0.9,1.3-1.5,2.4-1.1c0.5,0.2,0.9,0.5,1.2,0.8l-0.5,0.7c-0.2-0.2-0.5-0.5-1-0.7c-0.6-0.2-1,0.1-1.2,0.5
		c-0.2,0.5,0.1,0.8,0.7,1.3c0.8,0.7,1.1,1.4,0.8,2.3c-0.4,1-1.3,1.5-2.6,1.1c-0.6-0.2-1.1-0.5-1.3-0.9L711.3,371.3z"/>
	<path d="M715.3,373.9l2.1-5.9l1,0.3l-2.1,5.9L715.3,373.9z M719,366.8c-0.1,0.4-0.5,0.6-0.8,0.4c-0.3-0.1-0.5-0.5-0.3-0.9
		c0.1-0.4,0.5-0.6,0.8-0.5C719.1,366,719.2,366.4,719,366.8z"/>
	<path d="M724.5,370.5c-0.2,0.4-0.4,0.9-0.6,1.6l-1.2,3.4c-0.5,1.3-1,2.1-1.7,2.4c-0.7,0.4-1.5,0.3-2.2,0c-0.6-0.2-1.3-0.6-1.6-1.1
		l0.5-0.7c0.3,0.4,0.7,0.8,1.4,1c1,0.3,1.9,0,2.4-1.5l0.2-0.7l0,0c-0.5,0.4-1.2,0.7-2,0.4c-1.3-0.5-1.8-2-1.2-3.7
		c0.7-2,2.3-2.7,3.5-2.3c0.9,0.3,1.2,1,1.3,1.6l0,0l0.4-0.9L724.5,370.5z M722.7,372.5c0.1-0.2,0.1-0.3,0.1-0.5
		c0-0.7-0.2-1.4-0.9-1.6c-0.9-0.3-1.9,0.3-2.3,1.7c-0.4,1.2-0.2,2.3,0.8,2.7c0.6,0.2,1.3,0,1.7-0.6c0.1-0.2,0.2-0.4,0.3-0.5
		L722.7,372.5z"/>
	<path d="M726.9,378l0.2-0.8l0,0c-0.5,0.4-1.2,0.6-1.9,0.3c-1.1-0.4-1.3-1.4-1-2.3c0.5-1.4,1.9-1.8,3.9-1.1l0-0.1
		c0.2-0.5,0.4-1.4-0.7-1.8c-0.5-0.2-1.1-0.2-1.5,0l0-0.8c0.5-0.2,1.3-0.1,1.9,0.1c1.6,0.6,1.6,1.9,1.2,3.1l-0.8,2.2
		c-0.2,0.5-0.3,1-0.4,1.4L726.9,378z M727.8,374.9c-1-0.4-2.3-0.6-2.7,0.5c-0.2,0.7,0.1,1.2,0.5,1.3c0.7,0.2,1.3-0.1,1.6-0.5
		c0.1-0.1,0.1-0.2,0.2-0.3L727.8,374.9z"/>
	<path d="M732.8,380.1l0.5-9l1,0.4l-0.3,4.4c-0.1,1.2-0.2,2.3-0.3,3.3l0,0c0.5-0.9,1.2-1.8,1.9-2.8l2.7-3.6l1,0.4l-5.5,7.3
		L732.8,380.1z"/>
	<path d="M739.7,382.5l0.2-0.8l0,0c-0.5,0.4-1.2,0.6-1.9,0.3c-1.1-0.4-1.3-1.4-1-2.3c0.5-1.4,1.9-1.8,3.9-1.1l0-0.1
		c0.2-0.5,0.4-1.4-0.7-1.8c-0.5-0.2-1.1-0.2-1.5,0l0-0.8c0.5-0.2,1.3-0.1,1.9,0.1c1.6,0.6,1.6,1.9,1.2,3.1l-0.8,2.2
		c-0.2,0.5-0.3,1-0.4,1.4L739.7,382.5z M740.7,379.5c-1-0.4-2.3-0.6-2.7,0.5c-0.2,0.7,0.1,1.2,0.5,1.3c0.7,0.2,1.3-0.1,1.6-0.5
		c0.1-0.1,0.1-0.2,0.2-0.3L740.7,379.5z M739.8,374c0.1-0.3,0.5-0.5,0.8-0.4c0.3,0.1,0.4,0.5,0.3,0.8c-0.1,0.3-0.4,0.5-0.8,0.4
		C739.8,374.7,739.6,374.4,739.8,374z M741.8,374.7c0.1-0.3,0.5-0.5,0.8-0.4c0.3,0.1,0.4,0.5,0.3,0.8c-0.1,0.3-0.4,0.5-0.8,0.4
		C741.8,375.4,741.7,375.1,741.8,374.7z"/>
	<path d="M748.7,379c-0.2,0.4-0.4,0.9-0.6,1.6l-1.2,3.4c-0.5,1.4-1,2.1-1.7,2.4c-0.7,0.4-1.5,0.3-2.2,0c-0.6-0.2-1.3-0.6-1.6-1.1
		l0.5-0.7c0.3,0.4,0.7,0.8,1.4,1c1,0.3,1.9,0,2.4-1.5l0.2-0.7l0,0c-0.5,0.4-1.2,0.7-2,0.4c-1.3-0.5-1.8-2-1.2-3.7
		c0.7-2,2.3-2.7,3.5-2.3c0.9,0.3,1.2,1,1.3,1.6l0,0l0.4-0.9L748.7,379z M746.9,381c0.1-0.2,0.1-0.3,0.1-0.5c0-0.7-0.2-1.4-0.9-1.6
		c-0.9-0.3-1.9,0.3-2.3,1.7c-0.4,1.2-0.2,2.3,0.8,2.7c0.6,0.2,1.3,0,1.7-0.6c0.1-0.2,0.2-0.4,0.3-0.5L746.9,381z"/>
	<path d="M749.7,382.9c-0.5,1.5,0.1,2.3,1.1,2.7c0.7,0.2,1.1,0.3,1.6,0.2l-0.1,0.8c-0.4,0.1-1,0-1.9-0.3c-1.6-0.6-2.2-2.1-1.5-3.9
		c0.6-1.8,2.1-2.8,3.6-2.3c1.7,0.6,1.6,2.5,1.2,3.5c-0.1,0.2-0.2,0.4-0.2,0.5L749.7,382.9z M752.7,383.1c0.3-0.7,0.4-1.8-0.7-2.2
		c-1-0.3-1.7,0.5-2.1,1.2L752.7,383.1z"/>
	<path d="M755.1,383.1c0.2-0.6,0.4-1.1,0.5-1.6l0.8,0.3l-0.3,1l0,0c0.5-0.5,1.3-0.8,2.1-0.5c0.7,0.3,1.7,1.1,1,3.2l-1.2,3.5l-1-0.3
		l1.2-3.4c0.3-0.9,0.3-1.9-0.6-2.2c-0.6-0.2-1.3,0.1-1.7,0.6c-0.1,0.1-0.2,0.3-0.2,0.5l-1.2,3.5l-1-0.3L755.1,383.1z"/>
</g>
<path class="st1" d="M247.2,263.3L247.2,263.3c-6,0-10.9-4.9-10.9-10.9v0c0-6,4.9-10.9,10.9-10.9h0c6,0,10.9,4.9,10.9,10.9v0
	C258.1,258.4,253.2,263.3,247.2,263.3z"/>
<g>
	<path d="M215.7,197.1v6.2h7.2v-6.2h1.9V212h-1.9v-7h-7.2v7h-1.9v-14.8H215.7z"/>
	<path d="M233.9,212l-0.2-1.3h-0.1c-0.6,0.8-1.7,1.6-3.3,1.6c-2.2,0-3.3-1.5-3.3-3.1c0-2.6,2.3-4,6.4-4V205c0-0.9-0.2-2.5-2.4-2.5
		c-1,0-2,0.3-2.8,0.8L228,202c0.9-0.6,2.2-0.9,3.5-0.9c3.3,0,4,2.2,4,4.4v4c0,0.9,0,1.8,0.2,2.6H233.9z M228.6,198.3
		c0-0.6,0.5-1.1,1.1-1.1c0.6,0,1.1,0.5,1.1,1.1c0,0.6-0.4,1.1-1.1,1.1C229,199.4,228.6,198.9,228.6,198.3z M233.6,206.5
		c-2.1,0-4.5,0.3-4.5,2.4c0,1.3,0.8,1.8,1.8,1.8c1.4,0,2.3-0.9,2.6-1.8c0.1-0.2,0.1-0.4,0.1-0.6V206.5z M232.7,198.3
		c0-0.6,0.5-1.1,1.1-1.1s1.1,0.5,1.1,1.1c0,0.6-0.4,1.1-1.1,1.1C233.1,199.4,232.7,198.9,232.7,198.3z"/>
	<path d="M238.6,204.6c0-1.3,0-2.3-0.1-3.3h1.7l0.1,2.1h0.1c0.5-1.4,1.6-2.3,2.9-2.3c0.2,0,0.4,0,0.6,0.1v1.8
		c-0.2,0-0.4-0.1-0.7-0.1c-1.4,0-2.3,1-2.6,2.5c0,0.3-0.1,0.6-0.1,0.9v5.7h-1.9V204.6z"/>
	<path d="M256.4,212l-0.2-1.3h-0.1c-0.6,0.8-1.7,1.6-3.3,1.6c-2.2,0-3.3-1.5-3.3-3.1c0-2.6,2.3-4,6.4-4V205c0-0.9-0.2-2.5-2.4-2.5
		c-1,0-2,0.3-2.8,0.8l-0.4-1.3c0.9-0.6,2.2-0.9,3.5-0.9c3.3,0,4,2.2,4,4.4v4c0,0.9,0,1.8,0.2,2.6H256.4z M251,198.3
		c0-0.6,0.5-1.1,1.1-1.1c0.6,0,1.1,0.5,1.1,1.1c0,0.6-0.4,1.1-1.1,1.1C251.5,199.4,251,198.9,251,198.3z M256.1,206.5
		c-2.1,0-4.5,0.3-4.5,2.4c0,1.3,0.8,1.8,1.8,1.8c1.4,0,2.3-0.9,2.6-1.8c0.1-0.2,0.1-0.4,0.1-0.6V206.5z M255.1,198.3
		c0-0.6,0.5-1.1,1.1-1.1s1.1,0.5,1.1,1.1c0,0.6-0.4,1.1-1.1,1.1C255.6,199.4,255.1,198.9,255.1,198.3z"/>
	<path d="M261.1,204.6c0-1.3,0-2.3-0.1-3.3h1.7l0.1,2.1h0.1c0.5-1.4,1.6-2.3,2.9-2.3c0.2,0,0.4,0,0.5,0.1v1.8
		c-0.2,0-0.4-0.1-0.7-0.1c-1.4,0-2.3,1-2.6,2.5c0,0.3-0.1,0.6-0.1,0.9v5.7h-1.9V204.6z"/>
	<path d="M273.7,201.3l2.1,6c0.4,1,0.6,1.8,0.9,2.7h0.1c0.2-0.9,0.6-1.8,0.9-2.7l2.1-6h2l-4.2,10.6h-1.8l-4-10.6H273.7z"/>
	<path d="M285.7,198.3c0,0.7-0.5,1.2-1.2,1.2c-0.7,0-1.2-0.5-1.2-1.2c0-0.7,0.5-1.2,1.2-1.2C285.2,197.1,285.7,197.6,285.7,198.3z
		 M283.5,212v-10.6h1.9V212H283.5z"/>
	<path d="M293,210.8c0-0.8,0.6-1.4,1.3-1.4c0.8,0,1.3,0.6,1.3,1.4c0,0.8-0.5,1.4-1.3,1.4C293.5,212.2,293,211.6,293,210.8z
		 M293.5,207.7l-0.3-10.6h2.1l-0.3,10.6H293.5z"/>
</g>
<line class="st2" x1="238.9" y1="211.7" x2="246.3" y2="242.5"/>
<path class="st0" d="M231.6,233.3c0,0,20.5,24.3,21.2,0.9"/>
<g>
	<path d="M158.9,255.8l-8.5-3l0.6-0.9l4.2,1.5c1.1,0.4,2.2,0.8,3.1,1.2l0,0c-0.7-0.8-1.4-1.7-2.1-2.6l-2.7-3.6l0.6-0.9l5.4,7.3
		L158.9,255.8z"/>
	<path d="M155.1,247.4c-0.3-0.2-0.4-0.6-0.2-0.9c0.2-0.3,0.6-0.3,0.9-0.1c0.3,0.2,0.4,0.6,0.2,0.8
		C155.8,247.6,155.4,247.6,155.1,247.4z M156.4,245.7c-0.3-0.2-0.4-0.6-0.2-0.9c0.2-0.3,0.6-0.3,0.9-0.1c0.3,0.2,0.4,0.6,0.2,0.8
		C157,245.9,156.7,245.9,156.4,245.7z M163.2,249.8l-0.7-0.4l0,0c0.2,0.5,0.2,1.3-0.2,1.9c-0.7,0.9-1.7,0.9-2.5,0.3
		c-1.2-0.9-1.2-2.3,0.1-4.1l-0.1-0.1c-0.4-0.3-1.2-0.7-1.9,0.2c-0.3,0.4-0.5,1-0.5,1.4l-0.7-0.3c0-0.6,0.2-1.2,0.6-1.8
		c1-1.4,2.3-1,3.3-0.2l1.9,1.4c0.4,0.3,0.9,0.6,1.3,0.8L163.2,249.8z M160.6,248.1c-0.7,0.9-1.2,2-0.2,2.7c0.6,0.4,1.1,0.3,1.4-0.1
		c0.4-0.6,0.3-1.3-0.1-1.7c-0.1-0.1-0.2-0.2-0.3-0.3L160.6,248.1z"/>
	<path d="M161,245.1c-0.5-0.4-1-0.7-1.4-1l0.5-0.7l0.9,0.6l0,0c-0.3-0.6-0.4-1.4,0.1-2.2c0.5-0.6,1.6-1.3,3.3,0l3,2.2l-0.6,0.8
		l-2.9-2.1c-0.8-0.6-1.7-0.8-2.3,0c-0.4,0.5-0.3,1.3,0.1,1.8c0.1,0.1,0.2,0.3,0.4,0.4l3,2.2l-0.6,0.8L161,245.1z"/>
	<path d="M161,237.3l0.6-0.8l7.4,5.4l-0.6,0.8L161,237.3z"/>
	<path d="M164.2,234.8c0.3,0.2,0.4,0.6,0.2,0.9c-0.2,0.3-0.6,0.3-0.9,0.1c-0.3-0.2-0.4-0.6-0.2-0.9
		C163.5,234.6,163.9,234.6,164.2,234.8z M170,240.4l-5.1-3.7l0.6-0.8l5.1,3.7L170,240.4z"/>
	<path d="M169.4,230.7c0.4,0.3,0.7,0.6,1.4,1l2.9,2.1c1.2,0.8,1.7,1.6,1.8,2.3c0.1,0.8-0.2,1.5-0.6,2.1c-0.4,0.5-1,1-1.5,1.2
		l-0.6-0.7c0.4-0.1,1-0.5,1.4-1c0.6-0.8,0.6-1.8-0.7-2.7l-0.6-0.4l0,0c0.3,0.6,0.3,1.4-0.2,2.1c-0.8,1.1-2.5,1.2-3.9,0.1
		c-1.7-1.2-2-2.9-1.2-4c0.6-0.8,1.3-0.9,1.9-0.8l0,0l-0.7-0.6L169.4,230.7z M170.8,233c-0.2-0.1-0.3-0.2-0.5-0.3
		c-0.6-0.2-1.4-0.2-1.8,0.4c-0.6,0.8-0.2,1.9,0.9,2.7c1,0.7,2.1,0.9,2.8,0c0.4-0.5,0.3-1.2-0.1-1.8c-0.1-0.2-0.3-0.3-0.4-0.4
		L170.8,233z"/>
	<path d="M177.2,230.5l-0.7-0.4l0,0c0.2,0.5,0.2,1.3-0.2,1.9c-0.7,0.9-1.7,0.9-2.5,0.3c-1.2-0.9-1.2-2.3,0.1-4.1l-0.1-0.1
		c-0.4-0.3-1.2-0.7-1.9,0.2c-0.3,0.4-0.5,1-0.5,1.4l-0.7-0.3c0-0.6,0.2-1.2,0.6-1.8c1-1.4,2.3-1,3.3-0.2l1.9,1.4
		c0.4,0.3,0.9,0.6,1.3,0.8L177.2,230.5z M174.6,228.8c-0.7,0.9-1.2,2-0.2,2.7c0.6,0.4,1.1,0.3,1.4-0.1c0.4-0.6,0.3-1.3-0.1-1.7
		c-0.1-0.1-0.2-0.2-0.3-0.3L174.6,228.8z"/>
	<path d="M180.9,225.5l-8.5-3l0.6-0.9l4.2,1.5c1.1,0.4,2.2,0.8,3.1,1.2l0,0c-0.7-0.8-1.4-1.7-2.1-2.6l-2.7-3.6l0.6-0.9l5.4,7.3
		L180.9,225.5z"/>
	<path d="M177.1,217c-0.3-0.2-0.4-0.6-0.2-0.9c0.2-0.3,0.6-0.3,0.9-0.1c0.3,0.2,0.4,0.6,0.2,0.8C177.8,217.2,177.4,217.2,177.1,217z
		 M178.3,215.3c-0.3-0.2-0.4-0.6-0.2-0.9c0.2-0.3,0.6-0.3,0.9-0.1c0.3,0.2,0.4,0.6,0.2,0.8C179,215.5,178.6,215.5,178.3,215.3z
		 M185.2,219.5l-0.7-0.4l0,0c0.2,0.5,0.2,1.3-0.3,1.9c-0.7,0.9-1.7,0.9-2.5,0.3c-1.2-0.9-1.2-2.3,0.1-4.1l-0.1-0.1
		c-0.4-0.3-1.2-0.7-1.9,0.2c-0.3,0.4-0.5,1-0.5,1.4l-0.7-0.3c0-0.6,0.2-1.2,0.6-1.8c1-1.4,2.3-1,3.3-0.2l1.9,1.4
		c0.4,0.3,0.9,0.6,1.3,0.8L185.2,219.5z M182.6,217.7c-0.7,0.9-1.2,2-0.2,2.7c0.6,0.4,1.1,0.3,1.4-0.1c0.4-0.6,0.3-1.3-0.1-1.7
		c-0.1-0.1-0.2-0.2-0.3-0.3L182.6,217.7z"/>
	<path d="M184.4,209.9c0.4,0.3,0.7,0.6,1.4,1l2.9,2.1c1.2,0.8,1.7,1.6,1.8,2.3c0.1,0.8-0.2,1.5-0.6,2.1c-0.4,0.5-1,1-1.5,1.2
		l-0.6-0.7c0.4-0.1,1-0.5,1.4-1c0.6-0.8,0.6-1.8-0.7-2.7l-0.6-0.4l0,0c0.3,0.6,0.3,1.4-0.2,2.1c-0.8,1.1-2.5,1.2-3.9,0.1
		c-1.7-1.2-2-2.9-1.2-4c0.6-0.8,1.3-0.9,1.9-0.8l0,0l-0.7-0.6L184.4,209.9z M185.8,212.2c-0.2-0.1-0.3-0.2-0.5-0.3
		c-0.6-0.2-1.4-0.2-1.8,0.4c-0.6,0.8-0.2,1.9,0.9,2.7c1,0.7,2.1,0.9,2.8,0c0.4-0.5,0.3-1.2-0.1-1.8c-0.1-0.2-0.3-0.3-0.4-0.4
		L185.8,212.2z"/>
	<path d="M188.4,210.1c1.3,0.9,2.3,0.5,2.9-0.3c0.4-0.6,0.6-1,0.6-1.4l0.8,0.3c-0.1,0.4-0.3,1-0.8,1.7c-1,1.4-2.6,1.5-4.2,0.4
		c-1.5-1.1-2.1-2.8-1.2-4.1c1.1-1.5,2.8-0.8,3.7-0.1c0.2,0.1,0.3,0.3,0.4,0.3L188.4,210.1z M189.5,207.2c-0.6-0.4-1.6-0.9-2.3,0.1
		c-0.6,0.8,0,1.8,0.6,2.3L189.5,207.2z"/>
	<path d="M190.1,204.9c-0.5-0.4-1-0.7-1.4-1l0.5-0.7l0.9,0.6l0,0c-0.3-0.6-0.4-1.4,0.1-2.2c0.5-0.6,1.6-1.3,3.3,0l3,2.2l-0.6,0.8
		l-2.9-2.1c-0.8-0.6-1.7-0.8-2.3,0c-0.4,0.5-0.3,1.3,0.1,1.8c0.1,0.1,0.2,0.3,0.4,0.4l3,2.2l-0.6,0.8L190.1,204.9z"/>
</g>
<path class="st3" d="M494.5,289.8h-15.2c-7.3,0-13.2-6-13.2-13.2v0c0-7.3,6-13.2,13.2-13.2h15.2c7.3,0,13.2,6,13.2,13.2v0
	C507.8,283.8,501.8,289.8,494.5,289.8z"/>
<text transform="matrix(1 0 0 1 474.6753 283.8412)" class="st4 st5">E6</text>
<g>
	<path d="M171.6,62.4c0.6,1,1.6,2.1,3,2.8c2,1,3.7,0.5,4.5-1.1c0.7-1.5,0.3-2.7-1.3-4.5c-2-2.1-2.9-4.2-1.8-6.4
		c1.2-2.5,4.1-3.3,7-1.9c1.5,0.8,2.5,1.7,2.9,2.4l-1.4,1.4c-0.4-0.5-1.1-1.5-2.5-2.2c-2.1-1-3.5-0.1-4,1c-0.7,1.5-0.2,2.7,1.5,4.5
		c2,2.3,2.7,4.2,1.5,6.5c-1.2,2.4-4,3.7-7.5,1.9c-1.5-0.7-2.8-2-3.3-2.9L171.6,62.4z"/>
	<path d="M191.1,57l-1.6,3.2l2.8,1.4l-0.8,1.6l-2.8-1.4l-3,6.1c-0.7,1.4-0.7,2.4,0.4,2.9c0.5,0.3,0.9,0.4,1.2,0.4l-0.7,1.6
		c-0.5,0-1.1-0.2-1.9-0.6c-0.9-0.5-1.5-1.1-1.7-1.9c-0.3-0.9,0-2,0.7-3.3l3.1-6.2l-1.7-0.8l0.8-1.6l1.7,0.8l1.3-2.7L191.1,57z"/>
	<path d="M201.4,73.1c-2.1,4.2-5.7,4.6-8.4,3.3c-2.9-1.5-4.1-4.8-2.3-8.4c1.9-3.8,5.3-4.8,8.3-3.3C202.2,66.3,203.2,69.7,201.4,73.1
		z M192.8,69c-1.2,2.5-0.8,5,1.1,6c1.9,0.9,4.2-0.2,5.5-2.8c1-1.9,1.2-4.8-1.1-6C196,65.1,193.9,66.8,192.8,69z"/>
	<path d="M204.9,72.3c0.7-1.3,1.2-2.5,1.7-3.6l1.7,0.9l-1,2.3l0.1,0c1.2-1.3,2.9-1.6,4.2-1c0.2,0.1,0.4,0.2,0.5,0.3l-1,1.9
		c-0.2-0.1-0.4-0.3-0.6-0.4c-1.4-0.7-2.9-0.1-3.9,1.3c-0.2,0.3-0.4,0.6-0.6,0.9l-3,6l-1.9-1L204.9,72.3z"/>
	<path d="M214.2,86.6l0.6-1.5l-0.1,0c-1,0.6-2.6,0.8-4.1,0c-2.2-1.1-2.5-3.3-1.7-4.9c1.4-2.7,4.4-3.1,8.6-1l0.1-0.2
		c0.5-0.9,1.1-2.7-1.2-3.8c-1-0.5-2.2-0.7-3.2-0.6l0.2-1.6c1.2-0.2,2.7,0.1,4,0.8c3.3,1.6,2.9,4.4,1.8,6.7l-2.1,4.2
		c-0.5,1-0.9,2-1.2,2.8L214.2,86.6z M216.8,80.7c-2.1-1.1-4.7-1.9-5.8,0.3c-0.7,1.3-0.1,2.4,0.9,2.9c1.4,0.7,2.8,0.2,3.6-0.6
		c0.2-0.2,0.3-0.4,0.4-0.6L216.8,80.7z"/>
	<path d="M219.8,86.8c0.4,0.7,1.2,1.6,2.2,2.1c1.4,0.7,2.5,0.3,2.9-0.6c0.5-1,0.2-1.8-1-3.1c-1.6-1.7-1.9-3.3-1.3-4.6
		c0.9-1.8,3.1-2.6,5.4-1.5c1.1,0.5,1.9,1.3,2.3,2l-1.2,1.3c-0.3-0.5-0.9-1.3-1.9-1.8c-1.2-0.6-2.2-0.2-2.6,0.6
		c-0.5,0.9,0,1.7,1.1,2.9c1.5,1.7,2,3.1,1.1,4.8c-1,2-3.2,2.7-5.7,1.4c-1.2-0.6-2.1-1.4-2.7-2.3L219.8,86.8z"/>
	<path d="M237.4,80l-1.6,3.2l2.8,1.4l-0.8,1.6l-2.8-1.4l-3,6.1c-0.7,1.4-0.7,2.4,0.4,2.9c0.5,0.3,0.9,0.4,1.2,0.4l-0.7,1.6
		c-0.5,0-1.1-0.2-1.9-0.6c-0.9-0.5-1.5-1.1-1.7-1.9c-0.3-0.9,0-2,0.7-3.3l3.1-6.2l-1.7-0.8l0.8-1.6l1.7,0.8l1.3-2.7L237.4,80z"/>
	<path d="M241.2,100l0.5-1.5l-0.1,0c-1,0.6-2.6,0.8-4.1,0c-2.2-1.1-2.5-3.3-1.7-4.9c1.4-2.7,4.4-3.1,8.6-1l0.1-0.2
		c0.5-0.9,1.1-2.7-1.2-3.8c-1-0.5-2.2-0.7-3.2-0.6l0.2-1.6c1.2-0.2,2.7,0.1,4,0.8c3.3,1.6,2.9,4.4,1.8,6.7l-2.1,4.2
		c-0.5,1-0.9,2-1.2,2.8L241.2,100z M243.8,94.1c-2.1-1.1-4.7-1.9-5.8,0.3c-0.7,1.3-0.1,2.4,0.9,2.9c1.4,0.7,2.8,0.2,3.6-0.6
		c0.2-0.2,0.3-0.4,0.4-0.6L243.8,94.1z"/>
	<path d="M263.6,90.5l-6.8,13.7c-0.5,1-1,2.2-1.4,3l-1.8-0.9l0.9-2l0,0c-1.2,1-3,1.3-4.8,0.4c-2.6-1.3-3.5-4.6-1.8-8
		c1.8-3.8,5.2-5,7.9-3.7c1.7,0.8,2.4,2.2,2.4,3.3l0,0l3.4-6.8L263.6,90.5z M256.7,99.4c0.1-0.3,0.3-0.6,0.3-0.9
		c0.4-1.5-0.2-3.1-1.7-3.8c-2-1-4.2,0.3-5.4,2.8c-1.1,2.3-1,4.7,1.1,5.8c1.3,0.7,3,0.3,4.1-1c0.2-0.2,0.4-0.5,0.5-0.8L256.7,99.4z"
		/>
	<path d="M262.3,103.9c-1.3,2.8-0.2,4.8,1.8,5.8c1.4,0.7,2.4,0.9,3.3,0.9l-0.4,1.6c-0.9,0-2.2-0.2-3.9-1.1c-3.3-1.7-4.2-4.9-2.5-8.3
		s4.9-5.1,8.1-3.6c3.5,1.8,2.9,5.5,1.8,7.5c-0.2,0.4-0.4,0.7-0.5,0.9L262.3,103.9z M268.8,105.3c0.7-1.3,1.1-3.6-1.1-4.7
		c-2-1-3.8,0.5-4.7,1.8L268.8,105.3z"/>
	<path d="M273.9,106c0.6-1.2,1-2.1,1.4-3.1l1.7,0.9l-0.8,1.9l0,0c1.1-0.8,2.8-1.2,4.6-0.4c1.5,0.7,3.4,2.8,1.4,6.7l-3.4,6.8l-2-1
		l3.2-6.5c0.9-1.8,1-3.7-0.8-4.6c-1.3-0.6-2.8-0.2-3.7,0.8c-0.2,0.2-0.4,0.5-0.6,0.9l-3.4,6.8l-2-1L273.9,106z"/>
</g>
<line class="st6" x1="138.8" y1="40.7" x2="171.9" y2="55.3"/>
<path class="st6" d="M153.5,40.8l-16.6-2c0,0,0.7,11.3,6.6,16.6"/>
</svg>
