<?xml version="1.0" encoding="utf-8"?>
<!-- Generator: Adobe Illustrator 21.1.0, SVG Export Plug-In . SVG Version: 6.00 Build 0)  -->
<svg version="1.1" id="Mumsik_Karta" xmlns="http://www.w3.org/2000/svg" xmlns:xlink="http://www.w3.org/1999/xlink" x="0px"
	 y="0px" viewBox="0 0 786 470" style="enable-background:new 0 0 786 470;" xml:space="preserve">
<style type="text/css">
	.st0{fill:none;stroke:#000000;stroke-miterlimit:10;}
	.st1{fill:#A8A8A8;stroke:#000000;stroke-miterlimit:10;}
	.st2{fill:#B2B2A6;stroke:#000000;stroke-miterlimit:10;}
	.st3{fill:#CE1617;}
	.st4{fill:#F2EDF0;stroke:#000000;stroke-miterlimit:10;}
	.st5{font-family:'MyriadPro-Regular';}
	.st6{font-size:22px;}
	.st7{font-family:'NotoSans';}
	.st8{font-size:20px;}
	.st9{fill:none;stroke:#000000;stroke-width:2;stroke-miterlimit:10;}
</style>
<path class="st0" d="M-7.7,13.4c0,0,203.3,99.3,209.9,101.3s207.9,91.4,207.9,91.4l131.8,55c0,0,82.8,35.8,90.1,37.7
	c7.3,2,157.3,55.2,157.3,55.2l-1,25L579,302.8l-41.1,82.8l-38.3,33.8l-91.4,29.8l-31.1,7.3c0,0-21.2-1.3-34.4-4.6
	c-13.2-3.3-168.9-80.1-168.9-80.1l-42.5-23.9c0,0-2-8.6,3.3-7.3c5.3,1.3,206,101.3,206,101.3s14.6,17.2,55.6,2.6
	c41.1-14.6,81.5-25.8,101.3-39.1c19.8-13.3,31.8-25.2,38.4-37.1c6.6-11.9,33.1-70.9,33.1-70.9L182.3,133.3L-6.4,400.2l-0.7-28.5
	l176.2-245L-7.7,38.6V13.4z"/>
<polygon class="st1" points="195.9,181.6 156.2,241.9 125.7,288.3 322.5,373.1 405.2,408.8 454.9,292.2 370.1,255.8 283.3,218.7 "/>
<path class="st0" d="M490.6,339.3"/>
<line class="st0" x1="156.2" y1="241.9" x2="427.1" y2="358.5"/>
<path class="st0" d="M368,255c0,0-44.3,111.3-44.9,114.7"/>
<line class="st0" x1="283.3" y1="218.7" x2="232.4" y2="335.3"/>
<path class="st2" d="M309.2-2.5c3.3,0,66.2,35.8,76.2,40.4c9.9,4.6,325.8,142.4,335.1,144.4s67.5,21.9,67.5,21.9l1.3,113.9l-3.3,9.3
	l-49.7-17.9c0,0-206.6-77.5-218.5-82.8S15.1-1.1,15.1-1.1"/>
<polygon class="st1" points="788.7,143.2 764.2,166.4 746.9,152.5 733.7,165.1 709.9,139.3 699.3,147.9 562.2,-1.1 671.4,-1.8 
	789.3,129.3 "/>
<path class="st2" d="M789.2,470.6H447.9l7.9-4.5l29.8-13.9l98-2l36.4-92.7l168.9,64.9C789.5,422.4,789.2,470.6,789.2,470.6z"/>
<g>
	<path d="M675.9,331.7l-1.5-0.5l3.5-10.2l-3.6-1.2l0.4-1.3l8.6,2.9l-0.4,1.3l-3.6-1.2L675.9,331.7z"/>
	<path d="M689.4,331.4c-0.5,1.4-1.2,2.4-2.2,2.9c-1,0.6-2.1,0.6-3.4,0.2c-0.8-0.3-1.4-0.7-1.9-1.2s-0.8-1.2-0.9-2
		c-0.1-0.8,0-1.6,0.3-2.5c0.5-1.4,1.2-2.4,2.2-2.9s2.1-0.6,3.4-0.2c1.2,0.4,2,1.1,2.5,2.2S689.9,330.1,689.4,331.4z M682.9,329.2
		c-0.4,1.1-0.4,2-0.2,2.7s0.8,1.2,1.6,1.5s1.5,0.2,2.2-0.2s1.1-1.2,1.5-2.3c0.4-1.1,0.4-2,0.2-2.7s-0.8-1.2-1.6-1.5
		C684.8,326.3,683.6,327.1,682.9,329.2z"/>
	<path d="M697.2,329.1c0.4,0.1,0.7,0.3,1,0.4l-0.6,1.2c-0.3-0.2-0.6-0.3-0.9-0.4c-0.5-0.2-0.9-0.2-1.4-0.1s-0.9,0.4-1.3,0.7
		c-0.4,0.4-0.6,0.8-0.8,1.4l-1.6,4.6l-1.4-0.5l2.9-8.6l1.2,0.4l-0.4,1.6h0.1c0.5-0.5,1.1-0.8,1.6-0.9
		C696.1,328.9,696.6,328.9,697.2,329.1z"/>
	<path d="M700.9,340.3c-1.2-0.4-1.9-1.1-2.3-2.2h-0.1l-0.1,0.3c-0.1,0.4-0.2,0.8-0.3,1.1l-1.2,3.5l-1.4-0.5l4.2-12.5l1.2,0.4
		l-0.2,1.2h0.1c0.5-0.4,1-0.6,1.5-0.6c0.5-0.1,1.1,0,1.6,0.2c1.1,0.4,1.9,1.1,2.2,2.1c0.4,1,0.3,2.2-0.2,3.6s-1.2,2.4-2.1,3
		C703,340.6,702,340.7,700.9,340.3z M703.2,332.5c-0.9-0.3-1.6-0.3-2.1,0.1s-1,1-1.4,2.1l-0.1,0.3c-0.4,1.2-0.5,2.1-0.3,2.7
		c0.2,0.7,0.8,1.1,1.6,1.4c0.7,0.2,1.4,0.1,2-0.3c0.6-0.5,1.1-1.2,1.4-2.2c0.4-1.1,0.4-1.9,0.2-2.6
		C704.5,333.2,704,332.7,703.2,332.5z"/>
	<path d="M712.5,344l0.4-1h-0.1c-0.9,0.7-1.9,0.8-3.1,0.4c-1.1-0.4-1.9-1.1-2.2-2.1c-0.4-1-0.3-2.2,0.2-3.6s1.2-2.4,2.1-3
		c0.9-0.6,1.9-0.7,3-0.3c1.2,0.4,1.9,1.1,2.3,2.2h0.1l0.6-1.1l1.1,0.4l-3,8.8c-0.4,1.2-1,2.1-1.9,2.5c-0.8,0.4-1.9,0.4-3.2-0.1
		c-1.3-0.4-2.2-1-2.9-1.6l0.4-1.3c0.7,0.7,1.7,1.3,3,1.8c0.7,0.2,1.4,0.2,2-0.1c0.6-0.3,1-0.8,1.2-1.6L712.5,344z M710.3,342.2
		c0.9,0.3,1.6,0.3,2.1-0.1c0.6-0.3,1-1,1.4-2.1l0.1-0.3c0.4-1.2,0.5-2.1,0.3-2.7c-0.2-0.7-0.8-1.1-1.7-1.4c-0.7-0.2-1.4-0.1-2,0.3
		s-1.1,1.2-1.4,2.3c-0.4,1.1-0.4,1.9-0.3,2.6C709.1,341.5,709.6,342,710.3,342.2z"/>
	<path d="M722,347.3l0.1-1.3H722c-0.6,0.4-1.2,0.6-1.7,0.7s-1.1,0-1.7-0.3c-0.8-0.3-1.4-0.7-1.8-1.3c-0.3-0.6-0.4-1.3-0.1-2.1
		c0.6-1.8,2.3-2.2,5.1-1.4l1.5,0.4l0.2-0.5c0.2-0.7,0.2-1.2,0.1-1.6c-0.2-0.4-0.6-0.7-1.2-0.9c-0.5-0.2-0.9-0.2-1.4-0.2
		s-0.9,0-1.3,0.1l-0.1-1.2c0.5-0.1,1-0.1,1.6-0.1s1.1,0.1,1.6,0.3c1,0.4,1.7,0.8,2.1,1.5c0.4,0.6,0.4,1.5,0,2.5l-2,5.9L722,347.3z
		 M719.4,345.3c0.8,0.3,1.5,0.3,2.1,0s1-0.8,1.3-1.6l0.3-0.8l-1.3-0.4c-1-0.3-1.8-0.4-2.3-0.3s-0.9,0.5-1.1,1.1
		c-0.2,0.5-0.1,0.8,0.1,1.2C718.5,344.9,718.9,345.2,719.4,345.3z"/>
	<path d="M728.9,348.5c0.2,0.1,0.4,0.1,0.7,0.2c0.3,0,0.5,0.1,0.6,0.1l-0.4,1.1c-0.2,0-0.4,0-0.7,0s-0.6-0.1-0.9-0.2
		c-1.7-0.6-2.2-1.7-1.6-3.5l1.7-5l-1.2-0.4l0.2-0.7l1.4-0.1l1.2-1.6l0.8,0.3l-0.7,2l2.5,0.8l-0.4,1.1l-2.5-0.8l-1.7,5
		c-0.2,0.5-0.2,0.9,0,1.3S728.5,348.4,728.9,348.5z"/>
	<path d="M736.8,352.3l0.1-1.3h-0.1c-0.6,0.4-1.2,0.6-1.7,0.7c-0.5,0-1.1,0-1.7-0.3c-0.8-0.3-1.4-0.7-1.8-1.3
		c-0.3-0.6-0.4-1.3-0.1-2.1c0.6-1.8,2.3-2.2,5.1-1.4l1.5,0.4l0.2-0.5c0.2-0.7,0.2-1.2,0.1-1.6c-0.2-0.4-0.6-0.7-1.2-0.9
		c-0.5-0.2-0.9-0.2-1.4-0.2s-0.9,0-1.3,0.1l-0.1-1.2c0.5-0.1,1-0.1,1.6-0.1s1.1,0.1,1.6,0.3c1,0.4,1.7,0.8,2.1,1.5
		c0.4,0.6,0.4,1.5,0,2.5l-2,5.9L736.8,352.3z M734.2,350.3c0.8,0.3,1.5,0.3,2.1,0s1-0.8,1.3-1.6l0.3-0.8l-1.3-0.4
		c-1-0.3-1.8-0.4-2.3-0.3s-0.9,0.5-1.1,1.1c-0.2,0.5-0.1,0.8,0.1,1.2C733.4,349.9,733.7,350.2,734.2,350.3z"/>
	<path d="M746.4,355.6l1.9-5.5c0.2-0.7,0.3-1.3,0.1-1.7s-0.6-0.8-1.3-1c-0.9-0.3-1.6-0.3-2.2,0.1c-0.6,0.4-1,1.1-1.4,2.2l-1.5,4.5
		l-1.4-0.5l2.9-8.6l1.1,0.4l-0.2,1.3h0.1c0.4-0.3,0.9-0.5,1.5-0.6s1.1,0,1.7,0.2c1.1,0.4,1.8,0.9,2.1,1.6s0.3,1.6,0,2.7l-1.9,5.6
		L746.4,355.6z"/>
</g>
<path class="st3" d="M213.2,221.7L213.2,221.7c-6,0-10.9-4.9-10.9-10.9l0,0c0-6,4.9-10.9,10.9-10.9l0,0c6,0,10.9,4.9,10.9,10.9l0,0
	C224.1,216.8,219.2,221.7,213.2,221.7z"/>
<g>
	<line class="st0" x1="202" y1="167.1" x2="209.2" y2="197"/>
	<path class="st0" d="M193.6,188.7c0,0,20.5,24.3,21.2,0.9"/>
</g>
<path class="st4" d="M453.5,247.2h-15.2c-7.3,0-13.2-6-13.2-13.2l0,0c0-7.3,6-13.2,13.2-13.2h15.2c7.3,0,13.2,6,13.2,13.2l0,0
	C466.8,241.2,460.8,247.2,453.5,247.2z"/>
<text transform="matrix(1 0 0 1 433.6753 241.2812)" class="st5 st6">E6</text>
<g>
	<text transform="matrix(0.9204 0.3909 -0.3909 0.9204 131.5224 30.0892)" class="st7 st8">Källtorp</text>
	<line class="st9" x1="97.8" y1="5.1" x2="130.9" y2="19.7"/>
	<path class="st9" d="M112.5,6.2l-16.6-2c0,0,0.7,11.3,6.6,16.6"/>
</g>
<g>
	<path d="M173.8,166l-4.5-11.9h-0.1c0.1,1,0.1,2.2,0.1,3.7v8.2h-1.6v-13.6h2.5l4.2,11.1h0.1l4.3-11.1h2.5V166h-1.7v-8.3
		c0-0.9,0-2.1,0.1-3.5h-0.1l-4.5,11.9L173.8,166L173.8,166z"/>
	<path d="M186.4,155.8v6.6c0,0.8,0.2,1.4,0.6,1.8c0.4,0.4,0.9,0.6,1.7,0.6c1,0,1.8-0.3,2.3-0.9c0.5-0.6,0.7-1.5,0.7-2.8v-5.3h1.7
		V166H192l-0.2-1.3h-0.1c-0.3,0.5-0.7,0.9-1.3,1.1s-1.2,0.4-1.9,0.4c-1.2,0-2.1-0.3-2.8-0.9c-0.6-0.6-0.9-1.5-0.9-2.8v-6.7
		L186.4,155.8L186.4,155.8z"/>
	<path d="M209.6,166v-6.6c0-1.6-0.7-2.4-2.1-2.4c-0.9,0-1.6,0.3-2.1,0.8c-0.4,0.6-0.7,1.4-0.7,2.5v5.6H203v-6.6
		c0-0.8-0.2-1.4-0.5-1.8c-0.3-0.4-0.9-0.6-1.6-0.6c-0.9,0-1.6,0.3-2.1,0.9c-0.4,0.6-0.7,1.5-0.7,2.8v5.3h-1.7v-10.2h1.3l0.3,1.4h0.1
		c0.3-0.5,0.7-0.9,1.2-1.2s1.1-0.4,1.8-0.4c1.6,0,2.6,0.6,3.1,1.7h0.1c0.3-0.5,0.8-1,1.3-1.3c0.6-0.3,1.2-0.4,1.9-0.4
		c1.2,0,2,0.3,2.6,0.9c0.6,0.6,0.9,1.5,0.9,2.8v6.6h-1.4V166z"/>
	<path d="M221,163.2c0,1-0.4,1.7-1.1,2.2c-0.7,0.5-1.7,0.8-3,0.8s-2.4-0.2-3.2-0.6v-1.5c1.1,0.5,2.2,0.8,3.2,0.8
		c0.8,0,1.5-0.1,1.8-0.4c0.4-0.3,0.6-0.6,0.6-1.1c0-0.4-0.2-0.7-0.6-1c-0.4-0.3-1-0.6-2-1s-1.6-0.7-2-1s-0.7-0.6-0.9-0.9
		c-0.2-0.3-0.3-0.7-0.3-1.2c0-0.8,0.3-1.5,1-2s1.6-0.7,2.8-0.7s2.2,0.2,3.2,0.7l-0.6,1.3c-1-0.4-2-0.6-2.8-0.6
		c-0.7,0-1.2,0.1-1.6,0.3c-0.4,0.2-0.5,0.5-0.5,0.9s0.2,0.7,0.5,0.9s1,0.6,2.2,1c0.8,0.3,1.5,0.6,1.9,0.9c0.4,0.3,0.7,0.6,0.9,0.9
		C220.9,162.3,221,162.7,221,163.2z"/>
	<path d="M223.3,153c0-0.4,0.1-0.6,0.3-0.8s0.4-0.3,0.7-0.3s0.5,0.1,0.7,0.3s0.3,0.4,0.3,0.8c0,0.4-0.1,0.6-0.3,0.8
		s-0.4,0.3-0.7,0.3s-0.5-0.1-0.7-0.3C223.4,153.7,223.3,153.4,223.3,153z M225.1,166h-1.7v-10.2h1.7V166z"/>
	<path d="M230,160.7l0.6-0.7l0.6-0.8l3.3-3.4h1.9l-4.1,4.4l4.4,5.8h-2l-3.5-4.8l-1.2,1v3.7h-1.7v-14.4h1.7v7.5V160.7L230,160.7z"/>
</g>
<g>
	<path d="M300.6,176.4l-1.4-0.6l4.5-9.8l-3.5-1.6l0.6-1.2l8.3,3.8l-0.6,1.2l-3.4-1.6L300.6,176.4z"/>
	<path d="M314.1,177.5c-0.6,1.4-1.4,2.3-2.5,2.7c-1,0.5-2.2,0.4-3.4-0.1c-0.8-0.3-1.3-0.8-1.8-1.4c-0.4-0.6-0.6-1.3-0.7-2.1
		s0.2-1.6,0.6-2.5c0.6-1.3,1.4-2.2,2.4-2.7c1-0.4,2.1-0.4,3.4,0.2c1.2,0.5,1.9,1.3,2.3,2.4C314.9,175,314.7,176.2,314.1,177.5z
		 M307.9,174.7c-0.5,1-0.6,1.9-0.5,2.7c0.2,0.7,0.6,1.3,1.4,1.6c0.8,0.4,1.5,0.4,2.2,0s1.2-1.1,1.7-2.1s0.6-1.9,0.4-2.6
		c-0.2-0.7-0.7-1.3-1.5-1.6C310.1,171.9,308.8,172.6,307.9,174.7z"/>
	<path d="M322.1,176c0.4,0.2,0.7,0.3,0.9,0.5l-0.7,1.2c-0.3-0.2-0.6-0.4-0.9-0.5c-0.4-0.2-0.9-0.3-1.4-0.2s-0.9,0.3-1.3,0.6
		s-0.7,0.8-1,1.3l-2,4.4l-1.4-0.6l3.8-8.3l1.1,0.5l-0.5,1.6h0.1c0.6-0.4,1.1-0.7,1.7-0.7C321.1,175.7,321.6,175.7,322.1,176z"/>
	<path d="M324.7,187.5c-1.1-0.5-1.8-1.3-2-2.4h-0.1l-0.1,0.3c-0.1,0.4-0.3,0.8-0.4,1.1l-1.5,3.4l-1.4-0.6l5.5-12l1.1,0.5l-0.3,1.2
		h0.1c0.5-0.3,1-0.5,1.6-0.5c0.5,0,1,0.1,1.6,0.4c1.1,0.5,1.7,1.2,2,2.3c0.3,1,0.1,2.2-0.5,3.6c-0.6,1.4-1.4,2.3-2.3,2.8
		C326.8,188,325.7,188,324.7,187.5z M327.8,179.9c-0.8-0.4-1.5-0.4-2.1-0.1c-0.6,0.3-1.1,0.9-1.6,1.9L324,182
		c-0.5,1.1-0.7,2-0.5,2.7c0.1,0.7,0.6,1.2,1.5,1.6c0.7,0.3,1.4,0.3,2-0.1c0.6-0.4,1.2-1.1,1.7-2.1s0.6-1.9,0.5-2.6
		C329,180.8,328.5,180.3,327.8,179.9z"/>
	<path d="M335.9,192.3l0.5-1h-0.1c-0.9,0.6-2,0.6-3.1,0.1s-1.7-1.2-2-2.3c-0.3-1-0.1-2.2,0.5-3.6c0.6-1.3,1.4-2.3,2.3-2.7
		c1-0.5,2-0.5,3,0c1.1,0.5,1.8,1.3,2,2.4h0.1l0.7-1l1.1,0.5l-3.8,8.4c-0.5,1.2-1.2,1.9-2.1,2.3c-0.9,0.3-1.9,0.2-3.2-0.4
		c-1.2-0.5-2.1-1.2-2.7-1.9l0.6-1.3c0.6,0.8,1.5,1.5,2.8,2c0.7,0.3,1.4,0.4,2,0.1c0.6-0.2,1.1-0.7,1.4-1.4L335.9,192.3z
		 M333.9,190.4c0.8,0.4,1.5,0.4,2.1,0.2c0.6-0.3,1.1-0.9,1.6-1.9l0.1-0.3c0.5-1.1,0.7-2,0.5-2.7s-0.7-1.2-1.5-1.6
		c-0.7-0.3-1.4-0.3-2,0.1c-0.6,0.4-1.2,1.1-1.6,2.1c-0.5,1-0.6,1.9-0.5,2.6C332.8,189.5,333.2,190,333.9,190.4z"/>
	<path d="M345,196.5l0.3-1.3h-0.1c-0.6,0.3-1.2,0.5-1.7,0.5s-1.1-0.1-1.7-0.4c-0.8-0.4-1.4-0.9-1.6-1.5c-0.3-0.6-0.2-1.3,0.1-2.1
		c0.8-1.7,2.5-2,5.2-0.8l1.4,0.6l0.2-0.5c0.3-0.6,0.4-1.2,0.2-1.6c-0.1-0.4-0.5-0.8-1.1-1c-0.4-0.2-0.9-0.3-1.3-0.4
		c-0.4,0-0.9-0.1-1.3-0.1v-1.2c0.5,0,1.1,0,1.6,0.1c0.6,0.1,1.1,0.3,1.6,0.5c1,0.5,1.6,1,1.9,1.7s0.2,1.5-0.2,2.5l-2.6,5.7
		L345,196.5z M342.6,194.3c0.8,0.3,1.5,0.4,2.1,0.2s1.1-0.7,1.4-1.5l0.3-0.7l-1.2-0.5c-1-0.4-1.7-0.6-2.3-0.5c-0.6,0.1-1,0.4-1.2,1
		c-0.2,0.4-0.2,0.8-0.1,1.2C341.8,193.8,342.1,194.1,342.6,194.3z"/>
	<path d="M351.7,198.4c0.2,0.1,0.4,0.2,0.6,0.2c0.3,0.1,0.4,0.1,0.6,0.1l-0.5,1c-0.2,0-0.4,0-0.7-0.1c-0.3-0.1-0.6-0.2-0.8-0.3
		c-1.6-0.7-2-2-1.3-3.7l2.2-4.8l-1.2-0.5l0.3-0.7h1.4l1.3-1.5l0.8,0.4l-0.9,1.9l2.4,1.1l-0.5,1.1l-2.4-1.1l-2.2,4.8
		c-0.2,0.5-0.3,0.9-0.2,1.3C351.1,198,351.3,198.3,351.7,198.4z"/>
	<path d="M359.2,203l0.3-1.3h-0.1c-0.6,0.3-1.2,0.5-1.7,0.5s-1.1-0.1-1.7-0.4c-0.8-0.4-1.4-0.9-1.6-1.5c-0.3-0.6-0.2-1.3,0.1-2.1
		c0.8-1.7,2.5-2,5.2-0.8l1.4,0.6l0.2-0.5c0.3-0.6,0.4-1.2,0.2-1.6c-0.1-0.4-0.5-0.8-1.1-1c-0.4-0.2-0.9-0.3-1.3-0.4
		c-0.4,0-0.9-0.1-1.3-0.1v-1.2c0.5,0,1.1,0,1.6,0.1c0.6,0.1,1.1,0.3,1.6,0.5c1,0.5,1.6,1,1.9,1.7s0.2,1.5-0.2,2.4l-2.6,5.7
		L359.2,203z M356.9,200.8c0.8,0.3,1.5,0.4,2.1,0.2s1.1-0.7,1.4-1.5l0.3-0.7l-1.2-0.5c-1-0.4-1.7-0.6-2.3-0.5c-0.6,0.1-1,0.4-1.2,1
		c-0.2,0.4-0.2,0.8-0.1,1.2C356.1,200.3,356.4,200.6,356.9,200.8z"/>
	<path d="M368.5,207.2l2.4-5.3c0.3-0.7,0.4-1.2,0.2-1.7c-0.1-0.5-0.5-0.8-1.2-1.1c-0.9-0.4-1.6-0.4-2.2-0.1c-0.6,0.3-1.1,1-1.6,2
		l-2,4.3l-1.4-0.6l3.8-8.3l1.1,0.5l-0.3,1.2h0.1c0.4-0.3,0.9-0.4,1.5-0.5c0.6,0,1.1,0.1,1.7,0.4c1,0.5,1.7,1.1,1.9,1.8
		s0.2,1.6-0.3,2.6l-2.5,5.4L368.5,207.2z"/>
</g>
<g>
	<path d="M61.6,287.3l3.4,2.4l-0.7,1l-8.2-5.8l1.6-2.2c0.7-1,1.4-1.6,2.2-1.8c0.7-0.2,1.5,0,2.3,0.5c1.1,0.8,1.4,1.8,1,3.2l5.2,0.4
		l-0.9,1.2l-4.8-0.4L61.6,287.3z M60.7,286.7l0.9-1.2c0.5-0.7,0.7-1.2,0.6-1.7c0-0.5-0.3-0.9-0.8-1.3s-1-0.5-1.5-0.3
		c-0.5,0.1-0.9,0.6-1.4,1.2l-0.8,1.2L60.7,286.7z"/>
	<path d="M69.9,276.3c1,0.7,1.6,1.5,1.8,2.4c0.2,0.9,0,1.8-0.6,2.7c-0.4,0.6-0.9,1-1.4,1.2c-0.6,0.2-1.2,0.3-1.8,0.2
		s-1.3-0.4-1.9-0.8c-1-0.7-1.6-1.5-1.8-2.4c-0.2-0.9,0-1.8,0.7-2.7c0.6-0.9,1.4-1.3,2.3-1.5C67.9,275.3,68.9,275.6,69.9,276.3z
		 M66.6,280.9c0.8,0.5,1.5,0.8,2.1,0.8s1.1-0.3,1.6-0.9c0.4-0.6,0.5-1.2,0.3-1.8c-0.2-0.6-0.7-1.2-1.4-1.7c-0.8-0.5-1.5-0.8-2.1-0.8
		s-1.1,0.3-1.5,0.9C64.7,278.6,65,279.8,66.6,280.9z"/>
	<path d="M75.2,271.7c0.6,0.4,0.9,0.9,0.9,1.6c0,0.6-0.3,1.4-0.8,2.1c-0.6,0.8-1.2,1.4-1.8,1.6l-0.9-0.6c0.8-0.4,1.4-1,1.9-1.6
		c0.4-0.5,0.5-0.9,0.5-1.3s-0.1-0.6-0.4-0.8c-0.2-0.2-0.5-0.2-0.8-0.1s-0.8,0.4-1.4,0.8s-1.1,0.7-1.4,0.8c-0.3,0.1-0.6,0.2-0.9,0.1
		c-0.3,0-0.6-0.1-0.8-0.3c-0.5-0.4-0.8-0.8-0.8-1.5s0.3-1.3,0.8-2s1.1-1.2,1.8-1.7l0.6,0.9c-0.7,0.4-1.2,0.9-1.6,1.4
		c-0.3,0.4-0.5,0.8-0.5,1.1c0,0.3,0.1,0.5,0.3,0.7c0.2,0.2,0.5,0.2,0.8,0.1s0.8-0.4,1.5-0.9c0.6-0.4,1-0.6,1.3-0.8
		c0.3-0.1,0.6-0.2,0.9-0.1C74.6,271.3,74.9,271.5,75.2,271.7z"/>
	<path d="M79.9,268.9c-0.7,0.9-1.4,1.4-2.4,1.6c-0.9,0.1-1.9-0.2-2.8-0.8c-1-0.7-1.6-1.5-1.8-2.4c-0.2-0.9-0.1-1.8,0.5-2.6
		c0.5-0.8,1.2-1.2,2.1-1.3s1.7,0.1,2.5,0.7l0.6,0.4l-3,4.2c0.7,0.5,1.4,0.7,2,0.6s1.1-0.4,1.5-1c0.2-0.3,0.4-0.7,0.6-1
		s0.3-0.8,0.4-1.3l0.9,0.6c-0.1,0.4-0.2,0.8-0.4,1.2C80.4,268.1,80.2,268.4,79.9,268.9z M74.2,265.2c-0.3,0.5-0.5,1-0.3,1.5
		c0.1,0.5,0.4,1,0.9,1.4L77,265c-0.6-0.4-1.1-0.6-1.6-0.5C74.9,264.5,74.5,264.7,74.2,265.2z"/>
	<path d="M85.5,260.8l-3.9-2.8c-0.5-0.4-0.9-0.5-1.3-0.5s-0.8,0.3-1.1,0.8c-0.4,0.6-0.6,1.2-0.4,1.7c0.1,0.5,0.6,1.1,1.4,1.6
		l3.2,2.3l-0.7,1l-6.1-4.3l0.6-0.8l0.9,0.4v-0.1c-0.2-0.4-0.2-0.8-0.1-1.3s0.3-0.9,0.6-1.3c0.5-0.8,1.1-1.2,1.7-1.3
		c0.6-0.1,1.3,0.1,2.1,0.7l4,2.8L85.5,260.8z"/>
	<path d="M89.2,255.8c-0.6,0.8-1.3,1.2-2.1,1.3c-0.9,0-1.8-0.3-2.8-1s-1.6-1.5-1.9-2.3c-0.2-0.8-0.1-1.7,0.5-2.5
		c0.6-0.8,1.3-1.2,2.2-1.3l0.1-0.1c-0.1,0-0.2-0.1-0.5-0.3s-0.4-0.2-0.5-0.3l-2.4-1.7l0.7-1l8.7,6.2l-0.6,0.8l-0.9-0.4l0,0
		C89.9,254.1,89.8,254.9,89.2,255.8z M88.5,255c0.4-0.6,0.6-1.2,0.4-1.7c-0.1-0.5-0.6-1-1.3-1.6l-0.2-0.1c-0.9-0.6-1.6-0.9-2.1-0.9
		s-1.1,0.3-1.5,1c-0.4,0.5-0.4,1.1-0.2,1.6s0.7,1.1,1.5,1.7c0.8,0.5,1.4,0.8,2,0.8S88.1,255.6,88.5,255z"/>
	<path d="M95.2,247.1l-1-0.4l0,0c0.2,0.6,0.2,1.1,0.1,1.5s-0.3,0.8-0.6,1.3c-0.4,0.6-0.9,1-1.5,1.1c-0.6,0.1-1.1,0-1.7-0.4
		c-1.2-0.9-1.2-2.3,0.1-4.3l0.7-1.1l-0.4-0.3c-0.5-0.3-0.9-0.5-1.2-0.4c-0.4,0-0.7,0.3-1,0.7c-0.2,0.3-0.4,0.7-0.5,1
		c-0.1,0.4-0.2,0.7-0.3,1l-1-0.2c0.1-0.4,0.2-0.9,0.3-1.3s0.4-0.8,0.6-1.2c0.5-0.7,1.1-1.2,1.7-1.3s1.2,0.1,1.9,0.6l4.2,3
		L95.2,247.1z M93,248.6c0.4-0.6,0.6-1.1,0.5-1.6s-0.4-1-0.9-1.4l-0.6-0.4l-0.6,0.9c-0.5,0.7-0.7,1.3-0.8,1.8s0.2,0.8,0.6,1.1
		c0.3,0.2,0.6,0.3,0.9,0.2C92.5,249.2,92.8,249,93,248.6z"/>
	<path d="M97.8,243.4l-0.7,1l-8.7-6.2l0.7-1L97.8,243.4z"/>
	<path d="M100.3,236.3c0.6,0.4,0.9,0.9,0.9,1.6s-0.3,1.4-0.8,2.1c-0.6,0.8-1.2,1.4-1.8,1.7l-0.9-0.6c0.8-0.4,1.4-1,1.9-1.6
		c0.4-0.5,0.5-0.9,0.5-1.3s-0.1-0.6-0.4-0.8c-0.2-0.2-0.5-0.2-0.8-0.1c-0.3,0.1-0.8,0.4-1.4,0.8c-0.6,0.4-1.1,0.7-1.4,0.8
		s-0.6,0.2-0.9,0.1c-0.3,0-0.6-0.1-0.8-0.3c-0.5-0.4-0.8-0.8-0.8-1.5c0-0.6,0.3-1.3,0.8-2s1.1-1.2,1.8-1.7l0.6,0.9
		c-0.7,0.4-1.2,0.9-1.6,1.4c-0.3,0.4-0.5,0.8-0.5,1.1s0.1,0.5,0.3,0.7c0.2,0.2,0.5,0.2,0.8,0.1c0.3-0.1,0.8-0.4,1.5-0.9
		c0.6-0.4,1-0.6,1.3-0.8c0.3-0.1,0.6-0.2,0.9-0.1C99.7,236,100,236.1,100.3,236.3z"/>
	<path d="M105.9,231.9l-0.7-0.6l0,0c0.3,0.8,0.2,1.7-0.4,2.5s-1.3,1.2-2.1,1.3c-0.9,0.1-1.8-0.3-2.8-1s-1.6-1.5-1.9-2.3
		c-0.3-0.9-0.1-1.7,0.5-2.4c0.6-0.8,1.4-1.2,2.3-1.3V228l-0.7-0.7l0.6-0.8l6.2,4.4c0.9,0.6,1.4,1.3,1.5,2.1s-0.1,1.6-0.8,2.5
		c-0.6,0.9-1.3,1.5-2,1.9l-0.9-0.7c0.7-0.4,1.4-1,2.1-1.9c0.4-0.5,0.5-1,0.4-1.6c-0.1-0.5-0.4-1-0.9-1.4L105.9,231.9z M104,233.2
		c0.4-0.6,0.6-1.2,0.5-1.7s-0.6-1-1.3-1.6l-0.2-0.2c-0.8-0.6-1.5-0.9-2.1-0.8c-0.6,0-1.1,0.3-1.5,1c-0.4,0.5-0.4,1.1-0.2,1.6
		c0.2,0.6,0.7,1.1,1.4,1.7c0.8,0.5,1.4,0.8,2,0.8C103.1,234,103.6,233.7,104,233.2z"/>
	<path d="M110.7,225.2l-1-0.4l0,0c0.2,0.6,0.2,1.1,0.1,1.5s-0.3,0.8-0.6,1.3c-0.4,0.6-0.9,1-1.5,1.1s-1.1,0-1.7-0.4
		c-1.2-0.9-1.2-2.3,0.1-4.3l0.7-1.1l-0.4-0.3c-0.5-0.3-0.9-0.5-1.2-0.4c-0.4,0-0.7,0.3-1,0.7c-0.2,0.3-0.4,0.7-0.5,1
		c-0.1,0.4-0.2,0.7-0.3,1l-1-0.2c0.1-0.4,0.2-0.9,0.3-1.3s0.4-0.8,0.6-1.2c0.5-0.7,1.1-1.2,1.7-1.3s1.2,0.1,1.9,0.6l4.2,3
		L110.7,225.2z M108.5,226.8c0.4-0.6,0.6-1.1,0.5-1.6s-0.4-1-0.9-1.4l-0.6-0.4l-0.6,0.9c-0.5,0.7-0.7,1.3-0.8,1.8
		c0,0.5,0.2,0.8,0.6,1.1c0.3,0.2,0.6,0.3,0.9,0.2C108,227.4,108.3,227.2,108.5,226.8z"/>
	<path d="M113.3,220.1c0.1-0.1,0.2-0.3,0.3-0.5c0.1-0.2,0.2-0.3,0.2-0.5l0.8,0.5c0,0.1-0.1,0.3-0.2,0.5c-0.1,0.2-0.2,0.4-0.4,0.6
		c-0.8,1.2-1.9,1.3-3.2,0.5l-3.6-2.5l-0.6,0.9l-0.5-0.3l0.2-1.2l-1-1.3l0.4-0.6l1.4,1l1.3-1.8l0.8,0.6l-1.2,1.7l3.5,2.5
		c0.4,0.3,0.7,0.4,1,0.3C112.8,220.5,113.1,220.4,113.3,220.1z"/>
	<path d="M118.2,214.7l-1-0.4l0,0c0.2,0.6,0.2,1.1,0.1,1.5c-0.1,0.4-0.3,0.8-0.6,1.3c-0.4,0.6-0.9,1-1.5,1.1s-1.1,0-1.7-0.4
		c-1.2-0.9-1.2-2.3,0.1-4.3l0.7-1.1l-0.4-0.3c-0.5-0.3-0.9-0.5-1.2-0.4c-0.4,0-0.7,0.3-1,0.7c-0.2,0.3-0.4,0.7-0.5,1
		c-0.1,0.4-0.2,0.7-0.3,1l-1-0.2c0.1-0.4,0.2-0.9,0.3-1.3s0.4-0.8,0.6-1.2c0.5-0.7,1.1-1.2,1.7-1.3s1.2,0.1,1.9,0.6l4.2,3
		L118.2,214.7z M116,216.3c0.4-0.6,0.6-1.1,0.5-1.6s-0.4-1-0.9-1.4l-0.6-0.4l-0.6,0.9c-0.5,0.7-0.7,1.3-0.8,1.8
		c0,0.5,0.2,0.8,0.6,1.1c0.3,0.2,0.6,0.3,0.9,0.2C115.5,216.9,115.7,216.6,116,216.3z"/>
	<path d="M123,207.9l-3.9-2.8c-0.5-0.4-0.9-0.5-1.3-0.5c-0.4,0-0.8,0.3-1.1,0.8c-0.4,0.6-0.6,1.2-0.5,1.7s0.6,1.1,1.4,1.6l3.2,2.3
		l-0.7,1l-6.1-4.3l0.6-0.8l0.9,0.4v-0.1c-0.2-0.4-0.2-0.8-0.1-1.3c0.1-0.5,0.3-0.9,0.6-1.3c0.5-0.8,1.1-1.2,1.7-1.3s1.3,0.1,2.1,0.7
		l4,2.8L123,207.9z"/>
</g>
<g>
	<path d="M15.2,43.7L13.8,43l5-9.6l-3.3-1.7l0.6-1.2l8.1,4.2l-0.6,1.2l-3.3-1.7L15.2,43.7z"/>
	<path d="M28.6,45.5c-0.7,1.3-1.6,2.2-2.6,2.6c-1.1,0.4-2.2,0.3-3.3-0.3c-0.7-0.4-1.3-0.9-1.7-1.5s-0.6-1.4-0.5-2.1
		c0-0.8,0.3-1.6,0.7-2.5c0.7-1.3,1.5-2.2,2.6-2.6c1-0.4,2.2-0.3,3.3,0.3s1.8,1.4,2.1,2.5C29.5,43,29.3,44.2,28.6,45.5z M22.5,42.3
		c-0.5,1-0.7,1.9-0.6,2.6c0.1,0.7,0.6,1.3,1.4,1.7c0.8,0.4,1.5,0.4,2.2,0.1c0.7-0.3,1.3-1,1.8-2s0.7-1.9,0.6-2.6
		c-0.1-0.7-0.6-1.3-1.4-1.7C24.9,39.7,23.6,40.3,22.5,42.3z"/>
	<path d="M36.7,44.4c0.4,0.2,0.7,0.4,0.9,0.6l-0.8,1.1c-0.3-0.2-0.5-0.4-0.8-0.6c-0.4-0.2-0.9-0.3-1.4-0.3s-0.9,0.2-1.4,0.5
		c-0.4,0.3-0.8,0.7-1,1.2L30,51.2l-1.4-0.5l4.2-8.1l1.1,0.6l-0.6,1.5h0.1c0.6-0.4,1.2-0.6,1.7-0.6C35.6,44,36.2,44.1,36.7,44.4z"/>
	<path d="M38.6,56c-1.1-0.6-1.7-1.4-1.9-2.5h-0.1l-0.1,0.3c-0.2,0.4-0.3,0.8-0.5,1.1l-1.7,3.3L33,57.5l6-11.7l1.1,0.6l-0.4,1.2h0.1
		c0.5-0.3,1.1-0.4,1.6-0.4s1,0.2,1.6,0.4c1.1,0.5,1.7,1.3,1.9,2.4c0.2,1,0,2.2-0.7,3.5s-1.5,2.2-2.5,2.6
		C40.7,56.6,39.6,56.6,38.6,56z M42.2,48.7c-0.8-0.4-1.5-0.5-2.1-0.2s-1.1,0.9-1.7,1.8l-0.1,0.3c-0.6,1.1-0.8,2-0.7,2.7
		s0.6,1.2,1.4,1.7c0.7,0.4,1.3,0.4,2,0s1.3-1,1.8-2s0.7-1.8,0.6-2.6S42.8,49,42.2,48.7z"/>
	<path d="M49.6,61.5l0.6-1h-0.1c-1,0.5-2,0.5-3.1-0.1c-1-0.5-1.7-1.3-1.9-2.4c-0.2-1,0-2.2,0.7-3.5s1.5-2.2,2.5-2.6
		c1-0.4,2-0.4,3,0.1c1.1,0.6,1.7,1.4,1.9,2.5h0.1l0.7-1l1.1,0.5l-4.3,8.2c-0.6,1.2-1.3,1.9-2.2,2.2c-0.9,0.3-2,0.1-3.2-0.5
		s-2.1-1.3-2.6-2l0.6-1.2c0.6,0.8,1.4,1.6,2.7,2.2c0.7,0.4,1.3,0.4,1.9,0.2c0.6-0.2,1.1-0.6,1.5-1.4L49.6,61.5z M47.7,59.4
		c0.8,0.4,1.5,0.5,2.1,0.3c0.6-0.2,1.2-0.9,1.7-1.8l0.2-0.3c0.6-1.1,0.8-2,0.7-2.6c-0.1-0.7-0.6-1.2-1.4-1.7c-0.7-0.4-1.3-0.4-2,0
		c-0.7,0.3-1.2,1-1.8,2c-0.5,1-0.7,1.9-0.7,2.6S47,59,47.7,59.4z"/>
	<path d="M58.4,66.2l0.3-1.3h-0.1c-0.7,0.3-1.2,0.4-1.7,0.4s-1-0.2-1.7-0.5c-0.8-0.4-1.3-0.9-1.5-1.6s-0.2-1.4,0.2-2.1
		c0.9-1.6,2.6-1.8,5.2-0.6l1.4,0.7l0.2-0.5c0.3-0.6,0.4-1.1,0.3-1.6s-0.5-0.8-1-1.1c-0.4-0.2-0.9-0.4-1.3-0.4
		c-0.4-0.1-0.9-0.1-1.3-0.1l0.1-1.2c0.5,0,1.1,0.1,1.6,0.2c0.5,0.1,1.1,0.3,1.5,0.6c1,0.5,1.6,1.1,1.8,1.8c0.3,0.7,0.1,1.5-0.4,2.4
		l-2.6,5.4L58.4,66.2z M56.1,63.8c0.7,0.4,1.4,0.5,2.1,0.3c0.6-0.2,1.1-0.6,1.5-1.4l0.4-0.7l-1.2-0.6c-0.9-0.4-1.7-0.7-2.3-0.6
		c-0.6,0-1,0.3-1.3,0.9c-0.2,0.4-0.3,0.8-0.1,1.2S55.7,63.6,56.1,63.8z"/>
	<path d="M65,68.4c0.2,0.1,0.4,0.2,0.6,0.3c0.2,0.1,0.4,0.1,0.6,0.2l-0.5,1c-0.2,0-0.4-0.1-0.7-0.1c-0.3-0.1-0.6-0.2-0.8-0.3
		c-1.6-0.8-1.9-2.1-1.1-3.7l2.4-4.7l-1.1-0.6l0.3-0.6l1.4,0.1l1.4-1.4l0.8,0.4l-1,1.9l2.3,1.2l-0.5,1L67,61.7l-2.4,4.7
		c-0.2,0.5-0.3,0.9-0.2,1.2C64.4,67.9,64.6,68.2,65,68.4z"/>
	<path d="M72.3,73.4l0.3-1.3h-0.1c-0.7,0.3-1.2,0.4-1.7,0.4s-1-0.2-1.7-0.5c-0.8-0.4-1.3-0.9-1.5-1.6s-0.2-1.4,0.2-2.1
		c0.9-1.6,2.6-1.8,5.2-0.6l1.4,0.7l0.2-0.5c0.3-0.6,0.4-1.1,0.3-1.6c-0.1-0.4-0.5-0.8-1-1.1c-0.4-0.2-0.9-0.4-1.3-0.4
		c-0.4-0.1-0.9-0.1-1.3-0.1l0.1-1.2c0.5,0,1.1,0.1,1.6,0.2s1.1,0.3,1.5,0.6c1,0.5,1.6,1.1,1.8,1.8c0.3,0.7,0.1,1.5-0.4,2.4L73,74
		L72.3,73.4z M70,71c0.7,0.4,1.4,0.5,2.1,0.3s1.1-0.6,1.5-1.4l0.4-0.7l-1.2-0.5c-0.9-0.4-1.7-0.7-2.3-0.6c-0.6,0-1,0.3-1.3,0.9
		c-0.2,0.4-0.3,0.8-0.1,1.2C69.3,70.5,69.6,70.8,70,71z"/>
	<path d="M81.3,78.1l2.7-5.2c0.3-0.7,0.5-1.2,0.3-1.7s-0.5-0.9-1.1-1.2c-0.8-0.4-1.6-0.5-2.2-0.3c-0.6,0.3-1.2,0.9-1.7,1.9l-2.2,4.2
		l-1.3-0.7L80,67l1,0.7l-0.4,1.2h0.1c0.5-0.3,1-0.4,1.5-0.4c0.6,0,1.1,0.2,1.7,0.5c1,0.5,1.6,1.1,1.8,1.9c0.2,0.7,0.1,1.6-0.4,2.6
		l-2.7,5.2L81.3,78.1z"/>
</g>
</svg>
