<?xml version="1.0" encoding="utf-8"?>
<!-- Generator: Adobe Illustrator 21.1.0, SVG Export Plug-In . SVG Version: 6.00 Build 0)  -->
<svg version="1.1" id="Lager_1" xmlns="http://www.w3.org/2000/svg" xmlns:xlink="http://www.w3.org/1999/xlink" x="0px" y="0px"
	 viewBox="0 0 147 50" enable-background="new 0 0 147 50" xml:space="preserve">
<g id="sthlLogga" display="none">
	<g display="inline">
		<g>
			<path fill="#1D1D1B" d="M2.3,3.1L2.3,3.1c0,0.4-0.3,10.9,1.1,17.6C5.5,31.5,11.6,41.3,21.9,50c10.3-8.7,16.3-18.5,18.5-29.3
				c1.3-6.6,1.1-17.2,1.1-17.6"/>
			<path fill="#FFFFFF" d="M26.7,7.9c0.5,0,0.9,0.4,0.9,0.9c0,0.5-0.4,0.9-0.9,0.9c-0.5,0-0.9-0.4-0.9-0.9
				C25.8,8.3,26.2,7.9,26.7,7.9"/>
			<path fill="#FFFFFF" d="M16.6,7.9c0.5,0,0.8,0.4,0.8,0.9c0,0.5-0.4,0.9-0.8,0.9c-0.5,0-0.9-0.4-0.9-0.9
				C15.8,8.3,16.1,7.9,16.6,7.9"/>
			<path fill="#FFFFFF" d="M14.3,30.6c0.7,0,0.8-0.4,0.8-0.5c-0.1,0.1-0.4,0.2-0.9,0.2c-0.4,0-0.9-0.2-1.1-0.9c-0.1-0.4,0-0.8,0-0.8
				s0.5,0.4,0.9,0.4c0.7,0,1.2-0.5,1.2-1.2c0-0.9-0.6-1.9-1.9-3.3c-1.1-1.3-1.7-2.7-1.7-4.1c0-3.3,3.3-5.4,3.3-5.4s0.3,8.2,0.4,9.1
				c0.1,0.9,0.3,2.4,0.8,3.6v2.9c-0.1,0.5-0.7,0.6-1.1,0.6C14.6,31.1,14.2,30.8,14.3,30.6"/>
			<path fill="#FFFFFF" d="M21.6,13.8c-4.9,0-7.3,0.6-7.3,0.6l-0.6-1.3c0,0,3.4-0.6,8-0.6s8,0.6,8,0.6L29,14.4
				C29,14.4,26.5,13.8,21.6,13.8"/>
			<path fill="#FFFFFF" d="M26,37.3h-8.7l-1.4-1.6c0,0,0.9-0.8,0.9-2.3v-4.5c0,0,1.7,2.4,4.9,2.4c2.8,0,4.9-2.4,4.9-2.4v4.5
				c0,1.5,0.9,2.3,0.9,2.3L26,37.3z"/>
			<path fill="#FFFFFF" d="M29.3,29c0.4,0,0.9-0.4,0.9-0.4s0.1,0.4,0,0.8c-0.2,0.7-0.7,0.9-1.1,0.9c-0.4,0-0.7-0.1-0.9-0.2
				c0,0.1,0.1,0.5,0.8,0.5c0,0.3-0.3,0.6-0.7,0.6c-0.4,0-1-0.2-1.1-0.6v-2.9c0.5-1.2,0.7-2.7,0.8-3.6c0.1-0.9,0.4-9.1,0.4-9.1
				s3.3,2.1,3.3,5.4c0,1.4-0.5,2.8-1.7,4.1c-1.3,1.5-1.9,2.4-1.9,3.3C28.2,28.5,28.7,29,29.3,29"/>
			<path fill="#FFFFFF" d="M29.9,12.5c0,0-3.5-0.7-8.3-0.7c-4.8,0-8.3,0.7-8.3,0.7L11,7.9c0,0,0.7-0.5,1.2-0.5c0.9,0,1.1,0.8,1.1,1
				c0,0.2,0,0.4-0.2,0.5l0,0c-0.2,0.2-0.2,0.3-0.2,0.4c0,0.1,0.1,0.3,0.3,0.3c0.2,0,0.3-0.1,0.4-0.4c0.1-0.3,0.4-0.6,0.8-0.6
				c0.4,0,0.8,0.3,0.8,0.8c0,0.5-0.4,0.8-0.8,0.8c-0.2,0-0.3-0.1-0.4-0.1c-0.1,0-0.1,0-0.1,0c0,0-0.1,0-0.1,0.1
				c-0.1,0.1-0.1,0.2-0.1,0.3c0.1,0.4,0.7,0.9,1.5,0.9c1.1,0,1.8-1,1.8-1.7c0.4,1,1.4,1.2,2,1.2c1.8,0,2.1-1.6,2.1-2
				c0-0.3-0.1-0.5-0.2-0.6c0,0,0,0-0.1,0l-0.1,0.1c-0.2,0.2-0.6,0.6-1.2,0.6c-0.6,0-1.3-0.5-1.3-1.3c0-0.8,0.6-1.3,1.3-1.3
				c0.5,0,0.8,0.3,1,0.5c0.1,0.1,0.2,0.2,0.2,0.2c0.1,0,0.2,0,0.2-0.1c0,0,0.1-0.1,0.1-0.2c0,0,0,0,0,0c0-0.1-0.1-0.1-0.2-0.2
				c-0.2-0.2-0.4-0.4-0.4-0.9c0-0.6,0.4-1.1,1.1-1.1c0.7,0,1.1,0.6,1.1,1.1c0,0.5-0.2,0.7-0.4,0.9C22.3,6.9,22.2,7,22.2,7
				c0,0,0,0,0,0c0,0.1,0,0.1,0.1,0.2c0.1,0.1,0.1,0.1,0.2,0.1c0,0,0.1-0.1,0.2-0.2c0.2-0.2,0.5-0.5,1-0.5C24.3,6.7,25,7.1,25,8
				c0,0.8-0.7,1.3-1.3,1.3c-0.6,0-1-0.4-1.2-0.6l-0.1-0.1c-0.1-0.1-0.1,0-0.1,0c-0.1,0-0.2,0.3-0.2,0.6c0,0.4,0.4,2,2.1,2
				c0.7,0,1.6-0.2,2-1.2c0,0.7,0.7,1.7,1.8,1.7c0.8,0,1.4-0.5,1.5-0.9c0-0.1,0-0.2-0.1-0.3c0,0-0.1-0.1-0.1-0.1c0,0-0.1,0-0.1,0
				c-0.1,0-0.2,0.1-0.4,0.1c-0.4,0-0.8-0.3-0.8-0.8c0-0.5,0.4-0.8,0.8-0.8c0.4,0,0.7,0.3,0.8,0.6c0.1,0.3,0.2,0.4,0.4,0.4
				c0.3,0,0.3-0.2,0.3-0.3c0-0.1,0-0.2-0.2-0.4l0,0C30,8.8,30,8.7,30,8.5c0-0.3,0.2-1,1.1-1c0.5,0,1.2,0.5,1.2,0.5L29.9,12.5z"/>
			<path fill="#FFFFFF" d="M27.7,14.9c0,0.6-0.2,6-0.3,7.5c0,0.6-0.2,2.7-0.3,3.5c-0.3,1.7-1.9,4.6-5.4,4.6c-3.5,0-5.1-2.9-5.4-4.6
				c-0.2-0.8-0.3-2.9-0.3-3.5c0-1.5-0.2-6.8-0.3-7.5c0.4-0.1,2.6-0.4,6-0.4C25.1,14.5,27.3,14.8,27.7,14.9"/>
			<path fill="#1D1D1B" d="M25.3,17.4c-0.3,0-0.6,0-0.9,0.3c-0.1,0.1-0.2,0.3,0,0.3c0.4,0,0.6,0.3,0.6,0.6s-0.2,0.4-0.3,0.4
				c-0.2,0-0.3,0.2-0.1,0.2c0.2,0,0.4,0.1,0.7,0.1c1.1,0,1.6-0.3,1.6-0.6C26.9,18.3,26.4,17.4,25.3,17.4"/>
			<path fill="#1D1D1B" d="M18.3,16.3c0.5,0.1,1.2,0.4,1.7,0.9c0.5,0.6,0.8,1.1,0.8,1.5c0.1,0.3,0.2,0.3,0.3,0
				c0.1-0.5,0.2-1.1-0.5-1.9c-0.6-0.7-1.5-0.8-2-0.8c-0.1,0-0.3,0-0.4,0C18,16.1,18,16.2,18.3,16.3"/>
			<path fill="#1D1D1B" d="M23.8,26.3c-0.3-0.1-1.2-0.6-1.4-0.7c-0.1-0.1-0.2-0.1-0.3-0.1h-1.1c-0.1,0-0.2,0-0.3,0.1
				c-0.2,0.1-1.1,0.5-1.4,0.7c-0.2,0.1-0.1,0.2,0,0.2h4.3C23.9,26.5,24,26.3,23.8,26.3"/>
			<path fill="#1D1D1B" d="M20,18.6c0-0.3-0.6-1.1-1.6-1.1c-0.3,0-0.6,0.1-0.9,0.3c-0.1,0.1-0.2,0.3,0,0.3c0.4,0,0.6,0.3,0.6,0.6
				c0,0.3-0.2,0.4-0.3,0.4c-0.2,0-0.3,0.2-0.1,0.2c0.2,0,0.4,0.1,0.7,0.1C19.4,19.2,20,18.8,20,18.6"/>
			<path fill="#1D1D1B" d="M23,27.1h-2.8c-0.1,0-0.2,0.1-0.1,0.2c0.1,0.1,0.7,0.4,0.8,0.5c0.1,0.1,0.1,0.1,0.3,0.1H22
				c0.1,0,0.2,0,0.3-0.1c0.1-0.1,0.7-0.5,0.8-0.5C23.2,27.3,23.2,27.1,23,27.1"/>
			<path fill="#1D1D1B" d="M25.9,16.1c-0.4,0-0.7,0-1.4,0c-1.4,0-2.4,1.2-2.4,2.6v4.1c0,0.2-0.1,0.4-0.3,0.4h-0.3
				c-0.1,0-0.3,0-0.4,0.1c-0.2,0.2-0.7,0.6-0.8,0.7c-0.1,0.1-0.1,0.2,0.2,0.2h2.8c0.2,0,0.2-0.1,0.1-0.2c-0.2-0.2-0.7-0.7-0.7-0.7
				v-4.2c0-1.1,0.2-2.4,2.3-2.4c0.5,0,1,0,1.1,0c0.7,0,1.1-0.7,1.1-0.7S26.4,16.1,25.9,16.1"/>
		</g>
		<g>
			<path fill="#1D1D1B" d="M48.3,16.9c0.6,0.7,1.6,1.3,2.7,1.4c1.2,0.1,2-0.6,2-1.3c0-0.9-0.7-1.4-1.9-1.9l-1-0.4
				c-1.9-0.8-2.8-1.9-2.8-3.4c0-1.9,1.8-3.1,3.7-3.1c1.4,0,2.5,0.5,3.5,1.5l-1.4,1.2c-0.6-0.7-1.2-0.9-2.1-0.9
				c-0.8,0-1.7,0.5-1.7,1.3c0,0.8,0.6,1.3,1.9,1.8l1,0.4c1.7,0.7,2.9,1.7,2.9,3.4c0,1.6-1.3,3.3-4,3.3c-1.8,0-3.2-0.8-4.2-1.9
				L48.3,16.9z"/>
			<path fill="#1D1D1B" d="M61.1,19.9h-1.5c-1.8,0-2.8-1.1-2.8-2.8v-4.6h-1.5v-1.8h1.5V8.5h2v2.2h2.3v1.8h-2.3v4.2
				c0,0.9,0.3,1.4,1.3,1.4h1L61.1,19.9L61.1,19.9z"/>
			<path fill="#1D1D1B" d="M62.1,15.3c0-2.7,2-4.8,4.8-4.8c2.7,0,4.8,2.1,4.8,4.8s-2,4.8-4.8,4.8C64.1,20.1,62.1,18,62.1,15.3
				 M69.6,15.3c0-1.6-1.1-2.8-2.7-2.8c-1.6,0-2.7,1.2-2.7,2.8c0,1.6,1.1,2.8,2.7,2.8C68.4,18.1,69.6,16.9,69.6,15.3"/>
			<g>
				<path fill="#1D1D1B" d="M72.9,15.3c0-2.7,2-4.8,4.8-4.8c1.5,0,2.7,0.6,3.5,1.5l-1.4,1.4c-0.5-0.6-1.2-1-2.1-1
					c-1.6,0-2.7,1.2-2.7,2.8c0,1.6,1.1,2.8,2.7,2.8c1,0,1.7-0.4,2.1-1l1.4,1.4c-0.9,0.9-2.1,1.5-3.5,1.5C75,20.1,72.9,18,72.9,15.3"
					/>
			</g>
			<polygon fill="#1D1D1B" points="84.7,19.9 82.7,19.9 82.7,7 84.7,7 84.7,14.9 88.4,10.7 90.8,10.7 87,15.1 91.3,19.9 88.8,19.9 
				84.7,15.3 			"/>
			<path fill="#1D1D1B" d="M94.3,14.1v5.8h-2V7h2v4.5c0.6-0.7,1.6-1,2.6-1c2.3,0,3.7,1.6,3.7,4v5.4h-2v-5.4c0-1-0.7-2.1-2.1-2.1
				C95.4,12.5,94.6,13,94.3,14.1"/>
			<g>
				<path fill="#1D1D1B" d="M102.3,15.3c0-2.7,2-4.8,4.8-4.8c2.7,0,4.8,2.1,4.8,4.8s-2,4.8-4.8,4.8C104.3,20.1,102.3,18,102.3,15.3
					 M109.8,15.3c0-1.6-1.1-2.8-2.7-2.8c-1.6,0-2.7,1.2-2.7,2.8c0,1.6,1.1,2.8,2.7,2.8C108.6,18.1,109.8,16.9,109.8,15.3"/>
			</g>
			<rect x="113.5" y="7" fill="#1D1D1B" width="2" height="12.9"/>
			<path fill="#1D1D1B" d="M119.5,14.1v5.9h-2v-9.2h2v0.9c0.6-0.7,1.5-1,2.4-1c1.3,0,2.3,0.5,2.9,1.4c0.9-1.1,2.2-1.4,3-1.4
				c2.3,0,3.6,1.6,3.6,4v5.4h-2v-5.4c0-1-0.6-2.1-1.9-2.1c-0.9,0-1.7,0.6-2,1.6c0,0.1,0,0.3,0,0.4v5.4h-2v-5.4c0-1-0.6-2.1-1.9-2.1
				C120.6,12.5,119.9,13,119.5,14.1"/>
			<path fill="#1D1D1B" d="M132.5,18.5l0.2,0.1c1.1,1,2.2,1.5,3.5,1.5c2.2,0,3.3-1.4,3.3-2.7c0-1.2-0.8-2.1-2.4-2.7l-0.8-0.3
				c-1.2-0.5-1.3-0.9-1.3-1.2c0-0.5,0.6-0.8,1.2-0.8c0.6,0,1,0.2,1.5,0.7l0.1,0.1l1.4-1.2l-0.1-0.1c-0.7-0.8-1.6-1.2-2.9-1.2
				c-1.5,0-3.1,1-3.1,2.6c0,1.2,0.8,2.2,2.4,2.8l0.8,0.3c1,0.4,1.4,0.7,1.4,1.3c0,0.4-0.5,0.8-1.3,0.8c0,0-0.1,0-0.1,0
				c-0.7,0-1.5-0.4-2-0.9l-0.1-0.2L132.5,18.5z"/>
			<path fill="#1D1D1B" d="M47.4,33.6l0.2,0.1c1.1,1,2.2,1.5,3.5,1.5c2.2,0,3.3-1.4,3.3-2.7c0-1.2-0.8-2.1-2.4-2.7l-0.8-0.3
				c-1.2-0.5-1.3-0.9-1.3-1.2c0-0.5,0.6-0.8,1.2-0.8c0.6,0,1,0.2,1.5,0.7l0.1,0.1l1.4-1.2l-0.1-0.1c-0.7-0.8-1.6-1.2-2.9-1.2
				c-1.5,0-3.1,1-3.1,2.6c0,1.2,0.8,2.2,2.4,2.8l0.8,0.3c1,0.4,1.4,0.7,1.4,1.3c0,0.4-0.5,0.8-1.3,0.8c0,0-0.1,0-0.1,0
				c-0.7,0-1.5-0.4-2-0.9l-0.1-0.2L47.4,33.6z"/>
			<path fill="#1D1D1B" d="M61.1,35.1h-1.5c-1.8,0-2.8-1.1-2.8-2.8v-4.6h-1.5v-1.8h1.5v-2.2h2v2.2h2.3v1.8h-2.3v4.2
				c0,0.9,0.3,1.4,1.3,1.4h1L61.1,35.1L61.1,35.1z"/>
			<path fill="#1D1D1B" d="M69.3,34.4c-0.6,0.5-1.5,0.8-2.5,0.8c-2.7,0-4.7-2.1-4.7-4.8c0-2.7,2-4.8,4.7-4.8c1,0,1.8,0.3,2.5,0.8
				v-0.7h2v9.2h-2V34.4z M69.3,32.1v-3.1c-0.5-0.8-1.4-1.3-2.5-1.3c-1.6,0-2.7,1.2-2.7,2.8c0,1.6,1.1,2.8,2.7,2.8
				C67.9,33.3,68.8,32.8,69.3,32.1"/>
			<path fill="#1D1D1B" d="M80.2,34.4c-0.6,0.5-1.5,0.8-2.5,0.8c-2.7,0-4.7-2.1-4.7-4.8c0-2.7,2-4.8,4.7-4.8c1,0,1.8,0.3,2.5,0.8
				v-4.3h2v12.9h-2V34.4z M80.2,32.1v-3.1c-0.5-0.8-1.4-1.3-2.5-1.3c-1.6,0-2.7,1.2-2.7,2.8c0,1.6,1.1,2.8,2.7,2.8
				C78.7,33.3,79.7,32.8,80.2,32.1"/>
		</g>
	</g>
</g>
<g>
	<path fill="#FFFFFF" stroke="#FFFFFF" stroke-miterlimit="10" d="M59.3,27.9H47.5V8.3h11.3v3.6h-6.9v4.4h6.4v3.6h-6.4v4.5h7.3V27.9
		z"/>
	<path fill="#FFFFFF" stroke="#FFFFFF" stroke-miterlimit="10" d="M78.7,27.9h-5.6l-5.7-8.5c-0.1-0.2-0.3-0.5-0.5-1.1h-0.1v9.6h-4.4
		V8.3h4.4v9.3h0.1c0.1-0.3,0.3-0.6,0.5-1.1l5.4-8.2h5.3l-6.8,9.4L78.7,27.9z"/>
	<path fill="#FFFFFF" stroke="#FFFFFF" stroke-miterlimit="10" d="M79.7,27.2v-4.4c0.8,0.7,1.7,1.2,2.6,1.5c0.9,0.3,1.9,0.5,2.8,0.5
		c0.6,0,1,0,1.5-0.2c0.4-0.1,0.8-0.2,1-0.4c0.3-0.2,0.5-0.4,0.6-0.6c0.1-0.2,0.2-0.5,0.2-0.8c0-0.4-0.1-0.7-0.3-1s-0.5-0.6-0.9-0.8
		c-0.4-0.3-0.8-0.5-1.3-0.7c-0.5-0.2-1.1-0.5-1.7-0.7c-1.5-0.6-2.7-1.4-3.4-2.3c-0.8-0.9-1.1-2-1.1-3.3c0-1,0.2-1.9,0.6-2.6
		c0.4-0.7,1-1.3,1.7-1.8c0.7-0.5,1.5-0.8,2.5-1c0.9-0.2,1.9-0.3,3-0.3c1,0,1.9,0.1,2.7,0.2c0.8,0.1,1.5,0.3,2.2,0.6v4.1
		c-0.3-0.2-0.7-0.4-1.1-0.6c-0.4-0.2-0.8-0.3-1.2-0.4c-0.4-0.1-0.8-0.2-1.2-0.3c-0.4-0.1-0.8-0.1-1.2-0.1c-0.5,0-1,0-1.4,0.1
		s-0.8,0.2-1,0.4c-0.3,0.2-0.5,0.4-0.7,0.6c-0.2,0.2-0.2,0.5-0.2,0.8c0,0.3,0.1,0.6,0.3,0.9c0.2,0.3,0.4,0.5,0.7,0.7
		c0.3,0.2,0.7,0.5,1.2,0.7c0.5,0.2,1,0.5,1.5,0.7c0.8,0.3,1.5,0.7,2.1,1c0.6,0.4,1.2,0.8,1.6,1.3c0.4,0.5,0.8,1,1,1.6
		c0.2,0.6,0.4,1.3,0.4,2.1c0,1.1-0.2,2-0.6,2.8c-0.4,0.7-1,1.3-1.7,1.8s-1.5,0.8-2.5,1s-1.9,0.3-3,0.3c-1.1,0-2.1-0.1-3.1-0.3
		C81.2,27.8,80.4,27.6,79.7,27.2z"/>
	<path fill="#FFFFFF" stroke="#FFFFFF" stroke-miterlimit="10" d="M104.5,20.2c0,2.6-0.6,4.6-1.8,6s-3,2.1-5.3,2.1
		c-1,0-2-0.2-2.9-0.5v-4.1c0.8,0.6,1.6,0.9,2.5,0.9c2,0,3-1.5,3-4.5V8.3h4.4V20.2z"/>
	<path fill="#FFFFFF" stroke="#FFFFFF" stroke-miterlimit="10" d="M117,28.3c-2.8,0-5.1-0.9-6.9-2.7s-2.7-4.2-2.7-7.1
		c0-3.1,0.9-5.6,2.7-7.5s4.2-2.9,7.1-2.9c2.8,0,5.1,0.9,6.8,2.7s2.6,4.2,2.6,7.2c0,3.1-0.9,5.6-2.7,7.5S119.9,28.3,117,28.3z
		 M114,6.5c-0.6,0-1.1-0.2-1.5-0.5c-0.4-0.4-0.6-0.8-0.6-1.3c0-0.5,0.2-1,0.6-1.3c0.4-0.4,0.9-0.5,1.5-0.5c0.6,0,1.1,0.2,1.5,0.5
		c0.4,0.4,0.6,0.8,0.6,1.3c0,0.6-0.2,1-0.6,1.4C115.1,6.3,114.6,6.5,114,6.5z M117.2,11.8c-1.5,0-2.8,0.6-3.7,1.7s-1.4,2.7-1.4,4.6
		c0,1.9,0.5,3.5,1.4,4.6c0.9,1.1,2.1,1.7,3.6,1.7c1.5,0,2.7-0.5,3.6-1.6c0.9-1.1,1.3-2.6,1.3-4.6c0-2-0.4-3.6-1.3-4.7
		C119.9,12.4,118.7,11.8,117.2,11.8z M120.2,6.5c-0.6,0-1.1-0.2-1.5-0.5s-0.6-0.8-0.6-1.3c0-0.6,0.2-1,0.6-1.4
		c0.4-0.3,0.9-0.5,1.5-0.5s1.1,0.2,1.5,0.5c0.4,0.4,0.6,0.8,0.6,1.3s-0.2,1-0.6,1.3C121.4,6.3,120.9,6.5,120.2,6.5z"/>
	<path fill="#FFFFFF" stroke="#FFFFFF" stroke-miterlimit="10" d="M54.9,40.9h-2.6l-2.7-4c-0.1-0.1-0.1-0.2-0.2-0.5h0v4.5h-2.1v-9.1
		h2.1v4.3h0c0.1-0.1,0.1-0.3,0.3-0.5l2.5-3.8h2.4l-3.2,4.3L54.9,40.9z"/>
	<path fill="#FFFFFF" stroke="#FFFFFF" stroke-miterlimit="10" d="M59,41.1c-1.3,0-2.4-0.4-3.2-1.3s-1.2-2-1.2-3.3
		c0-1.4,0.4-2.6,1.3-3.5s1.9-1.3,3.3-1.3c1.3,0,2.3,0.4,3.2,1.3c0.8,0.9,1.2,2,1.2,3.4c0,1.4-0.4,2.6-1.2,3.5
		C61.4,40.7,60.4,41.1,59,41.1z M59.1,33.4c-0.7,0-1.3,0.3-1.7,0.8c-0.4,0.5-0.6,1.3-0.6,2.1c0,0.9,0.2,1.6,0.6,2.1s1,0.8,1.7,0.8
		c0.7,0,1.3-0.3,1.7-0.8s0.6-1.2,0.6-2.1c0-0.9-0.2-1.7-0.6-2.2C60.4,33.7,59.8,33.4,59.1,33.4z"/>
	<path fill="#FFFFFF" stroke="#FFFFFF" stroke-miterlimit="10" d="M75.4,40.9h-2v-5.4c0-0.6,0-1.2,0.1-1.9h-0.1
		c-0.1,0.6-0.2,1-0.3,1.2L71,40.9h-1.7l-2.2-6.1c-0.1-0.2-0.2-0.6-0.3-1.3h-0.1c0.1,0.9,0.1,1.7,0.1,2.4v5H65v-9.1h3l1.9,5.4
		c0.1,0.4,0.3,0.9,0.3,1.3h0c0.1-0.5,0.2-0.9,0.4-1.3l1.9-5.4h2.9V40.9z"/>
	<path fill="#FFFFFF" stroke="#FFFFFF" stroke-miterlimit="10" d="M87.9,40.9h-2v-5.4c0-0.6,0-1.2,0.1-1.9h-0.1
		c-0.1,0.6-0.2,1-0.3,1.2l-2.1,6.2h-1.7l-2.2-6.1c-0.1-0.2-0.2-0.6-0.3-1.3h-0.1c0.1,0.9,0.1,1.7,0.1,2.4v5h-1.8v-9.1h3l1.9,5.4
		c0.1,0.4,0.3,0.9,0.3,1.3h0c0.1-0.5,0.2-0.9,0.4-1.3l1.9-5.4h2.9V40.9z"/>
	<path fill="#FFFFFF" stroke="#FFFFFF" stroke-miterlimit="10" d="M97.3,37c0,2.7-1.3,4.1-3.8,4.1c-2.5,0-3.7-1.3-3.7-4v-5.3h2.1
		v5.3c0,1.5,0.6,2.2,1.7,2.2c1.1,0,1.7-0.7,1.7-2.1v-5.4h2V37z"/>
	<path fill="#FFFFFF" stroke="#FFFFFF" stroke-miterlimit="10" d="M107.5,40.9h-2.1l-3.8-5.7c-0.2-0.3-0.4-0.6-0.5-0.8h0
		c0,0.3,0.1,0.8,0.1,1.5v5h-1.9v-9.1h2.2l3.6,5.5c0.2,0.3,0.3,0.5,0.5,0.7h0c0-0.2-0.1-0.6-0.1-1.3v-5h1.9V40.9z"/>
</g>
<g id="Sköld_2_">
	<path d="M22,46.5C12.6,38.2,7,29.2,4.9,18.8c-1-5.1-1.1-12.6-1.1-15.8h36.3c0,3.2,0,10.7-1.1,15.8C37,29.2,31.4,38.3,22,46.5z"/>
	<path fill="#74B153" d="M38.6,4.6c0,3.6-0.2,9.7-1,14c-2,9.7-7.1,18.2-15.6,25.9C13.5,36.7,8.4,28.2,6.4,18.5c-0.8-4.1-1-10.1-1-14
		H38.6 M41.6,1.6H2.4c0,0.4-0.3,10.9,1.1,17.6C5.7,30,11.7,39.7,22,48.4C32.3,39.7,38.3,30,40.5,19.1C41.9,12.5,41.6,2,41.6,1.6
		L41.6,1.6z"/>
</g>
<g>
	<path fill="#74B153" d="M31.4,37.3c-0.8-0.9-1.4-1.8-1.8-2.9c0.8,0.6,1.6,1.5,2.1,2.6L31.4,37.3z M29.4,33.9
		c-0.1-0.3-0.2-0.5-0.3-0.8l0-0.1L29,33c-0.8-0.5-1.4-0.7-2-0.8c-0.3-0.1-0.5-0.1-0.8-0.2c-0.3-0.1-0.7-0.6-1-1
		c-0.5-0.6-0.9-1.2-1.4-1.2c-0.2,0-0.4,0.1-0.6,0.4c-0.4-0.1-0.9-0.2-1.6-0.3c-1.9-0.4-5.5-1-5.7-2c0-0.3,0.2-0.9,2.1-1.8l0.4-0.2
		l-0.4-0.2c-0.9-0.4-2-0.7-3.3-0.9c-2.1-0.4-4.2-0.9-5.2-2.2c-0.9-1.2-1.2-2-1.1-2.6c0.2-0.6,0.9-0.9,1.7-1.2c1.1-0.4,2.4-1,2.5-2.5
		c0-0.9-0.8-1.5-1.6-2.2c-0.7-0.6-1.5-1.3-1.6-2.1c-0.1-0.9,0.4-1.1,0.9-1.4c0.4-0.2,0.8-0.4,0.8-0.8c0-0.4,0-0.8,0-1.3
		c0-2,0.1-4.1,1-5.8c0.4-0.1,0.8-0.1,1.3-0.1c1.1,0,2.3,0.2,3.1,0.6c0.5,0.1,1.9,0.6,5.8,3.7l0.2,0.2c0.7,0.5,1.3,0.6,1.6,0.6
		c0.1,0,0.2,0,0.4,0c0.1,0,0.2,0,0.3,0c0.3,0,0.8,0,1.5,2.1c0,0,0,0,0,0c0,0-0.1,0.3-0.2,0.7c-0.8,4.4-0.9,5.3-0.7,5.5l0.1,0.1
		l0.2,0H26l0.1,0c0.7-0.3,1.4-0.5,1.8-0.5c0.5,0,0.8,0.2,1,0.5c0.8,1.5-1.1,5.9-2.4,7.5c-0.1,0.2-0.1,0.4,0,0.5
		c0.1,0.1,0.2,0.2,0.4,0.2c0.1,0,0.3,0,0.5-0.1c1.5,0.6,2,1.7,1.8,3.3l0,0.1l0.1,0.1C30.5,29.2,30.6,31.8,29.4,33.9z"/>
	<path d="M13.6,2.4L13.6,2.4c1.1,0,2.2,0.2,3,0.6l0.1,0l0.1,0c0.3,0,1.6,0.4,5.6,3.6l0.2,0.2c0.8,0.6,1.4,0.7,1.8,0.7
		c0.1,0,0.3,0,0.4,0c0.1,0,0.2,0,0.2,0c0.2,0,0.6,0,1.3,1.8c0,0.1-0.1,0.4-0.1,0.7c-0.9,5-0.8,5.5-0.6,5.7c0.1,0.1,0.3,0.2,0.4,0.2
		l0.1,0l0.1,0c0.7-0.3,1.3-0.5,1.7-0.5c0.5,0,0.6,0.2,0.7,0.4c0.7,1.4-1.2,5.7-2.4,7.3l-0.1,0.1l0,0.1c-0.1,0.3,0,0.5,0.1,0.6
		c0.1,0.1,0.2,0.3,0.6,0.3c0.1,0,0.3,0,0.5-0.1c1.3,0.6,1.8,1.6,1.6,3l0,0.2l0.1,0.2c1.4,2.1,1.2,4.3,0.5,5.9c0-0.1-0.1-0.2-0.1-0.3
		l-0.1-0.2l-0.1-0.1c-0.8-0.5-1.5-0.7-2.1-0.8c-0.3-0.1-0.5-0.1-0.8-0.2c-0.2-0.1-0.6-0.6-0.9-0.9c-0.5-0.7-1-1.3-1.6-1.3
		c0,0,0,0,0,0c-0.2,0-0.4,0.1-0.7,0.3c-0.4-0.1-0.9-0.2-1.4-0.3c-1.6-0.3-5.3-1-5.5-1.8c0-0.1,0-0.6,2-1.6l0.9-0.4l-0.9-0.5
		c-0.9-0.5-2.1-0.7-3.3-1c-2-0.4-4.1-0.8-5.1-2.1c-1-1.4-1.1-2.1-1-2.4c0.1-0.5,0.8-0.7,1.6-1c1.2-0.5,2.6-1,2.6-2.7
		c0-1-0.8-1.7-1.7-2.4c-0.7-0.6-1.5-1.3-1.6-2c-0.1-0.7,0.2-0.9,0.8-1.2c0.4-0.2,0.9-0.5,0.9-1.1c0-0.4,0-0.8,0-1.3
		c0-2,0.1-4,0.9-5.6C12.8,2.4,13.2,2.4,13.6,2.4 M30.6,35.8c0.2,0.2,0.4,0.5,0.6,0.8C30.9,36.3,30.7,36.1,30.6,35.8 M13.6,1.9
		c-0.5,0-1,0.1-1.5,0.2c-1.3,2.2-1.1,5-1.2,7.3c0,0.8-2,0.6-1.7,2.3c0.3,1.8,3.2,2.8,3.2,4.3c-0.1,3.3-6.9,1.3-3.1,6.4
		c1.7,2.3,6.3,2.1,8.6,3.3c-6.6,3.3,3.1,4.1,5.3,4.7c0.1-0.3,0.3-0.4,0.4-0.4c0.7,0,1.6,1.9,2.3,2.2c1,0.3,1.7,0.3,2.8,1
		c0.6,1.8,1.4,3.2,2.6,4.6l0.5-0.7c-0.6-1.2-1.4-2.2-2.4-2.9c1.2-2,1.4-4.7-0.2-7c0.3-1.7-0.4-2.9-2-3.6c-0.2,0.1-0.4,0.1-0.5,0.1
		c-0.2,0-0.2-0.1-0.2-0.3c1.5-2,4.3-8.5,1.2-8.5c-0.5,0-1.1,0.2-1.9,0.5c0,0,0,0,0,0c-0.4,0,0.8-6.1,0.8-6.2c-0.7-2-1.2-2.3-1.8-2.3
		c-0.2,0-0.4,0-0.6,0c-0.4,0-0.9-0.1-1.5-0.6c-0.4-0.3-4.7-3.8-6.1-3.9C16,2.1,14.7,1.9,13.6,1.9L13.6,1.9z"/>
</g>
<g>
	<path d="M14.3,5.5c0.4,1.2,0.7,2.4,1.1,3.6c0.4,1.2,0.8,2.3,1.3,3.5c0.2,0.6,0.5,1.1,0.8,1.6c0.3,0.5,0.7,1,1,1.6
		c0.6,1.1,1.1,2.3,1.6,3.4l1.4,3.4c0.5,1.1,1,2.2,1.7,3.2c0.7,1,1.5,1.9,2.3,2.9l2.4,2.9c-1.9-1.6-3.7-3.4-5.3-5.3
		c-0.9-1-1.4-2.2-2-3.3c-0.5-1.1-1-2.3-1.5-3.4c-0.5-1.1-1-2.3-1.5-3.3c-0.3-0.5-0.6-1-0.9-1.6c-0.3-0.6-0.6-1.2-0.8-1.8
		C15.1,10.4,14.6,8,14.3,5.5z"/>
</g>
<g>
	<path d="M21,13.5c0.1-0.6,0.2-1.1,0.2-1.6c0.1-0.5,0.1-1,0.2-1.5c0-1,0-2-0.4-3.1c0.5,0.3,0.9,0.8,1.1,1.4c0.2,0.6,0.3,1.2,0.3,1.8
		c0,0.6-0.2,1.2-0.4,1.7C21.7,12.6,21.4,13.1,21,13.5z"/>
</g>
<g>
	<path d="M23.7,21.8c0.1-0.6,0.2-1.1,0.2-1.6c0.1-0.5,0.1-1,0.2-1.5c0-1,0-2-0.4-3.1c0.5,0.3,0.9,0.8,1.1,1.4
		c0.2,0.6,0.3,1.2,0.3,1.8c0,0.6-0.2,1.2-0.4,1.7C24.5,20.9,24.2,21.3,23.7,21.8z"/>
</g>
<g>
	<path d="M16.7,16.9c-0.6-0.2-1.1-0.4-1.5-0.8c-0.5-0.4-0.9-0.8-1.2-1.3c-0.3-0.5-0.5-1.1-0.6-1.7c-0.1-0.6,0-1.2,0.3-1.7
		c0.2,1.1,0.6,2,1.1,2.9c0.3,0.4,0.6,0.8,0.9,1.3C16,16,16.4,16.4,16.7,16.9z"/>
</g>
<g>
	<path d="M20.2,24.4c-0.6,0-1.1-0.2-1.7-0.4c-0.5-0.2-1-0.6-1.4-1c-0.4-0.4-0.8-0.9-1-1.5c-0.2-0.6-0.3-1.2-0.1-1.7
		c0.5,1,1.1,1.8,1.8,2.5c0.3,0.4,0.7,0.7,1.1,1C19.4,23.7,19.8,24,20.2,24.4z"/>
</g>
<path fill="none" stroke="#FFFFFF" stroke-width="0.5" stroke-miterlimit="10" d="M20.2,26.8"/>
<g>
	<path fill="#74B153" stroke="#000000" stroke-width="0.5" stroke-miterlimit="10" d="M15,37.8c-0.3,0.1-0.8,0.2-0.8,0.8
		c0-0.2,0.9,0.1,0.9,0.1c-0.5,3.9,6.7,3.6,8.9,3.3c4.3-0.7,3.4-2.1,2.8-5.8c-0.5-3.2-0.5-4.3-4.2-3.8C20.1,32.7,14.7,34.5,15,37.8z"
		/>
	<g>
		<path fill="#74B153" d="M24.8,32.2c0,0,0.4-0.4,0.7-0.4s2.2,0.7,2.4,0.9c0.2,0.2,0.6,0.5,0.8,0.8c0.2,0.3,0.7,1,0.9,1.4
			c0.2,0.4,0.4,1.8,0.3,2c-0.1,0.2-0.2,0.5-0.3,0.7s0.1,1.1-0.1,1.3s-0.4,0.3-0.5,0.5c-0.1,0.2-0.5,0.7-0.5,0.7s-0.2,0.5-0.4,0.6
			s-0.7,0.5-0.9,0.5c-0.2,0-0.9,0.2-1,0.1c0-0.1,0.1-2.4-0.3-4.6C25.7,34.4,24.8,32.2,24.8,32.2z"/>
		<path d="M24.8,32.2c0.2-0.2,0.3-0.4,0.6-0.5c0.3-0.1,0.6,0,0.8,0.1c0.5,0.1,1,0.3,1.5,0.5c0.2,0.1,0.5,0.3,0.7,0.4
			c0.2,0.2,0.4,0.4,0.6,0.6c0.2,0.4,0.5,0.8,0.8,1.3c0.3,0.5,0.3,1.1,0.3,1.6c0,0.3,0,0.5,0,0.8c-0.1,0.3-0.2,0.5-0.3,0.7
			c0,0.2,0,0.5,0,0.7c0,0.1,0,0.3,0,0.4c0,0.1,0,0.1,0,0.2c-0.1,0.1-0.1,0.1-0.2,0.2c-0.1,0.1-0.2,0.2-0.2,0.3c0,0-0.1,0.1-0.1,0.1
			c0,0-0.1,0.1-0.1,0.2c-0.1,0.2-0.3,0.5-0.4,0.6c0,0.1-0.1,0.5-0.5,0.7c-0.2,0.1-0.4,0.3-0.6,0.5c-0.1,0-0.1,0.1-0.3,0.1l-0.1,0
			l-0.4,0.1c-0.1,0-0.1,0-0.2,0c-0.1,0-0.1,0.1-0.4-0.1c-0.1,0-0.2-0.2-0.2-0.3l0-0.1l0-0.1l0-0.2c0-1-0.1-2-0.1-3
			C25.8,36.1,25.3,34.2,24.8,32.2z M24.9,32.2c0.9,1.7,1.6,3.7,1.8,5.8c0.1,1,0.1,2,0.1,3l0,0.2l0,0.1c0,0,0,0,0,0
			c0-0.1-0.1-0.2-0.1-0.2c-0.2-0.1-0.1,0,0,0l0.2,0l0.4-0.1c0.1,0,0.1,0,0.2,0c-0.1,0,0,0,0,0c0.2-0.1,0.4-0.2,0.6-0.4
			c0.2,0,0.2-0.2,0.4-0.5c0.2-0.2,0.4-0.4,0.5-0.6c0-0.1,0.1-0.1,0.1-0.1c0-0.1,0.1-0.1,0.1-0.2c0.1-0.1,0.2-0.2,0.3-0.3
			c0.2-0.1,0.1-0.4,0.1-0.6c0-0.3,0-0.5,0-0.8c0.1-0.3,0.2-0.5,0.2-0.7c0-0.2-0.1-0.5-0.1-0.7c-0.1-0.5-0.2-1-0.5-1.3
			c-0.2-0.4-0.6-0.8-0.8-1.2c-0.1-0.2-0.3-0.3-0.4-0.5c-0.2-0.2-0.3-0.3-0.5-0.4c-0.4-0.2-0.9-0.4-1.3-0.6c-0.2-0.1-0.5-0.2-0.6-0.2
			C25.3,31.9,25,32.1,24.9,32.2z"/>
	</g>
	<g>
		<path d="M29.2,35.1c0.2-0.4,0.5-0.8,0.7-1.2c0.3-0.4,0.5-0.8,0.8-1.1c0.3-0.3,0.4-0.9,0.9-1c0.2,0,0.5-0.1,0.8,0
			c0.3,0.1,0.6,0.2,1,0.4l0.2,0.2c0.1,0.5,0,0.8,0,1.1c-0.1,0.3-0.2,0.5-0.3,0.7c-0.2,0.4-0.8,0.3-1.2,0.5c-0.4,0.1-0.9,0.3-1.3,0.4
			c-0.5,0.1-0.9,0.2-1.4,0.2L29.2,35.1z"/>
	</g>
</g>
<g>
</g>
<g>
</g>
<g>
</g>
<g>
</g>
<g>
</g>
<g>
</g>
<g>
</g>
<g>
</g>
<g>
</g>
<g>
</g>
<g>
</g>
<g>
</g>
<g>
</g>
<g>
</g>
<g>
</g>
</svg>
