<?xml version="1.0" encoding="utf-8"?>
<!-- Generator: Adobe Illustrator 21.1.0, SVG Export Plug-In . SVG Version: 6.00 Build 0)  -->
<svg version="1.1" id="Layer_2" xmlns="http://www.w3.org/2000/svg" xmlns:xlink="http://www.w3.org/1999/xlink" x="0px" y="0px"
	 viewBox="0 0 289 264.2" style="enable-background:new 0 0 289 264.2;" xml:space="preserve">
<style type="text/css">
	.st0{fill:none;stroke:#BC1126;stroke-width:3;stroke-dasharray:12;}
	.st1{fill:none;}
	.st2{fill:#BC1126;stroke:#BC1126;}
	.st3{stroke:#000000;stroke-miterlimit:10;}
	.st4{fill:#FFFFFF;stroke:#000000;stroke-miterlimit:10;}
	.st5{fill:#BC1126;stroke:url(#SVGID_2_);}
	.st6{fill:#FFFFFF;}
</style>
<g>
	<g>
		<path id="SVGID_1_" class="st0" d="M105.7,218c-13.3-38-47.8-57.3-72.8-86C6.1,101.2-9.4,59,26,23.2c33-33.4,90.4-20.5,79.4,23.3
			c6.8-20,41.6-32.3,67-28.8c33.7,4.7,39,38.2,39,38.2c7.1,72.7-71,97.6-71,97.6c-57.8,18.6-94.6,16.3-85.2,96.2
			c0.7,6,2.7,11.3,6.1,16.8"/>
	</g>
</g>
<g>
	<path class="st1" d="M68.2,168.4c-0.5,1-1,2-1.4,3c-1.6,3.5-2.3,7.3-2.4,11.1c0,1.8,0.2,3.5,0.5,5.2c0.5,2.6,1.4,5.1,2.6,7.4
		c0.8,1.5,1.8,2.9,2.9,4.2s2.4,2.5,3.8,3.5c1,0.7,2.1,1.4,3.2,1.9c1.6,0.8,3.2,1.4,4.9,1.9c1.7,0.4,3.4,0.8,5.1,0.9
		c1.5,0.1,3,0.1,4.6-0.1c1.8-0.2,3.5-0.5,5.2-1.1c1.1-0.4,2.2-0.8,3.2-1.3c0.9-0.4,1.7-0.9,2.5-1.4c0.2-0.1,0.3-0.3,0.4-0.4
		c0.4-0.6,0.3-1.2,0-1.8c-1.2-2.8-2.2-5.7-2.9-8.7c-0.6-2.8-0.9-5.6-0.8-8.5c0.2-3.5,1.2-6.7,3.1-9.7c0.8-1.2,1.6-2.4,2.4-3.6
		c0.3-0.4,0.6-0.9,1-1.3c0.2,0.2,0.3,0.4,0.4,0.6c0.8,1.4,1.4,2.8,1.9,4.3c1.4,4.2,1.7,8.5,0.8,12.8c-0.6,2.8-1.7,5.4-3.3,7.8
		c-0.3,0.5-0.3,0.9-0.1,1.4c0.2,0.5,0.6,0.5,0.9,0.1c0.3-0.3,0.5-0.6,0.7-1c1.8-2.8,3.1-5.8,3.9-9.1c0.5-2.1,0.8-4.3,0.8-6.4
		c0-1.2-0.1-2.5-0.3-3.7c-0.3-2.6-1-5-2.1-7.3c-0.4-0.8-0.8-1.6-1.2-2.4c0.4-0.5,0.8-1,1.2-1.5c0.5-0.7,1-1.4,1.4-2.1
		c0.4-0.6,0.3-1.1-0.3-1.6c-0.8-0.6-1.6-0.9-2.6-0.8c-0.3,0-0.6,0.1-0.8,0.3c-0.3,0.2-0.5,0.6-0.8,0.9c-0.3,0.4-0.6,0.7-0.9,1.1
		c-0.4-0.4-0.7-0.7-1.1-1c-1.6-1.6-3.4-2.8-5.3-3.8c-1.8-1-3.8-1.6-5.8-2c-0.4-0.1-0.6-0.3-0.9-0.6c-0.9-0.9-1.9-1.5-3-1.8
		c-0.8-0.2-1.6-0.3-2.3-0.2c-1.1,0.1-2.1,0.6-3,1.2c-0.6,0.5-1.2,1.1-1.6,1.8c-0.1,0.1-0.3,0.3-0.4,0.4c-0.4,0.2-0.8,0.3-1.2,0.5
		c-0.8,0.4-1.7,0.7-2.5,1.2c-1.4,0.8-2.7,1.7-4,2.7c-1.1,0.9-2.1,1.9-3,2.9c-0.2,0.2-0.4,0.3-0.7,0.3c-1.1-0.1-2.1,0.2-3,0.8
		c-0.7,0.5-0.8,1-0.4,1.7C67.5,167.5,67.9,168,68.2,168.4z M208.1,179.6c0.2-0.1,0.3-0.2,0.5-0.3c0.7-0.5,1.2-1.1,1.5-1.9
		c0.7-1.9-0.2-4-2-5c-0.9-0.5-1.9-0.8-3-0.8c-2.3,0-4.6,0-6.8,0c-0.2,0-0.3,0-0.5,0c0,5.9,0,11.8,0,17.7c0.1,0,0.2,0,0.3,0
		c2.7,0,5.4,0,8.1,0c1,0,2.1-0.3,3-0.8c0.5-0.3,0.9-0.7,1.3-1.1c0.7-0.7,1-1.7,1.1-2.6c0.3-2.1-0.7-4.1-2.7-5
		C208.5,179.9,208.3,179.7,208.1,179.6z M125.6,182.3c0.6-0.1,1.2-0.1,1.8,0.1c0.3,0.1,0.6,0.3,0.8,0.5c0.3,0.3,0.5,0.6,0.7,0.9
		c0.5,1,1,2.1,1.4,3.1c0.4,0.8,0.7,1.7,1.1,2.5c1.5,0,3,0,4.5,0c0-0.1-0.1-0.2-0.1-0.3c-0.8-1.8-1.5-3.6-2.4-5.4
		c-0.4-0.9-0.9-1.7-1.7-2.3c-0.1-0.1-0.2-0.2-0.2-0.2c0.5-0.4,1.1-0.8,1.6-1.3c1.5-1.7,1.4-4.2,0.3-5.8c-1-1.6-2.5-2.3-4.3-2.3
		c-2.4,0-4.8,0-7.2,0c-0.1,0-0.3,0-0.4,0c0,0.2,0,0.3,0,0.4c0,5.7,0,11.4,0,17.2l0,0c0,0,0,0,0.1,0.1c1.3,0,2.6,0,4,0
		C125.6,187,125.6,184.6,125.6,182.3z M162.5,189.4c0-5.9,0-11.8,0-17.7c-1.2,0-2.3,0-3.5,0c0,2.1,0,4.1,0,6.2
		c-0.2-0.1-0.4-0.2-0.6-0.2c-0.6-0.2-1.1-0.4-1.8-0.5c-2.4-0.3-4.7,1.1-5.5,3.4c-0.7,1.8-0.7,3.7,0,5.5c0.7,1.9,2,3.1,4.1,3.4
		c1,0.1,2,0,2.9-0.5c0.3-0.2,0.5-0.3,0.8-0.5c0,0.3,0,0.6,0.1,0.8C160.2,189.4,161.3,189.4,162.5,189.4z M172.9,171.7
		c0,2.1,0,4.1,0,6.2c-0.4-0.1-0.7-0.2-1-0.4c-1.3-0.5-2.5-0.5-3.8,0c-1.5,0.6-2.5,1.7-3,3.1c-0.7,1.8-0.7,3.6,0,5.4
		c0.7,1.9,2,3.2,4.1,3.4c1,0.1,2,0,2.9-0.6c0.3-0.2,0.5-0.3,0.8-0.5c0,0.3,0,0.6,0.1,0.8c0.8,0.1,3.1,0.1,3.4,0c0-0.1,0-0.1,0-0.2
		c0-5.7,0-11.4,0-17.1c0-0.1,0-0.1,0-0.2l0,0l0,0C175.2,171.7,174.1,171.7,172.9,171.7z M221.5,177.9c-0.2-0.1-0.3-0.2-0.5-0.2
		c-1.3-0.6-2.6-0.7-4-0.3c-1.6,0.5-2.7,1.7-3.3,3.2c-0.7,1.8-0.7,3.7,0,5.5c0.7,1.9,2,3.2,4.2,3.5c1.3,0.2,2.4-0.1,3.4-1
		c0.2-0.1,0.3-0.3,0.5-0.4c0.6,0.8,1.2,1.1,1.9,1.4c0.2,0.1,0.4,0,0.6-0.1c0.5-0.4,1-0.7,1.5-1.1c0.2-0.2,0.4-0.3,0.7-0.5
		c-1-0.4-1.4-1.2-1.4-2.2c0-0.3,0-0.5,0-0.8c0-2.3,0-4.6,0-6.9c0-0.2,0-0.4,0-0.6c-1.2,0-2.3,0-3.4,0
		C221.5,177.6,221.5,177.7,221.5,177.9z M187.1,188.2c0.5,0.7,1.1,1.1,1.9,1.4c0.2,0.1,0.4,0,0.6-0.1c0.5-0.4,1-0.7,1.5-1.1
		c0.2-0.2,0.4-0.3,0.7-0.5c-0.9-0.4-1.3-1.1-1.4-1.9c0-0.3,0-0.7,0-1c0-2.3,0-4.6,0-6.9c0-0.2,0-0.4,0-0.6c-1.2,0-2.3,0-3.4,0
		c0,0.2-0.1,0.3-0.1,0.5c-0.2-0.1-0.3-0.1-0.5-0.2c-1.3-0.6-2.6-0.7-3.9-0.3c-1.7,0.5-2.7,1.6-3.3,3.2c-0.7,1.8-0.7,3.7,0,5.5
		c0.7,1.9,2,3.2,4.2,3.5c1.2,0.2,2.4-0.1,3.4-0.9C186.8,188.5,186.9,188.4,187.1,188.2z M149.8,187.9c-1-0.4-1.3-1.1-1.4-2.1
		c0-0.3,0-0.6,0-0.8c0-2.3,0-4.7,0-7c0-0.2,0-0.4,0-0.6c-1.2,0-2.3,0-3.4,0c0,0.2-0.1,0.3-0.1,0.5c-0.2-0.1-0.3-0.1-0.5-0.2
		c-1.3-0.6-2.6-0.7-3.9-0.3c-1.6,0.5-2.7,1.6-3.3,3.1c-0.8,2.1-0.8,4.2,0.2,6.2c0.8,1.6,2.1,2.7,3.9,2.9c1.3,0.1,2.4-0.1,3.4-0.9
		c0.2-0.2,0.4-0.3,0.5-0.5c0.1,0,0.1,0,0.1,0c0,0.1,0.1,0.1,0.1,0.2c0.5,0.5,1,0.9,1.7,1.1c0.2,0.1,0.4,0,0.6-0.1
		C148.3,188.9,149,188.4,149.8,187.9z M239.2,177.4c0,4,0,8,0,12c1.2,0,2.3,0,3.5,0c0-0.2,0-0.4,0-0.6c0-2.1,0-4.2,0-6.4
		c0-0.7,0.2-1.4,0.7-1.8c0.6-0.6,1.3-0.7,2.1-0.5c0.7,0.2,1.1,0.7,1.2,1.4c0.1,0.5,0.2,1,0.2,1.5c0,2,0,3.9,0,5.9c0,0.2,0,0.4,0,0.6
		c1.2,0,2.3,0,3.5,0c0-0.2,0-0.4,0-0.6c0-1.1,0-2.3,0-3.4c0-1.4,0-2.8,0-4.1c-0.1-1.7-0.8-3-2.4-3.7c-1.4-0.6-3.3-0.3-4.4,0.8
		c-0.2,0.2-0.5,0.5-0.8,0.8c0-0.6,0-1.1,0-1.7C241.5,177.4,240.4,177.4,239.2,177.4z M269.3,189.4c0-0.2,0-0.4,0-0.6
		c0-2.1,0-4.2,0-6.4c0-0.7,0.2-1.4,0.8-1.9c0.6-0.5,1.3-0.7,2-0.5c0.7,0.1,1.1,0.7,1.2,1.3c0.1,0.5,0.2,1,0.2,1.6c0,2,0,4,0,5.9
		c0,0.2,0,0.4,0,0.5c0.8,0.1,3.1,0.1,3.5,0c0-0.2,0-0.4,0-0.6c0-2.2,0-4.3,0-6.5c0-0.4,0-0.8,0-1.2c-0.1-1.2-0.5-2.3-1.5-3.1
		c-1.6-1.2-3.9-1.2-5.4,0.3c-0.2,0.2-0.5,0.5-0.8,0.8c0-0.7,0-1.2,0-1.7c-1.2,0-2.3,0-3.4,0c0,0.1,0,0.2,0,0.2c0,3.8,0,7.6,0,11.4
		c0,0.1,0,0.2,0,0.3l0,0l0,0C267,189.4,268.1,189.4,269.3,189.4z M263.8,184c0.1-1.3-0.1-2.4-0.6-3.5c-0.8-1.8-2.1-2.8-4-3.2
		c-1.4-0.3-2.7-0.1-4,0.5c-0.9,0.5-1.6,1.1-2.1,2c-1,1.6-1.2,3.3-0.8,5.1c0.3,1.5,1,2.7,2.3,3.6c0.8,0.5,1.7,0.9,2.6,1
		c0.7,0.1,1.3,0.1,2,0.1c1.3,0,2.5-0.4,3.6-1c0.5-0.3,0.9-0.6,0.8-1.3c-0.1-0.3,0-0.7,0-1c0-0.1,0-0.3,0-0.5
		c-0.2,0.2-0.4,0.3-0.5,0.4c-0.5,0.3-1.1,0.7-1.6,0.9c-0.9,0.4-1.9,0.4-2.9,0.3c-1-0.2-1.8-0.7-2.3-1.7c-0.2-0.5-0.4-1-0.4-1.6
		c1.3,0,2.7,0,4,0C261.1,184,262.4,184,263.8,184z M231.8,189.4c0-0.2,0-0.4,0-0.6c0-1.5,0-3,0-4.5c0-0.5,0.1-1.1,0.2-1.6
		c0.3-1.2,1.1-1.8,2.3-2c0.8-0.1,1.4,0.2,2.1,0.6c0.1,0.1,0.2,0.1,0.4,0.2c0.3-1.1,0.6-2.1,0.9-3c0.1-0.2,0-0.4-0.2-0.5
		c-0.3-0.2-0.6-0.4-0.9-0.6c-0.8-0.5-1.6-0.4-2.5,0s-1.6,1.1-2,2c-0.1,0.1-0.1,0.3-0.2,0.4h-0.1c0-0.8,0-1.6,0-2.4
		c-1.2,0-2.3,0-3.4,0c-0.1,0.7-0.1,11.6,0,12C229.5,189.4,230.6,189.4,231.8,189.4z M138.9,174c0,1,0.7,1.7,1.6,1.7
		c0.9,0,1.6-0.7,1.6-1.7s-0.7-1.7-1.6-1.7C139.5,172.3,138.9,173,138.9,174z M143.8,174c0,1,0.7,1.7,1.6,1.7c1,0,1.6-0.7,1.6-1.7
		s-0.7-1.7-1.6-1.7C144.4,172.3,143.7,173.1,143.8,174z"/>
	<path class="st2" d="M68.2,168.4c-0.3-0.5-0.7-0.9-1-1.4c-0.4-0.7-0.3-1.3,0.4-1.7c0.9-0.6,1.9-0.9,3-0.8c0.3,0,0.5-0.1,0.7-0.3
		c0.9-1,1.9-2,3-2.9c1.2-1,2.6-1.9,4-2.7c0.8-0.4,1.7-0.8,2.5-1.2c0.4-0.2,0.8-0.3,1.2-0.5c0.2-0.1,0.3-0.2,0.4-0.4
		c0.5-0.7,1-1.3,1.6-1.8c0.9-0.7,1.8-1.1,3-1.2c0.8-0.1,1.6-0.1,2.3,0.2c1.2,0.4,2.2,1,3,1.8c0.3,0.3,0.5,0.5,0.9,0.6
		c2,0.4,4,1,5.8,2c2,1,3.8,2.3,5.3,3.8c0.3,0.3,0.7,0.7,1.1,1c0.3-0.4,0.6-0.7,0.9-1.1c0.3-0.3,0.5-0.6,0.8-0.9
		c0.2-0.2,0.5-0.3,0.8-0.3c1-0.1,1.8,0.2,2.6,0.8c0.6,0.5,0.7,1,0.3,1.6c-0.5,0.7-0.9,1.4-1.4,2.1c-0.4,0.5-0.8,1-1.2,1.5
		c0.4,0.8,0.8,1.6,1.2,2.4c1.1,2.3,1.8,4.8,2.1,7.3c0.1,1.2,0.3,2.5,0.3,3.7c0,2.2-0.3,4.3-0.8,6.4c-0.8,3.3-2.1,6.3-3.9,9.1
		c-0.2,0.3-0.4,0.7-0.7,1c-0.3,0.4-0.7,0.3-0.9-0.1c-0.2-0.5-0.2-0.9,0.1-1.4c1.6-2.4,2.7-5,3.3-7.8c0.9-4.3,0.6-8.6-0.8-12.8
		c-0.5-1.5-1.1-2.9-1.9-4.3c-0.1-0.2-0.2-0.3-0.4-0.6c-0.4,0.5-0.7,0.9-1,1.3c-0.8,1.2-1.6,2.4-2.4,3.6c-1.9,3-2.9,6.2-3.1,9.7
		c-0.1,2.9,0.2,5.7,0.8,8.5c0.7,3,1.7,5.8,2.9,8.7c0.3,0.6,0.4,1.2,0,1.8c-0.1,0.2-0.3,0.3-0.4,0.4c-0.8,0.5-1.6,1-2.5,1.4
		c-1,0.5-2.1,0.9-3.2,1.3c-1.7,0.6-3.4,0.9-5.2,1.1c-1.5,0.2-3,0.2-4.6,0.1c-1.7-0.1-3.4-0.4-5.1-0.9c-1.7-0.4-3.4-1.1-4.9-1.9
		c-1.1-0.6-2.2-1.2-3.2-1.9c-1.4-1-2.7-2.2-3.8-3.5c-1.1-1.3-2.1-2.7-2.9-4.2c-1.3-2.3-2.1-4.8-2.6-7.4c-0.3-1.7-0.5-3.5-0.5-5.2
		c0-3.9,0.8-7.6,2.4-11.1C67.2,170.4,67.7,169.4,68.2,168.4z M79.1,201.5c0-0.1,0-0.2,0-0.2c-0.1-2-0.2-3.9-0.2-5.9
		c0.1-3,0.5-6,0.9-9c0.2-1.1,0.3-2.1,0.3-3.2c0-0.6-0.2-1.2-0.5-1.7c-0.4-0.7-0.9-1.3-1.4-1.9c-1.6-1.8-3.2-3.6-4.8-5.4
		c-1.2-1.4-2.5-2.7-3.8-4.1c-0.1-0.1-0.2-0.2-0.4-0.4c-3,6.2-3.3,12.5-1.1,18.9C70.5,195.3,75.5,199.9,79.1,201.5z M72.2,165.5
		c0.1,0.1,0.1,0.2,0.2,0.3c0.9,0.9,1.9,1.8,2.9,2.7c0.8,0.7,1.6,1.3,2.4,1.9c1,0.8,2.1,1.5,3.3,2.1c0.8,0.4,1.6,0.7,2.5,1.1
		c2,0.7,4,1.1,6.2,0.8c1.6-0.2,3.1-0.7,4.6-1.4s2.8-1.6,4.1-2.6c1.4-1.1,2.7-2.3,3.9-3.5c0.3-0.3,0.6-0.6,0.9-0.9
		c-1.1-1.7-6.3-5.4-7.9-5.5c0.1,0.9,0.3,1.8,0.3,2.7c0.1,2.8-0.6,5.3-2.6,7.4c-0.8,0.9-1.8,1.4-3,1.7c-1.6,0.4-3.2,0-4.6-0.8
		c-0.4-0.3-0.8-0.6-1.2-1c-1.1-0.9-1.8-2.1-2.3-3.4c-0.8-1.8-1-3.8-0.8-5.8c0.1-0.5,0.1-1,0.2-1.6C77.6,160.7,74.7,162.7,72.2,165.5
		z"/>
	<path class="st3" d="M208.1,179.6c0.3,0.1,0.4,0.2,0.6,0.3c2.1,0.8,3,2.9,2.7,5c-0.1,1-0.4,1.9-1.1,2.6c-0.4,0.4-0.8,0.8-1.3,1.1
		c-0.9,0.5-1.9,0.8-3,0.8c-2.7,0-5.4,0-8.1,0c-0.1,0-0.2,0-0.3,0c0-5.9,0-11.8,0-17.7c0.2,0,0.4,0,0.5,0c2.3,0,4.6,0,6.8,0
		c1.1,0,2.1,0.3,3,0.8c1.8,1,2.7,3.1,2,5c-0.3,0.8-0.8,1.4-1.5,1.9C208.4,179.4,208.3,179.5,208.1,179.6z M201.7,182
		c0,1.4,0,2.8,0,4.1c1,0,2,0,3,0c0.4,0,0.9-0.1,1.3-0.3c0.7-0.2,1-0.7,1.1-1.4c0-0.2,0-0.5,0-0.7c0-0.6-0.3-1-0.8-1.3
		s-1-0.5-1.6-0.5c-0.8,0-1.7,0-2.5,0C202,182,201.9,182,201.7,182z M201.7,174.9c0,1.3,0,2.5,0,3.8c0.9,0,1.7,0,2.5,0
		c0.4,0,0.8-0.2,1.1-0.4c0.6-0.6,0.8-1.2,0.5-2c-0.2-0.8-0.8-1.2-1.6-1.3S202.6,174.9,201.7,174.9z"/>
	<path class="st3" d="M125.6,182.3c0,2.4,0,4.7,0,7.1c-1.4,0.1-2.7,0-4,0l-0.1-0.1l0,0c0-5.7,0-11.4,0-17.2c0-0.1,0-0.2,0-0.4
		c0.1,0,0.3,0,0.4,0c2.4,0,4.8,0,7.2,0c1.8,0,3.3,0.8,4.3,2.3c1,1.6,1.2,4.1-0.3,5.8c-0.4,0.5-1,0.8-1.6,1.3c0,0,0.1,0.1,0.2,0.2
		c0.8,0.6,1.3,1.4,1.7,2.3c0.8,1.8,1.6,3.6,2.4,5.4c0,0.1,0,0.2,0.1,0.3c-1.5,0-3,0-4.5,0c-0.3-0.8-0.7-1.7-1.1-2.5
		c-0.5-1.1-0.9-2.1-1.4-3.1c-0.2-0.3-0.4-0.7-0.7-0.9c-0.2-0.2-0.5-0.4-0.8-0.5C126.8,182.1,126.2,182.2,125.6,182.3z M125.6,174.9
		c-0.1,0.7-0.1,3.6,0,4c0.6,0,1.3,0,2,0c0.2,0,0.4,0,0.6,0c0.5-0.1,1-0.2,1.4-0.7c1-1.3,0.2-3.1-1.4-3.3
		C127.4,174.9,126.5,174.9,125.6,174.9z"/>
	<path class="st3" d="M162.5,189.4c-1.2,0-2.3,0-3.4,0c0-0.3,0-0.5-0.1-0.8c-0.3,0.2-0.6,0.3-0.8,0.5c-0.9,0.6-1.9,0.7-2.9,0.5
		c-2.1-0.3-3.4-1.6-4.1-3.4c-0.7-1.8-0.7-3.7,0-5.5c0.9-2.3,3.1-3.7,5.5-3.4c0.6,0.1,1.2,0.3,1.8,0.5c0.2,0.1,0.3,0.1,0.6,0.2
		c0-2.1,0-4.1,0-6.2c1.2,0,2.3,0,3.5,0C162.5,177.6,162.5,183.5,162.5,189.4z M159,183.3c0-0.8,0-1.7,0-2.5c0-0.3-0.1-0.5-0.4-0.6
		c-0.3-0.1-0.6-0.2-0.9-0.3c-1.3-0.4-2.6,0.2-3.1,1.4c-0.6,1.4-0.6,2.8-0.1,4.2c0.3,0.8,0.9,1.4,1.8,1.6c0.9,0.2,1.6-0.1,2.3-0.7
		c0.2-0.2,0.3-0.3,0.3-0.6C159,184.9,159,184.1,159,183.3z"/>
	<path class="st3" d="M172.9,171.7c1.2,0,2.3,0,3.4,0l0,0l0,0c0,0.1,0,0.1,0,0.2c0,5.7,0,11.4,0,17.1c0,0.1,0,0.1,0,0.2
		c-0.4,0.1-2.6,0.1-3.4,0c0-0.2,0-0.5-0.1-0.8c-0.3,0.2-0.6,0.3-0.8,0.5c-0.9,0.6-1.9,0.7-2.9,0.6c-2.1-0.3-3.4-1.6-4.1-3.4
		c-0.7-1.8-0.7-3.6,0-5.4c0.5-1.5,1.5-2.6,3-3.1c1.3-0.5,2.6-0.5,3.8,0c0.3,0.1,0.6,0.2,1,0.4C172.9,175.8,172.9,173.8,172.9,171.7z
		 M172.9,183.3c0-0.8,0-1.7,0-2.5c0-0.3-0.1-0.5-0.3-0.6c-0.3-0.1-0.6-0.2-0.9-0.3c-1.3-0.4-2.6,0.2-3.1,1.4
		c-0.6,1.4-0.6,2.8-0.1,4.1c0.3,0.8,0.9,1.4,1.7,1.6c1,0.3,1.8-0.2,2.6-0.8c0.1-0.1,0.1-0.3,0.1-0.4
		C172.9,185,172.9,184.1,172.9,183.3z"/>
	<path class="st3" d="M221.5,177.9c0-0.2,0.1-0.4,0.1-0.5c1.1,0,2.2,0,3.4,0c0,0.2,0,0.4,0,0.6c0,2.3,0,4.6,0,6.9c0,0.3,0,0.5,0,0.8
		c0,1,0.4,1.8,1.4,2.2c-0.3,0.2-0.5,0.4-0.7,0.5c-0.5,0.4-1,0.7-1.5,1.1c-0.2,0.1-0.4,0.2-0.6,0.1c-0.7-0.2-1.2-0.6-1.9-1.4
		c-0.2,0.1-0.3,0.3-0.5,0.4c-1,0.8-2.2,1.1-3.4,1c-2.1-0.3-3.4-1.6-4.2-3.5c-0.7-1.8-0.7-3.7,0-5.5c0.6-1.6,1.7-2.7,3.3-3.2
		c1.3-0.4,2.7-0.3,4,0.3C221.1,177.8,221.3,177.8,221.5,177.9z M221.5,183.3c0-0.9,0-1.7,0-2.6c0-0.2-0.1-0.4-0.3-0.5
		c-0.3-0.1-0.7-0.3-1-0.4c-0.9-0.3-2,0-2.5,0.8c-1,1.5-1.1,3.1-0.5,4.8c0.2,0.6,0.6,1,1.2,1.3c1,0.5,2,0.3,2.9-0.3
		c0.2-0.1,0.3-0.3,0.3-0.6C221.5,184.9,221.5,184.1,221.5,183.3z"/>
	<path class="st3" d="M187.1,188.2c-0.2,0.2-0.4,0.3-0.5,0.5c-1,0.8-2.1,1.1-3.4,0.9c-2.1-0.3-3.4-1.5-4.2-3.5
		c-0.7-1.8-0.7-3.7,0-5.5c0.6-1.6,1.7-2.7,3.3-3.2c1.3-0.4,2.7-0.3,3.9,0.3c0.2,0.1,0.3,0.1,0.5,0.2c0-0.2,0.1-0.3,0.1-0.5
		c1.1,0,2.2,0,3.4,0c0,0.2,0,0.4,0,0.6c0,2.3,0,4.6,0,6.9c0,0.3,0,0.7,0,1c0.1,0.9,0.4,1.6,1.4,1.9c-0.3,0.2-0.5,0.4-0.7,0.5
		c-0.5,0.4-1,0.7-1.5,1.1c-0.2,0.1-0.4,0.2-0.6,0.1C188.2,189.3,187.6,188.9,187.1,188.2z M186.9,183.2c0-0.8,0-1.6,0-2.5
		c0-0.3-0.1-0.5-0.4-0.6c-0.3-0.1-0.6-0.3-0.9-0.4c-0.9-0.3-2,0-2.5,0.8c-1,1.5-1.1,3.1-0.5,4.7c0.2,0.6,0.6,1,1.1,1.3
		c1,0.5,2,0.4,2.9-0.2c0.3-0.2,0.4-0.4,0.4-0.7C186.8,184.9,186.9,184.1,186.9,183.2z"/>
	<path class="st3" d="M149.8,187.9c-0.8,0.6-1.5,1.1-2.2,1.6c-0.2,0.1-0.4,0.2-0.6,0.1c-0.7-0.2-1.2-0.6-1.7-1.1
		c0-0.1-0.1-0.1-0.1-0.2c0,0,0,0-0.1,0c-0.2,0.2-0.3,0.3-0.5,0.5c-1,0.8-2.1,1.1-3.4,0.9c-1.8-0.2-3.1-1.3-3.9-2.9
		c-1-2-1-4.1-0.2-6.2c0.6-1.5,1.7-2.6,3.3-3.1c1.3-0.4,2.7-0.3,3.9,0.3c0.2,0.1,0.3,0.1,0.5,0.2c0-0.2,0.1-0.3,0.1-0.5
		c1.1,0,2.2,0,3.4,0c0,0.2,0,0.4,0,0.6c0,2.3,0,4.7,0,7c0,0.3,0,0.6,0,0.8C148.4,186.7,148.8,187.5,149.8,187.9z M144.8,183.3
		c0-0.8,0-1.6,0-2.5c0,0,0,0,0-0.1c0.1-0.3-0.1-0.5-0.4-0.6c-0.3-0.1-0.6-0.3-0.9-0.4c-0.9-0.3-2,0-2.6,0.8
		c-0.9,1.3-1.1,2.8-0.7,4.3c0.2,0.8,0.7,1.4,1.5,1.8c1,0.4,1.8,0.2,2.7-0.3c0.3-0.2,0.4-0.4,0.4-0.7
		C144.8,184.9,144.8,184.1,144.8,183.3z"/>
	<path class="st3" d="M239.2,177.4c1.2,0,2.3,0,3.5,0c0,0.5,0,1.1,0,1.7c0.3-0.3,0.6-0.5,0.8-0.8c1.2-1.2,3-1.4,4.4-0.8
		c1.7,0.7,2.3,2,2.4,3.7c0.1,1.4,0,2.8,0,4.1c0,1.1,0,2.3,0,3.4c0,0.2,0,0.4,0,0.6c-1.2,0-2.3,0-3.5,0c0-0.2,0-0.4,0-0.6
		c0-2,0-3.9,0-5.9c0-0.5-0.1-1-0.2-1.5c-0.1-0.7-0.5-1.2-1.2-1.4c-0.8-0.2-1.5,0-2.1,0.5c-0.5,0.5-0.7,1.1-0.7,1.8
		c0,2.1,0,4.2,0,6.4c0,0.2,0,0.4,0,0.6c-1.2,0-2.3,0-3.5,0C239.2,185.4,239.2,181.4,239.2,177.4z"/>
	<path class="st3" d="M269.3,189.4c-1.2,0-2.3,0-3.4,0l0,0l0,0c0-0.1,0-0.2,0-0.3c0-3.8,0-7.6,0-11.4c0-0.1,0-0.1,0-0.2
		c1.1,0,2.3,0,3.4,0c0,0.5,0,1.1,0,1.7c0.3-0.3,0.6-0.6,0.8-0.8c1.5-1.5,3.8-1.5,5.4-0.3c1,0.8,1.4,1.8,1.5,3.1c0,0.4,0,0.8,0,1.2
		c0,2.2,0,4.3,0,6.5c0,0.2,0,0.4,0,0.6c-0.4,0.1-2.7,0.1-3.5,0c0-0.2,0-0.4,0-0.5c0-2,0-4,0-5.9c0-0.5-0.1-1.1-0.2-1.6
		c-0.1-0.6-0.5-1.2-1.2-1.3c-0.8-0.2-1.5,0-2,0.5s-0.8,1.2-0.8,1.9c0,2.1,0,4.2,0,6.4C269.3,189,269.3,189.2,269.3,189.4z"/>
	<path class="st3" d="M263.8,184c-1.4,0-2.7,0-4,0s-2.6,0-4,0c-0.1,0.6,0.1,1.1,0.4,1.6c0.5,1,1.3,1.5,2.3,1.7s2,0.1,2.9-0.3
		c0.6-0.3,1.1-0.6,1.6-0.9c0.2-0.1,0.3-0.2,0.5-0.4c0,0.2,0,0.4,0,0.5c0,0.4,0,0.7,0,1c0.1,0.7-0.2,1-0.8,1.3c-1.1,0.6-2.3,1-3.6,1
		c-0.7,0-1.3,0-2-0.1c-1-0.1-1.8-0.5-2.6-1c-1.3-0.9-2-2.1-2.3-3.6c-0.3-1.8-0.1-3.5,0.8-5.1c0.5-0.9,1.2-1.5,2.1-2
		c1.3-0.6,2.6-0.9,4-0.5c1.9,0.4,3.2,1.5,4,3.2C263.7,181.6,263.9,182.8,263.8,184z M260.6,182c0-1.4-1-2.8-2.7-2.6
		c-1.2,0.1-2.2,1.5-2,2.6C257.5,182,259,182,260.6,182z"/>
	<path class="st3" d="M231.8,189.4c-1.2,0-2.3,0-3.4,0c-0.1-0.4-0.2-11.2,0-12c1.1,0,2.2,0,3.4,0c0,0.8,0,1.6,0,2.4h0.1
		c0.1-0.1,0.1-0.3,0.2-0.4c0.5-0.9,1.1-1.6,2-2c0.8-0.4,1.6-0.4,2.5,0c0.3,0.2,0.6,0.4,0.9,0.6c0.2,0.1,0.2,0.3,0.2,0.5
		c-0.3,1-0.6,2-0.9,3c-0.2-0.1-0.3-0.2-0.4-0.2c-0.6-0.4-1.3-0.7-2.1-0.6c-1.2,0.1-2,0.8-2.3,2c-0.1,0.5-0.2,1-0.2,1.6
		c0,1.5,0,3,0,4.5C231.8,189,231.8,189.2,231.8,189.4z"/>
	<path class="st3" d="M138.9,174c0-1,0.6-1.7,1.6-1.7c0.9,0,1.6,0.7,1.6,1.7c0,0.9-0.7,1.7-1.6,1.7
		C139.5,175.7,138.9,174.9,138.9,174z"/>
	<path class="st3" d="M143.8,174c0-0.9,0.6-1.7,1.5-1.7s1.6,0.7,1.6,1.7s-0.6,1.7-1.6,1.7C144.5,175.7,143.8,175,143.8,174z"/>
	<path class="st1" d="M79.1,201.5c-3.6-1.6-8.7-6.3-10.9-12.9c-2.2-6.4-1.9-12.7,1.1-18.9c0.2,0.2,0.3,0.2,0.4,0.4
		c1.3,1.3,2.6,2.7,3.8,4.1c1.6,1.8,3.2,3.6,4.8,5.4c0.5,0.6,0.9,1.3,1.4,1.9c0.4,0.5,0.5,1.1,0.5,1.7c0.1,1.1-0.1,2.2-0.3,3.2
		c-0.5,3-0.9,5.9-0.9,9c0,2,0.1,3.9,0.2,5.9C79.1,201.4,79.1,201.4,79.1,201.5z"/>
	<path class="st1" d="M72.2,165.5c2.4-2.8,5.4-4.7,8.9-5.9c-0.1,0.6-0.2,1.1-0.2,1.6c-0.2,2,0.1,3.9,0.8,5.8
		c0.5,1.3,1.3,2.5,2.3,3.4c0.4,0.3,0.8,0.7,1.2,1c1.4,0.8,3,1.2,4.6,0.8c1.2-0.3,2.2-0.9,3-1.7c2-2.1,2.7-4.6,2.6-7.4
		c0-0.9-0.2-1.8-0.3-2.7c1.6,0.2,6.8,3.8,7.9,5.5c-0.3,0.3-0.6,0.6-0.9,0.9c-1.3,1.2-2.5,2.5-3.9,3.5c-1.3,1-2.6,1.9-4.1,2.6
		c-1.4,0.7-3,1.2-4.6,1.4c-2.1,0.3-4.2-0.1-6.2-0.8c-0.8-0.3-1.7-0.7-2.5-1.1c-1.2-0.6-2.3-1.3-3.3-2.1c-0.8-0.6-1.6-1.2-2.4-1.9
		c-1-0.9-1.9-1.8-2.9-2.7C72.4,165.7,72.3,165.6,72.2,165.5z"/>
	<path class="st1" d="M201.7,182c0.2,0,0.3,0,0.5,0c0.8,0,1.7,0,2.5,0c0.6,0,1.1,0.2,1.6,0.5s0.8,0.8,0.8,1.3c0,0.2,0,0.5,0,0.7
		c-0.1,0.7-0.4,1.2-1.1,1.4c-0.4,0.1-0.8,0.3-1.3,0.3c-1,0-1.9,0-3,0C201.7,184.8,201.7,183.4,201.7,182z"/>
	<path class="st1" d="M201.7,174.9c0.9,0,1.7-0.1,2.5,0s1.4,0.5,1.6,1.3c0.2,0.8,0,1.4-0.5,2c-0.3,0.3-0.7,0.4-1.1,0.4
		c-0.8,0-1.6,0-2.5,0C201.7,177.5,201.7,176.2,201.7,174.9z"/>
	<path class="st1" d="M125.6,174.9c0.9,0,1.7-0.1,2.6,0c1.6,0.2,2.3,2,1.4,3.3c-0.3,0.5-0.9,0.6-1.4,0.7c-0.2,0-0.4,0-0.6,0
		c-0.7,0-1.3,0-2,0C125.6,178.5,125.5,175.6,125.6,174.9z"/>
	<path class="st4" d="M159,183.3c0,0.8,0,1.6,0,2.5c0,0.3-0.1,0.5-0.3,0.6c-0.7,0.5-1.4,0.9-2.3,0.7c-0.9-0.2-1.5-0.8-1.8-1.6
		c-0.5-1.4-0.5-2.8,0.1-4.2c0.5-1.2,1.8-1.8,3.1-1.4c0.3,0.1,0.6,0.2,0.9,0.3c0.3,0.1,0.4,0.3,0.4,0.6
		C159,181.6,159,182.5,159,183.3z"/>
	<path class="st1" d="M172.9,183.3c0,0.8,0,1.7,0,2.5c0,0.1,0,0.3-0.1,0.4c-0.7,0.7-1.5,1.1-2.6,0.8c-0.9-0.2-1.4-0.8-1.7-1.6
		c-0.5-1.4-0.5-2.8,0.1-4.1c0.5-1.3,1.8-1.8,3.1-1.4c0.3,0.1,0.6,0.2,0.9,0.3c0.3,0.1,0.4,0.3,0.3,0.6
		C172.9,181.6,172.9,182.4,172.9,183.3z"/>
	<path class="st1" d="M221.5,183.3c0,0.8,0,1.7,0,2.5c0,0.3-0.1,0.5-0.3,0.6c-0.9,0.6-1.9,0.8-2.9,0.3c-0.6-0.3-1-0.7-1.2-1.3
		c-0.6-1.7-0.4-3.3,0.5-4.8c0.5-0.8,1.6-1.1,2.5-0.8c0.3,0.1,0.7,0.3,1,0.4c0.2,0.1,0.3,0.2,0.3,0.5
		C221.5,181.5,221.5,182.4,221.5,183.3z"/>
	<path class="st1" d="M186.9,183.2c0,0.8,0,1.6,0,2.5c0,0.3-0.1,0.5-0.4,0.7c-0.9,0.6-1.9,0.7-2.9,0.2c-0.5-0.3-0.9-0.7-1.1-1.3
		c-0.6-1.7-0.4-3.2,0.5-4.7c0.5-0.8,1.6-1.1,2.5-0.8c0.3,0.1,0.6,0.3,0.9,0.4c0.3,0.1,0.4,0.3,0.4,0.6
		C186.8,181.6,186.9,182.4,186.9,183.2z"/>
	<path class="st1" d="M144.8,183.3c0,0.8,0,1.6,0,2.4c0,0.3-0.1,0.5-0.4,0.7c-0.8,0.5-1.7,0.7-2.7,0.3c-0.8-0.3-1.3-1-1.5-1.8
		c-0.4-1.5-0.2-3,0.7-4.3c0.6-0.8,1.6-1.1,2.6-0.8c0.3,0.1,0.6,0.2,0.9,0.4c0.3,0.1,0.4,0.3,0.4,0.6c0,0,0,0,0,0.1
		C144.8,181.6,144.8,182.5,144.8,183.3z"/>
	<path class="st1" d="M260.6,182c-1.6,0-3.1,0-4.7,0c-0.2-1,0.8-2.5,2-2.6C259.7,179.3,260.6,180.7,260.6,182z"/>
</g>
<g id="Text">
	<g>
		<path d="M58.3,88c0.6-0.1,1.5-0.2,2.4-0.2c1.3,0,2.1,0.2,2.8,0.7c0.5,0.4,0.8,1,0.8,1.8c0,1-0.6,1.8-1.7,2.2l0,0
			c1,0.2,2.1,1,2.1,2.5c0,0.9-0.3,1.5-0.9,2c-0.7,0.7-1.8,1-3.5,1c-0.9,0-1.6-0.1-2-0.1V88z M59.6,92.1h1.2c1.4,0,2.2-0.7,2.2-1.7
			c0-1.2-0.9-1.6-2.2-1.6c-0.6,0-0.9,0-1.2,0.1V92.1z M59.6,96.9c0.3,0,0.6,0.1,1.1,0.1c1.3,0,2.6-0.5,2.6-2c0-1.4-1.2-1.9-2.6-1.9
			h-1.1V96.9z"/>
		<path d="M66.4,87.3h1.3v10.6h-1.3V87.3z"/>
		<path d="M71.4,88.6c0,0.5-0.3,0.8-0.8,0.8s-0.8-0.4-0.8-0.8c0-0.5,0.3-0.8,0.8-0.8C71.1,87.8,71.4,88.2,71.4,88.6z M69.9,97.9
			v-7.3h1.3v7.3H69.9z"/>
		<path d="M76.6,92.6c0-0.8,0-1.4-0.1-2h1.2l0.1,1.2l0,0c0.4-0.7,1.1-1.3,2.3-1.3c1,0,1.7,0.6,2.1,1.5l0,0c0.2-0.4,0.5-0.7,0.8-0.9
			c0.4-0.3,0.9-0.5,1.6-0.5c1,0,2.4,0.6,2.4,3.1V98h-1.3v-4.1c0-1.4-0.5-2.2-1.6-2.2c-0.8,0-1.3,0.6-1.6,1.2
			c-0.1,0.2-0.1,0.4-0.1,0.7v4.5h-1.3v-4.3c0-1.2-0.5-2-1.5-2c-0.8,0-1.4,0.7-1.6,1.3c-0.1,0.2-0.1,0.4-0.1,0.6v4.4h-1.3V92.6z"/>
		<path d="M93.1,97.9L93,97l0,0c-0.4,0.6-1.2,1.1-2.2,1.1c-1.5,0-2.2-1-2.2-2.1c0-1.8,1.6-2.7,4.4-2.7v-0.2c0-0.6-0.2-1.7-1.6-1.7
			c-0.7,0-1.4,0.2-1.9,0.5L89.2,91c0.6-0.4,1.5-0.6,2.4-0.6c2.2,0,2.8,1.5,2.8,3v2.7c0,0.6,0,1.2,0.1,1.7L93.1,97.9L93.1,97.9z
			 M92.9,94.2c-1.4,0-3.1,0.2-3.1,1.6c0,0.9,0.6,1.3,1.2,1.3c0.9,0,1.5-0.6,1.8-1.2c0-0.1,0.1-0.3,0.1-0.4V94.2z M90.1,88.5
			c0-0.8,0.6-1.4,1.5-1.4s1.5,0.6,1.5,1.4s-0.6,1.4-1.5,1.4S90.1,89.3,90.1,88.5z M92.4,88.5c0-0.4-0.3-0.8-0.8-0.8
			s-0.7,0.4-0.7,0.9c0,0.4,0.3,0.8,0.7,0.8C92.1,89.3,92.4,88.9,92.4,88.5z"/>
		<path d="M96.3,92.6c0-0.8,0-1.4-0.1-2h1.2l0.1,1.2l0,0c0.4-0.7,1.2-1.4,2.4-1.4c1,0,2.6,0.6,2.6,3.1v4.3h-1.3v-4.2
			c0-1.2-0.4-2.1-1.7-2.1c-0.9,0-1.5,0.6-1.8,1.3c-0.1,0.2-0.1,0.4-0.1,0.6v4.4h-1.3C96.3,97.8,96.3,92.6,96.3,92.6z"/>
		<path d="M108.7,97.9l-0.1-0.9l0,0c-0.4,0.6-1.2,1.1-2.2,1.1c-1.5,0-2.2-1-2.2-2.1c0-1.8,1.6-2.7,4.4-2.7v-0.2
			c0-0.6-0.2-1.7-1.6-1.7c-0.7,0-1.4,0.2-1.9,0.5l-0.3-0.9c0.6-0.4,1.5-0.6,2.4-0.6c2.2,0,2.8,1.5,2.8,3v2.7c0,0.6,0,1.2,0.1,1.7
			L108.7,97.9L108.7,97.9z M108.5,94.2c-1.4,0-3.1,0.2-3.1,1.6c0,0.9,0.6,1.3,1.2,1.3c0.9,0,1.5-0.6,1.8-1.2c0-0.1,0.1-0.3,0.1-0.4
			V94.2z"/>
		<path d="M118.2,87.3v8.8c0,0.6,0,1.4,0.1,1.9H117l-0.1-1.3l0,0c-0.4,0.8-1.3,1.4-2.5,1.4c-1.8,0-3.1-1.5-3.1-3.7
			c0-2.4,1.5-3.9,3.3-3.9c1.1,0,1.9,0.5,2.2,1.1l0,0v-4.3H118.2z M116.8,93.6c0-0.2,0-0.4-0.1-0.6c-0.2-0.8-0.9-1.5-1.9-1.5
			c-1.4,0-2.2,1.2-2.2,2.8c0,1.5,0.7,2.7,2.1,2.7c0.9,0,1.7-0.6,1.9-1.6c0-0.2,0.1-0.4,0.1-0.6L116.8,93.6L116.8,93.6z"/>
		<path d="M120.2,96.6c0.4,0.3,1.1,0.5,1.7,0.5c1,0,1.4-0.5,1.4-1.1s-0.4-1-1.4-1.3c-1.3-0.5-1.9-1.2-1.9-2.1c0-1.2,0.9-2.1,2.5-2.1
			c0.7,0,1.4,0.2,1.8,0.5l-0.3,1c-0.3-0.2-0.8-0.4-1.5-0.4c-0.8,0-1.2,0.4-1.2,1s0.4,0.9,1.4,1.2c1.3,0.5,1.9,1.1,1.9,2.2
			c0,1.3-1,2.2-2.7,2.2c-0.8,0-1.5-0.2-2-0.5L120.2,96.6z"/>
		<path d="M132.5,90.7c0,0.5-0.1,1.1-0.1,2v4.2c0,1.7-0.3,2.7-1,3.3c-0.7,0.7-1.7,0.9-2.6,0.9c-0.9,0-1.8-0.2-2.4-0.6l0.3-1
			c0.5,0.3,1.2,0.6,2.1,0.6c1.4,0,2.3-0.7,2.3-2.5v-0.8l0,0c-0.4,0.7-1.2,1.2-2.3,1.2c-1.8,0-3.1-1.5-3.1-3.5c0-2.5,1.6-3.9,3.3-3.9
			c1.3,0,1.9,0.7,2.3,1.3l0,0l0.1-1.1L132.5,90.7L132.5,90.7z M131.2,93.5c0-0.2,0-0.4-0.1-0.6c-0.2-0.8-0.9-1.4-1.8-1.4
			c-1.3,0-2.2,1.1-2.2,2.7c0,1.4,0.7,2.6,2.1,2.6c0.8,0,1.5-0.5,1.8-1.3c0.1-0.2,0.1-0.5,0.1-0.7L131.2,93.5L131.2,93.5z"/>
		<path d="M136.1,88.6c0,0.5-0.3,0.8-0.8,0.8s-0.8-0.4-0.8-0.8c0-0.5,0.3-0.8,0.8-0.8C135.7,87.8,136.1,88.2,136.1,88.6z
			 M134.6,97.9v-7.3h1.3v7.3H134.6z"/>
		<path d="M138.6,90.7l1.4,4.1c0.2,0.7,0.4,1.3,0.6,1.9l0,0c0.2-0.6,0.4-1.2,0.6-1.9l1.4-4.1h1.4l-2.9,7.3H140l-2.8-7.3H138.6z"/>
		<path d="M149.3,97.9l-0.1-0.9l0,0c-0.4,0.6-1.2,1.1-2.2,1.1c-1.5,0-2.2-1-2.2-2.1c0-1.8,1.6-2.7,4.4-2.7v-0.2
			c0-0.6-0.2-1.7-1.6-1.7c-0.7,0-1.4,0.2-1.9,0.5l-0.3-0.9c0.6-0.4,1.5-0.6,2.4-0.6c2.2,0,2.8,1.5,2.8,3v2.7c0,0.6,0,1.2,0.1,1.7
			L149.3,97.9L149.3,97.9z M149.1,94.2c-1.4,0-3.1,0.2-3.1,1.6c0,0.9,0.6,1.3,1.2,1.3c0.9,0,1.5-0.6,1.8-1.2c0-0.1,0.1-0.3,0.1-0.4
			V94.2z"/>
		<path d="M152.5,92.9c0-0.9,0-1.6-0.1-2.3h1.2V92h0.1c0.3-1,1.1-1.6,2-1.6c0.1,0,0.3,0,0.4,0v1.2c-0.1,0-0.3,0-0.5,0
			c-0.9,0-1.6,0.7-1.8,1.7c0,0.2-0.1,0.4-0.1,0.6v3.9h-1.3v-4.9H152.5z"/>
		<path d="M158,94.5c0,1.8,1.2,2.5,2.5,2.5c0.9,0,1.5-0.2,2-0.4l0.2,0.9c-0.5,0.2-1.3,0.4-2.4,0.4c-2.2,0-3.6-1.5-3.6-3.7
			s1.3-3.9,3.4-3.9c2.4,0,3,2.1,3,3.4c0,0.3,0,0.5,0,0.6H158V94.5z M161.8,93.6c0-0.8-0.3-2.1-1.8-2.1c-1.3,0-1.9,1.2-2,2.1H161.8z"
			/>
	</g>
	<g>
		<path d="M57.9,49.9h19.9c3.3,0,5.9,0.8,7.6,2.5s2.6,3.6,2.6,6c0,2-0.6,3.8-1.9,5.2c-0.8,1-2.1,1.7-3.7,2.3
			c2.5,0.6,4.3,1.6,5.4,3.1s1.7,3.3,1.7,5.4c0,1.8-0.4,3.4-1.2,4.8s-2,2.5-3.4,3.4c-0.9,0.5-2.2,0.9-4,1.1c-2.4,0.3-4,0.5-4.8,0.5
			H57.9V49.9z M68.6,63.4h4.6c1.7,0,2.8-0.3,3.5-0.9s1-1.4,1-2.5c0-1-0.3-1.8-1-2.3s-1.8-0.8-3.4-0.8h-4.7V63.4z M68.6,76.9H74
			c1.8,0,3.1-0.3,3.9-1s1.1-1.5,1.1-2.6c0-1-0.4-1.8-1.1-2.4S75.9,70,74,70h-5.4V76.9z"/>
		<path d="M95.3,84.3V49.9H113c3.3,0,5.8,0.3,7.5,0.8s3.1,1.6,4.2,3.1s1.6,3.4,1.6,5.6c0,1.9-0.4,3.6-1.2,4.9
			c-0.8,1.4-1.9,2.5-3.4,3.4c-0.9,0.5-2.1,1-3.7,1.4c1.3,0.4,2.2,0.8,2.8,1.3c0.4,0.3,1,0.9,1.7,1.8s1.2,1.6,1.5,2.1l5.1,10h-12
			l-5.7-10.5c-0.7-1.4-1.4-2.2-1.9-2.6c-0.8-0.5-1.6-0.8-2.6-0.8H106v13.9H95.3z M106,63.8h4.5c0.5,0,1.4-0.2,2.8-0.5
			c0.7-0.1,1.3-0.5,1.7-1.1s0.7-1.2,0.7-2c0-1.1-0.4-2-1.1-2.6s-2-0.9-4-0.9H106V63.8z"/>
		<path d="M127,49.9h11.8l6.9,11.6l6.9-11.6h11.7l-13.4,20v14.4h-10.6V69.9L127,49.9z"/>
	</g>
	<g>
		<path d="M59.9,104.2h15.8c3.1,0,5.6,0.4,7.5,1.3s3.5,2.1,4.7,3.6s2.2,3.4,2.7,5.5s0.8,4.3,0.8,6.7c0,3.7-0.4,6.5-1.3,8.5
			c-0.8,2-2,3.7-3.5,5.1s-3.1,2.3-4.8,2.7c-2.3,0.6-4.4,0.9-6.3,0.9H59.9V104.2z M70.5,112v18.8h2.6c2.2,0,3.8-0.2,4.7-0.7
			s1.7-1.4,2.2-2.6c0.5-1.2,0.8-3.2,0.8-6c0-3.6-0.6-6.1-1.8-7.5s-3.2-2-5.9-2C73.1,112,70.5,112,70.5,112z"/>
		<path d="M97.5,104.2h10.6v34.4H97.5V104.2z"/>
		<path d="M133.1,126.1V119h16.4v14.6c-3.1,2.1-5.9,3.6-8.3,4.4s-5.3,1.2-8.6,1.2c-4.1,0-7.4-0.7-10-2.1s-4.6-3.5-6-6.2
			s-2.1-5.9-2.1-9.5c0-3.8,0.8-7,2.3-9.8s3.8-4.9,6.8-6.3c2.3-1.1,5.5-1.7,9.4-1.7c3.8,0,6.6,0.3,8.5,1s3.4,1.8,4.7,3.2
			s2.2,3.3,2.8,5.5l-10.2,1.8c-0.4-1.3-1.1-2.3-2.1-3s-2.3-1-3.9-1c-2.3,0-4.2,0.8-5.6,2.4s-2.1,4.2-2.1,7.7c0,3.7,0.7,6.4,2.1,8
			c1.4,1.6,3.3,2.4,5.8,2.4c1.2,0,2.3-0.2,3.4-0.5s2.3-0.9,3.7-1.8v-3.2L133.1,126.1L133.1,126.1z"/>
		<path d="M155.2,104.2h10.2v7.8l-2,15.7h-6.3l-1.9-15.7V104.2z M155.5,130.2h9.5v8.4h-9.5V130.2z"/>
	</g>
</g>
<radialGradient id="SVGID_2_" cx="199.2" cy="37.1796" r="57.404" gradientTransform="matrix(1 0 0 -1 0 265.28)" gradientUnits="userSpaceOnUse">
	<stop  offset="0" style="stop-color:#FFFFFF"/>
	<stop  offset="1" style="stop-color:#5367AB"/>
</radialGradient>
<path class="st5" d="M266.7,249.6h-135c-5.6,0-10.2-4.6-10.2-10.2v-22.7c0-5.6,4.6-10.2,10.2-10.2h135c5.6,0,10.2,4.6,10.2,10.2
	v22.7C276.8,245.1,272.3,249.6,266.7,249.6z"/>
<g>
	<path class="st6" d="M128.5,233.4v-14.2h2.7v12.5h10.1v1.7H128.5z"/>
	<path class="st6" d="M154,232.1c-0.9,0.6-1.8,0.9-2.7,1.2c-0.9,0.2-1.8,0.3-2.8,0.3c-1.6,0-2.9-0.3-3.8-0.8s-1.3-1.3-1.3-2.1
		c0-0.5,0.2-1,0.5-1.4s0.8-0.8,1.3-1c0.5-0.3,1.1-0.4,1.8-0.6c0.5-0.1,1.2-0.2,2.2-0.3c2-0.2,3.5-0.4,4.5-0.6c0-0.2,0-0.4,0-0.5
		c0-0.7-0.2-1.2-0.7-1.5c-0.6-0.4-1.6-0.6-2.9-0.6c-1.2,0-2.1,0.1-2.6,0.4c-0.6,0.3-1,0.8-1.3,1.5l-2.5-0.2c0.2-0.7,0.6-1.3,1.1-1.8
		s1.3-0.8,2.2-1c1-0.2,2.1-0.4,3.4-0.4c1.3,0,2.3,0.1,3.1,0.3s1.4,0.5,1.8,0.8c0.4,0.3,0.6,0.7,0.8,1.2c0.1,0.3,0.1,0.8,0.1,1.6v2.3
		c0,1.6,0.1,2.7,0.2,3.1c0.1,0.4,0.3,0.8,0.6,1.2h-2.6C154.2,233,154,232.6,154,232.1z M153.8,228.2c-0.9,0.3-2.3,0.5-4.1,0.7
		c-1,0.1-1.8,0.2-2.2,0.3s-0.8,0.3-1,0.6s-0.4,0.5-0.4,0.8c0,0.5,0.3,0.9,0.8,1.2s1.3,0.5,2.2,0.5c1,0,1.8-0.1,2.6-0.4
		c0.8-0.3,1.3-0.7,1.7-1.2c0.3-0.4,0.4-1,0.4-1.7V228.2z M146.3,221.1v-2h2.6v2H146.3z M151.6,221.1v-2h2.6v2H151.6z"/>
	<path class="st6" d="M160.2,233.4v-10.3h2.3v1.6c0.6-0.7,1.1-1.2,1.6-1.4s1-0.3,1.6-0.3c0.8,0,1.7,0.2,2.6,0.6l-0.9,1.6
		c-0.6-0.3-1.2-0.4-1.8-0.4s-1,0.1-1.5,0.3c-0.4,0.2-0.8,0.5-0.9,1c-0.3,0.6-0.4,1.3-0.4,2v5.4h-2.6V233.4z"/>
	<path class="st6" d="M187.4,233.4v-1.3c-0.9,1-2.3,1.5-4.2,1.5c-1.2,0-2.3-0.2-3.3-0.7s-1.8-1.1-2.3-1.9c-0.5-0.8-0.8-1.7-0.8-2.8
		c0-1,0.2-2,0.7-2.8s1.2-1.5,2.2-1.9s2.1-0.7,3.3-0.7c0.9,0,1.7,0.1,2.4,0.4c0.7,0.3,1.3,0.6,1.7,1v-5.1h2.5v14.2h-2.2V233.4z
		 M179.4,228.3c0,1.3,0.4,2.3,1.2,3s1.8,1,2.8,1c1.1,0,2-0.3,2.8-0.9s1.2-1.6,1.2-2.9c0-1.4-0.4-2.4-1.2-3.1c-0.8-0.7-1.8-1-2.9-1
		c-1.1,0-2.1,0.3-2.8,1S179.4,226.9,179.4,228.3z"/>
	<path class="st6" d="M193.7,221.2v-2h2.5v2H193.7z M193.7,233.4v-10.3h2.5v10.3H193.7z"/>
	<path class="st6" d="M199.6,234.3l2.5,0.3c0.1,0.5,0.4,0.9,0.9,1.1c0.6,0.3,1.5,0.5,2.6,0.5c1.2,0,2.1-0.2,2.7-0.5
		c0.6-0.3,1.1-0.8,1.3-1.4c0.1-0.4,0.2-1.1,0.2-2.2c-1.1,0.9-2.5,1.3-4.1,1.3c-2,0-3.6-0.5-4.7-1.5c-1.1-1-1.7-2.2-1.7-3.7
		c0-1,0.3-1.9,0.8-2.7s1.3-1.5,2.2-1.9c1-0.5,2.1-0.7,3.4-0.7c1.8,0,3.2,0.5,4.3,1.5v-1.2h2.3v8.9c0,1.6-0.2,2.7-0.7,3.4
		s-1.2,1.2-2.2,1.6c-1,0.4-2.3,0.6-3.8,0.6c-1.8,0-3.2-0.3-4.3-0.8C200.1,236.2,199.6,235.4,199.6,234.3z M201.7,228.1
		c0,1.4,0.4,2.3,1.2,3s1.7,0.9,2.9,0.9s2.1-0.3,2.9-0.9c0.8-0.6,1.2-1.6,1.2-2.9c0-1.3-0.4-2.2-1.2-2.9s-1.8-1-2.9-1
		c-1.1,0-2.1,0.3-2.9,0.9C202.1,225.9,201.7,226.8,201.7,228.1z"/>
	<path class="st6" d="M224,233.4v-10.3h2.3v1.4c0.5-0.5,1.1-0.9,1.9-1.2s1.7-0.5,2.6-0.5c1.1,0,2,0.2,2.7,0.5s1.2,0.8,1.5,1.3
		c1.2-1.2,2.7-1.8,4.6-1.8c1.5,0,2.6,0.3,3.4,0.8c0.8,0.6,1.2,1.4,1.2,2.6v7.1h-2.5v-6.5c0-0.7-0.1-1.2-0.2-1.5
		c-0.2-0.3-0.5-0.6-0.9-0.7c-0.4-0.2-0.9-0.3-1.5-0.3c-1,0-1.9,0.2-2.6,0.7c-0.7,0.5-1,1.3-1,2.3v6H233v-6.7c0-0.8-0.2-1.4-0.6-1.7
		s-1.1-0.6-2-0.6c-0.7,0-1.4,0.1-2,0.4s-1,0.6-1.3,1.1s-0.4,1.2-0.4,2.2v5.3L224,233.4L224,233.4z"/>
	<path class="st6" d="M258.1,230.1l2.6,0.2c-0.4,1.1-1.2,1.9-2.3,2.5s-2.5,0.9-4.3,0.9c-2.2,0-3.9-0.5-5.2-1.4s-1.9-2.2-1.9-3.9
		s0.6-3.1,1.9-4c1.3-1,3-1.4,5-1.4s3.6,0.5,4.9,1.4s1.9,2.3,1.9,4c0,0.1,0,0.3,0,0.5h-11.1c0.1,1.1,0.6,2,1.4,2.6s1.9,0.9,3.1,0.9
		c0.9,0,1.7-0.2,2.4-0.5C257.2,231.4,257.7,230.8,258.1,230.1z M249.8,227.3h8.3c-0.1-0.9-0.4-1.5-1-2c-0.8-0.7-1.8-1-3.1-1
		c-1.2,0-2.1,0.3-2.9,0.8S249.9,226.4,249.8,227.3z"/>
	<path class="st6" d="M263.8,233.4v-10.3h2.3v1.6c0.6-0.7,1.1-1.2,1.6-1.4s1-0.3,1.6-0.3c0.8,0,1.7,0.2,2.6,0.6L271,225
		c-0.6-0.3-1.2-0.4-1.8-0.4c-0.6,0-1,0.1-1.5,0.3c-0.4,0.2-0.8,0.5-0.9,1c-0.3,0.6-0.4,1.3-0.4,2v5.4L263.8,233.4L263.8,233.4z"/>
</g>
</svg>
