<svg id="Lager_1" data-name="Lager 1" xmlns="http://www.w3.org/2000/svg" viewBox="0 0 12 12"><defs><style>.cls-1{fill:#fabb00;}.cls-2{fill:#fff;}</style></defs><title>Calendar_icon</title><ellipse cx="2.93" cy="1.41" rx="0.86" ry="1.24"/><path d="M2.93.17c-.48,0-.86.55-.86,1.24s.39,1.24.86,1.24.86-.55.86-1.24S3.41.17,2.93.17Z"/><ellipse cx="8.98" cy="1.41" rx="0.86" ry="1.24"/><path d="M9,.17c-.48,0-.86.55-.86,1.24S8.51,2.64,9,2.64s.86-.55.86-1.24S9.46.17,9,.17Z"/><path d="M0,2.38a1,1,0,0,1,1-1h.69a0,0,0,0,1,0,0c0,.18-.12,1.05.43,1.42a1.18,1.18,0,0,0,1.56.06c.51-.37.64-1.59.67-1.52s1.53,0,2.5,0a1,1,0,0,1,.93.72,1.7,1.7,0,0,0,.39.74,1.44,1.44,0,0,0,1.91-.09,2.36,2.36,0,0,0,.27-1,.42.42,0,0,1,.42-.38h.83a.42.42,0,0,1,.42.42V11a1,1,0,0,1-1,1H1a1,1,0,0,1-1-1Z"/><rect class="cls-1" x="0.88" y="4.36" width="10.26" height="6.78" rx="0.28" ry="0.28"/><rect class="cls-2" x="2.61" y="5.9" width="0.38" height="0.2"/><path d="M3.18,5.4H2.42a.31.31,0,0,0-.31.31v.58a.31.31,0,0,0,.31.31h.76a.31.31,0,0,0,.31-.31V5.71a.31.31,0,0,0-.31-.31Z"/><rect class="cls-2" x="4.78" y="5.9" width="0.38" height="0.2"/><path d="M5.35,5.4H4.59a.31.31,0,0,0-.31.31v.58a.31.31,0,0,0,.31.31h.76a.31.31,0,0,0,.31-.31V5.71a.31.31,0,0,0-.31-.31Z"/><rect class="cls-2" x="6.95" y="5.9" width="0.38" height="0.2"/><path d="M7.51,5.4H6.76a.31.31,0,0,0-.31.31v.58a.31.31,0,0,0,.31.31h.76a.31.31,0,0,0,.31-.31V5.71a.31.31,0,0,0-.31-.31Z"/><rect class="cls-2" x="9.01" y="5.9" width="0.38" height="0.2"/><path d="M9.58,5.4H8.82a.31.31,0,0,0-.31.31v.58a.31.31,0,0,0,.31.31h.76a.31.31,0,0,0,.31-.31V5.71a.31.31,0,0,0-.31-.31Z"/><rect class="cls-2" x="2.61" y="7.82" width="0.38" height="0.2"/><path d="M3.18,7.32H2.42a.31.31,0,0,0-.31.31v.58a.31.31,0,0,0,.31.31h.76a.31.31,0,0,0,.31-.31V7.63a.31.31,0,0,0-.31-.31Z"/><rect class="cls-2" x="4.78" y="7.82" width="0.38" height="0.2"/><path d="M5.35,7.32H4.59a.31.31,0,0,0-.31.31v.58a.31.31,0,0,0,.31.31h.76a.31.31,0,0,0,.31-.31V7.63a.31.31,0,0,0-.31-.31Z"/><rect class="cls-2" x="6.95" y="7.82" width="0.38" height="0.2"/><path d="M7.51,7.32H6.76a.31.31,0,0,0-.31.31v.58a.31.31,0,0,0,.31.31h.76a.31.31,0,0,0,.31-.31V7.63a.31.31,0,0,0-.31-.31Z"/><rect class="cls-2" x="9.01" y="7.82" width="0.38" height="0.2"/><path d="M9.58,7.32H8.82a.31.31,0,0,0-.31.31v.58a.31.31,0,0,0,.31.31h.76a.31.31,0,0,0,.31-.31V7.63a.31.31,0,0,0-.31-.31Z"/><rect class="cls-2" x="2.61" y="9.72" width="0.38" height="0.2"/><path d="M3.18,9.22H2.42a.31.31,0,0,0-.31.31v.58a.31.31,0,0,0,.31.31h.76a.31.31,0,0,0,.31-.31V9.53a.31.31,0,0,0-.31-.31Z"/><rect class="cls-2" x="4.78" y="9.72" width="0.38" height="0.2"/><path d="M5.35,9.22H4.59a.31.31,0,0,0-.31.31v.58a.31.31,0,0,0,.31.31h.76a.31.31,0,0,0,.31-.31V9.53a.31.31,0,0,0-.31-.31Z"/><rect class="cls-2" x="6.95" y="9.72" width="0.38" height="0.2"/><path d="M7.51,9.22H6.76a.31.31,0,0,0-.31.31v.58a.31.31,0,0,0,.31.31h.76a.31.31,0,0,0,.31-.31V9.53a.31.31,0,0,0-.31-.31Z"/><rect class="cls-2" x="9.01" y="9.72" width="0.38" height="0.2"/><path d="M9.58,9.22H8.82a.31.31,0,0,0-.31.31v.58a.31.31,0,0,0,.31.31h.76a.31.31,0,0,0,.31-.31V9.53a.31.31,0,0,0-.31-.31Z"/></svg>
