<?xml version="1.0" encoding="utf-8"?>
<!-- Generator: Adobe Illustrator 21.1.0, SVG Export Plug-In . SVG Version: 6.00 Build 0)  -->
<svg version="1.1" id="Lager_1" xmlns="http://www.w3.org/2000/svg" xmlns:xlink="http://www.w3.org/1999/xlink" x="0px" y="0px"
	 viewBox="0 0 16 16" style="enable-background:new 0 0 16 16;" xml:space="preserve">
<style type="text/css">
	.st0{fill:#FFFFFF;}
</style>
<title>Facebook_icon</title>
<path class="st0" d="M13.3,0H2.7C1.2,0,0,1.2,0,2.7v10.7C0,14.8,1.2,16,2.7,16h10.7c1.5,0,2.7-1.2,2.7-2.7V2.7C16,1.2,14.8,0,13.3,0
	z M13.2,5.5H11c0,0-0.3,0.1-0.4,0.4s0,1.4,0,1.4h2.6v2.6h-2.6v6H8.1V10h-2V7.3H8V5.8C8.2,5,8.6,4.2,9.2,3.5c0.4-0.4,0.9-0.6,1.4-0.7
	h2.6L13.2,5.5z"/>
</svg>
