<svg id="Lager_1" data-name="Lager 1" xmlns="http://www.w3.org/2000/svg" viewBox="0 0 12 12"><defs><style>.cls-1,.cls-2{fill:#fff;stroke:#fff;}.cls-1{stroke-miterlimit:10;stroke-width:0.5px;}.cls-2{stroke-linecap:round;stroke-linejoin:round;stroke-width:2.7px;}</style></defs><title>Search_icon</title><path class="cls-1" d="M4.53.29A4.22,4.22,0,0,0,.37,4.56,4.22,4.22,0,0,0,4.53,8.83,4.07,4.07,0,0,0,7,8,4.3,4.3,0,0,0,8.69,4.56,4.22,4.22,0,0,0,4.53.29Zm0,7.57a3.27,3.27,0,0,1-3.22-3.3A3.27,3.27,0,0,1,4.53,1.25,3.27,3.27,0,0,1,7.75,4.56,3.27,3.27,0,0,1,4.53,7.87Z"/><line class="cls-2" x1="7.65" y1="7.65" x2="10.61" y2="10.61"/></svg>